max v2;
#N vpatcher 272 325 487 467;
#P origin 0 -90;
#P window setfont "Sans Serif" 9.;
#P hidden newex 294 313 33 9109513 *~ 0.1;
#P hidden newex 260 313 33 9109513 *~ 0.1;
#P hidden newex 260 340 32 9109513 rvb02;
#P user ubumenu 43 64 39 9109513 0 1 1 0;
#X setrgb 31 31 31 231 231 231 140 140 140 149 149 149 141 141 141 112 112 112;
#X add off;
#X add on;
#X prefix_set 0 0 <none> 0;
#P user ubumenu 83 64 74 9109513 0 1 1 0;
#X setrgb 31 31 31 231 231 231 140 140 140 149 149 149 141 141 141 112 112 112;
#X add C major;
#X add C# major;
#X add D major;
#X add D# major;
#X add E major;
#X add F major;
#X add F# major;
#X add G major;
#X add G# major;
#X add A major;
#X add Bb major;
#X add B major;
#X prefix_set 0 0 <none> 0;
#P comment 63 45 100 9109513 efx_stnp v 0.01;
#B frgb 99 99 99;
#P user panel 43 42 114 20;
#X brgb 231 231 231;
#X frgb 149 149 149;
#X border 1;
#X rounded 0;
#X shadow 0;
#X done;
#N vpatcher 219 49 904 726;
#P window setfont "Sans Serif" 9.;
#P window linecount 1;
#P newex 379 209 27 9109513 *~;
#P newex 396 180 85 9109513 reson~ 10 9000 40;
#P newex 406 312 87 9109513 expr random(1\\\,20);
#P newex 406 336 31 9109513 rand~;
#P newex 390 502 62 9109513 clip~ -0.4 0.4;
#P newex 413 449 112 9109513 expr random(100\\\,15000);
#P newex 418 387 129 9109513 expr random(300\\\,700)*0.001;
#P newex 390 475 57 9109513 lores~ 0 0.7;
#P newex 390 412 67 9109513 degrade~ 1 16;
#P newex 390 533 33 9109513 *~ 0.3;
#P newex 389 363 27 9109513 *~;
#P outlet 390 570 15 0;
#P newex 293 209 27 9109513 *~;
#P newex 310 180 85 9109513 reson~ 10 1500 40;
#P window linecount 0;
#P newex 213 502 62 9109513 clip~ -0.4 0.4;
#P window linecount 1;
#P newex 236 449 112 9109513 expr random(100\\\,15000);
#P window linecount 0;
#P newex 241 387 129 9109513 expr random(300\\\,700)*0.001;
#P newex 213 475 57 9109513 lores~ 0 0.7;
#P newex 213 412 67 9109513 degrade~ 1 16;
#P window linecount 1;
#P newex 212 209 27 9109513 *~;
#P newex 212 107 27 9109513 *~ 3;
#P newex 213 533 33 9109513 *~ 0.3;
#P newex 229 180 80 9109513 reson~ 10 500 40;
#P window linecount 0;
#P newex 212 134 66 9109513 overdrive~ 10;
#P inlet 229 59 15 0;
#P window linecount 1;
#P newex 583 180 97 9109513 expr random(40\\\,100);
#P window linecount 0;
#P newex 550 180 32 9109513 metro;
#P newex 229 313 87 9109513 expr random(1\\\,20);
#P newex 229 337 31 9109513 rand~;
#P newex 212 363 27 9109513 *~;
#P outlet 213 570 15 0;
#P inlet 212 59 15 0;
#P connect 0 0 11 0;
#P connect 11 0 8 0;
#P connect 8 0 12 0;
#P fasten 31 0 2 0 384 295 217 295;
#P fasten 19 0 2 0 298 295 217 295;
#P connect 12 0 2 0;
#P connect 2 0 13 0;
#P connect 13 0 14 0;
#P connect 14 0 17 0;
#P connect 17 0 10 0;
#P connect 10 0 1 0;
#P connect 8 0 9 0;
#P connect 9 0 12 1;
#P fasten 5 0 4 0 555 304 234 304;
#P connect 4 0 3 0;
#P connect 3 0 2 1;
#P fasten 5 0 16 0 555 443 241 443;
#P connect 16 0 14 1;
#P fasten 5 0 15 0 555 383 246 383;
#P connect 15 0 13 1;
#P connect 8 0 19 0;
#P connect 8 0 18 0;
#P connect 18 0 19 1;
#P connect 8 0 31 0;
#P fasten 31 0 21 0 384 295 394 295;
#P fasten 12 0 21 0 217 295 394 295;
#P fasten 19 0 21 0 298 295 394 295;
#P connect 21 0 23 0;
#P connect 23 0 24 0;
#P connect 24 0 27 0;
#P connect 27 0 22 0;
#P connect 22 0 20 0;
#P connect 8 0 30 0;
#P connect 30 0 31 1;
#P fasten 5 0 29 0 555 304 411 304;
#P connect 29 0 28 0;
#P connect 28 0 21 1;
#P fasten 5 0 26 0 555 443 418 443;
#P connect 26 0 24 1;
#P fasten 5 0 25 0 555 371 423 371;
#P connect 25 0 23 1;
#P connect 7 0 5 0;
#P connect 6 0 5 1;
#P connect 5 0 6 0;
#P pop;
#P hidden newobj 454 234 41 9109513 p dist01;
#N vpatcher 118 36 1000 703;
#P origin 0 23;
#P window setfont "Sans Serif" 9.;
#P window linecount 1;
#P newex 161 601 33 9109513 *~ 0.5;
#P newex 126 601 33 9109513 *~ 0.5;
#P newex 616 508 39 9109513 rand~ 2;
#P newex 437 508 39 9109513 rand~ 2;
#P newex 258 508 39 9109513 rand~ 2;
#P window linecount 0;
#P newex 80 508 39 9109513 rand~ 2;
#P window linecount 1;
#P newex 241 568 33 9109513 *~ 0.5;
#P newex 62 568 33 9109513 *~ 0.5;
#P newex 599 534 27 9109513 *~;
#P newex 420 534 27 9109513 *~;
#P newex 627 460 114 9109513 expr random(10\\\,90)*0.01;
#P newex 448 460 114 9109513 expr random(10\\\,90)*0.01;
#P newex 599 485 67 9109513 degrade~ 1 16;
#P newex 420 485 67 9109513 degrade~ 1 16;
#P newex 628 180 32 9109513 metro;
#P newex 661 180 97 9109513 expr random(50\\\,100);
#P newex 657 235 120 9109513 expr $i1 + random(50\\\,100);
#P newex 628 208 92 9109513 expr random(0\\\,500);
#P newex 599 436 67 9109513 lores~ 400 0.3;
#P newex 657 372 27 9109513 *~ 5;
#P newex 657 348 62 9109513 clip~ -0.2 0.2;
#P newex 599 409 27 9109513 *~;
#P newex 657 300 58 9109513 *~ 3.141592;
#P newex 657 324 30 9109513 sinx~;
#P newex 599 235 33 9109513 sig~ 1;
#P newex 599 270 68 9109513 groove~ rec02;
#P newex 449 180 32 9109513 metro;
#P newex 482 180 97 9109513 expr random(50\\\,100);
#P newex 478 235 120 9109513 expr $i1 + random(50\\\,100);
#P newex 449 208 92 9109513 expr random(0\\\,500);
#P newex 420 436 67 9109513 lores~ 400 0.3;
#P newex 478 372 27 9109513 *~ 5;
#P newex 478 348 62 9109513 clip~ -0.2 0.2;
#P newex 420 409 27 9109513 *~;
#P newex 478 300 58 9109513 *~ 3.141592;
#P newex 478 324 30 9109513 sinx~;
#P newex 420 235 33 9109513 sig~ 1;
#P newex 420 270 68 9109513 groove~ rec01;
#P outlet 241 637 15 0;
#P outlet 62 637 15 0;
#P newex 241 534 27 9109513 *~;
#P window linecount 0;
#P newex 62 534 27 9109513 *~;
#P window linecount 1;
#P newex 269 460 114 9109513 expr random(10\\\,90)*0.01;
#P window linecount 0;
#P newex 90 460 114 9109513 expr random(10\\\,90)*0.01;
#P window linecount 1;
#P newex 241 485 67 9109513 degrade~ 1 16;
#P window linecount 0;
#P newex 62 485 67 9109513 degrade~ 1 16;
#P window linecount 1;
#P newex 270 180 32 9109513 metro;
#P newex 303 180 97 9109513 expr random(50\\\,100);
#P newex 299 235 120 9109513 expr $i1 + random(50\\\,100);
#P newex 270 208 92 9109513 expr random(0\\\,500);
#P newex 241 436 67 9109513 lores~ 400 0.3;
#P newex 299 372 27 9109513 *~ 5;
#P newex 299 348 62 9109513 clip~ -0.2 0.2;
#P newex 241 409 27 9109513 *~;
#P newex 299 300 58 9109513 *~ 3.141592;
#P newex 299 324 30 9109513 sinx~;
#P newex 241 235 33 9109513 sig~ 1;
#P newex 241 270 68 9109513 groove~ rec02;
#P newex 257 78 139 9109513 if random(0\\\,100)>60 then bang;
#P message 257 102 14 9109513 1;
#P newex 179 137 65 9109513 record~ rec02;
#P newex 91 180 32 9109513 metro;
#P newex 124 180 97 9109513 expr random(50\\\,100);
#P newex 120 235 120 9109513 expr $i1 + random(50\\\,100);
#P window linecount 0;
#P newex 91 208 92 9109513 expr random(0\\\,500);
#P newex 62 436 67 9109513 lores~ 400 0.3;
#P window linecount 1;
#P newex 120 372 27 9109513 *~ 5;
#P newex 120 348 62 9109513 clip~ -0.2 0.2;
#P window linecount 0;
#P newex 62 409 27 9109513 *~;
#P newex 19 180 45 9109513 loadbang;
#P newex 120 300 58 9109513 *~ 3.141592;
#P newex 120 324 30 9109513 sinx~;
#P newex 62 235 33 9109513 sig~ 1;
#P message 19 235 33 9109513 loop 1;
#P newex 62 270 68 9109513 groove~ rec01;
#P inlet 117 11 15 0;
#P newex 117 78 139 9109513 if random(0\\\,100)>60 then bang;
#P newex 117 54 55 9109513 metro 1000;
#P message 117 102 14 9109513 1;
#P newex 39 137 65 9109513 record~ rec01;
#P newex 39 78 27 9109513 *~ 2;
#P newex 39 54 62 9109513 clip~ -0.5 0.5;
#P window linecount 1;
#P newex 264 35 88 9109513 buffer~ rec02 1000;
#P window linecount 0;
#P newex 264 12 88 9109513 buffer~ rec01 1000;
#P inlet 39 11 15 0;
#P connect 15 0 11 0;
#P connect 0 0 3 0;
#P connect 3 0 4 0;
#P connect 4 0 5 0;
#P connect 6 0 5 0;
#P fasten 11 0 10 0 24 261 67 261;
#P connect 12 0 10 0;
#P connect 10 0 16 0;
#P connect 16 0 19 0;
#P connect 19 0 39 0;
#P connect 39 0 43 0;
#P connect 43 0 77 0;
#P fasten 76 0 77 0 604 560 67 560;
#P connect 77 0 45 0;
#P connect 84 0 45 0;
#P fasten 18 0 16 1 125 400 84 400;
#P connect 79 0 43 1;
#P connect 38 0 41 0;
#P connect 41 0 39 1;
#P connect 9 0 23 0;
#P connect 23 0 20 0;
#P connect 20 0 10 1;
#P connect 22 0 23 1;
#P connect 9 0 7 0;
#P connect 7 0 8 0;
#P connect 8 0 6 0;
#P connect 20 0 21 0;
#P connect 21 0 10 2;
#P connect 10 1 14 0;
#P connect 14 0 13 0;
#P connect 13 0 17 0;
#P connect 17 0 18 0;
#P connect 23 0 22 0;
#P connect 77 0 83 0;
#P connect 78 0 84 0;
#P connect 25 0 24 0;
#P connect 4 0 24 0;
#P fasten 11 0 27 0 24 261 246 261;
#P connect 28 0 27 0;
#P connect 27 0 31 0;
#P connect 31 0 34 0;
#P connect 34 0 40 0;
#P connect 40 0 44 0;
#P connect 44 0 78 0;
#P fasten 75 0 78 0 425 560 246 560;
#P connect 83 0 46 0;
#P connect 78 0 46 0;
#P fasten 7 0 26 0 122 75 262 75;
#P connect 26 0 25 0;
#P fasten 33 0 31 1 304 400 263 400;
#P connect 80 0 44 1;
#P connect 23 0 42 0;
#P connect 42 0 40 1;
#P connect 9 0 38 0;
#P connect 38 0 35 0;
#P connect 35 0 27 1;
#P connect 37 0 38 1;
#P connect 35 0 36 0;
#P connect 36 0 27 2;
#P connect 27 1 30 0;
#P connect 30 0 29 0;
#P connect 29 0 32 0;
#P connect 32 0 33 0;
#P connect 38 0 37 0;
#P fasten 11 0 47 0 24 261 425 261;
#P connect 48 0 47 0;
#P connect 47 0 51 0;
#P connect 51 0 54 0;
#P connect 54 0 71 0;
#P connect 71 0 75 0;
#P fasten 53 0 51 1 483 400 442 400;
#P connect 81 0 75 1;
#P connect 70 0 73 0;
#P connect 73 0 71 1;
#P connect 9 0 58 0;
#P connect 58 0 55 0;
#P connect 55 0 47 1;
#P connect 57 0 58 1;
#P connect 55 0 56 0;
#P connect 56 0 47 2;
#P connect 47 1 50 0;
#P connect 50 0 49 0;
#P connect 49 0 52 0;
#P connect 52 0 53 0;
#P connect 58 0 57 0;
#P connect 60 0 59 0;
#P fasten 11 0 59 0 24 261 604 261;
#P connect 59 0 63 0;
#P connect 63 0 66 0;
#P connect 66 0 72 0;
#P connect 72 0 76 0;
#P fasten 65 0 63 1 662 400 621 400;
#P connect 82 0 76 1;
#P connect 58 0 74 0;
#P connect 74 0 72 1;
#P connect 9 0 70 0;
#P connect 70 0 67 0;
#P connect 67 0 59 1;
#P connect 69 0 70 1;
#P connect 67 0 68 0;
#P connect 68 0 59 2;
#P connect 59 1 62 0;
#P connect 62 0 61 0;
#P connect 61 0 64 0;
#P connect 64 0 65 0;
#P connect 70 0 69 0;
#P pop;
#P hidden newobj 403 234 50 9109513 p shortrec;
#N vpatcher 98 29 857 711;
#P origin 0 23;
#P inlet 339 36 15 0;
#P window setfont "Sans Serif" 9.;
#P window linecount 0;
#P newex 307 446 33 9109513 *~ 0.7;
#P newex 324 390 47 9109513 random 2;
#P window linecount 1;
#P newex 307 419 27 9109513 *~;
#P window linecount 0;
#P newex 335 419 107 9109513 expr random(700\\\,2000);
#P window linecount 1;
#P newex 250 446 39 9109513 tapout~;
#P newex 250 419 56 9109513 tapin~ 2000;
#P newex 236 562 59 9109513 pack 0 1000;
#P newex 236 586 27 9109513 line~;
#P window linecount 0;
#P newex 338 562 59 9109513 pack 0 1000;
#P newex 338 585 27 9109513 line~;
#P outlet 291 643 15 0;
#P outlet 189 643 15 0;
#P inlet 479 36 15 0;
#P window linecount 1;
#P newex 338 538 52 9109513 random 20;
#P newex 291 613 39 9109513 tapout~;
#P newex 291 538 46 9109513 tapin~ 20;
#P newex 236 538 52 9109513 random 20;
#P newex 189 613 39 9109513 tapout~;
#P window linecount 0;
#P newex 189 538 46 9109513 tapin~ 20;
#P newex 208 231 28 9109513 mtof;
#P inlet 189 220 15 0;
#P window linecount 1;
#P newex 189 478 62 9109513 clip~ -0.9 0.9;
#P newex 189 389 33 9109513 *~ 0.2;
#P newex 217 340 124 9109513 expr random(10\\\,200)*0.001;
#P newex 389 200 92 9109513 expr random(0\\\,100);
#P message 389 225 41 9109513 \$1 1000;
#P newex 389 247 40 9109513 line;
#P newex 512 60 102 9109513 expr random(80\\\,1200);
#P newex 479 60 32 9109513 metro;
#P newex 347 175 92 9109513 expr random(0\\\,100);
#P message 347 200 41 9109513 \$1 1000;
#P newex 347 222 40 9109513 line;
#P newex 208 96 52 9109513 random 21;
#P newex 298 175 27 9109513 + 0;
#P newex 253 175 27 9109513 - 12;
#P newex 208 175 27 9109513 - 24;
#P newex 298 125 27 9109513 - 14;
#P newex 253 125 27 9109513 - 7;
#P newex 298 149 44 9109513 CMscale;
#P newex 253 149 44 9109513 CMscale;
#P newex 208 149 44 9109513 CMscale;
#P newex 189 503 33 9109513 *~ 0.4;
#P newex 189 364 67 9109513 degrade~ 1 16;
#P newex 189 340 27 9109513 *~;
#P newex 263 287 115 9109513 expr random(1\\\,100) * 0.1;
#P newex 263 312 31 9109513 rand~;
#P newex 208 207 27 9109513 + 0;
#P newex 189 287 70 9109513 reson~ 10 0 80;
#P newex 189 257 70 9109513 reson~ 10 0 80;
#P connect 28 0 0 0;
#P connect 0 0 1 0;
#P connect 1 0 5 0;
#P connect 5 0 6 0;
#P connect 6 0 26 0;
#P connect 26 0 27 0;
#P fasten 48 0 27 0 312 471 194 471;
#P connect 27 0 7 0;
#P connect 7 0 30 0;
#P connect 30 0 31 0;
#P fasten 41 0 31 0 241 609 194 609;
#P connect 31 0 37 0;
#P fasten 3 0 5 1 268 335 211 335;
#P fasten 20 0 16 0 484 87 213 87;
#P connect 16 0 8 0;
#P connect 8 0 13 0;
#P connect 13 0 2 0;
#P fasten 14 0 2 0 258 200 213 200;
#P fasten 15 0 2 0 303 200 213 200;
#P connect 2 0 29 0;
#P fasten 20 0 25 0 484 335 222 335;
#P connect 25 0 6 1;
#P fasten 49 0 2 1 344 203 230 203;
#P connect 29 0 0 2;
#P connect 29 0 1 2;
#P fasten 20 0 32 0 484 529 241 529;
#P connect 32 0 42 0;
#P connect 42 0 41 0;
#P fasten 17 0 0 3 352 253 254 253;
#P fasten 22 0 1 3 394 280 254 280;
#P connect 46 0 43 0;
#P fasten 26 0 43 0 194 413 255 413;
#P connect 43 0 44 0;
#P fasten 45 0 44 0 340 442 255 442;
#P fasten 16 0 11 0 213 120 258 120;
#P connect 11 0 9 0;
#P connect 9 0 14 0;
#P fasten 20 0 4 0 484 280 268 280;
#P connect 4 0 3 0;
#P fasten 7 0 33 0 194 530 296 530;
#P connect 33 0 34 0;
#P fasten 39 0 34 0 343 608 296 608;
#P connect 34 0 38 0;
#P fasten 16 0 12 0 213 120 303 120;
#P connect 12 0 10 0;
#P connect 10 0 15 0;
#P connect 44 0 46 0;
#P connect 46 0 48 0;
#P fasten 20 0 47 0 484 386 329 386;
#P connect 47 0 46 1;
#P fasten 20 0 45 0 484 414 340 414;
#P fasten 20 0 35 0 484 529 343 529;
#P connect 35 0 40 0;
#P connect 40 0 39 0;
#P fasten 20 0 19 0 484 171 352 171;
#P connect 19 0 18 0;
#P connect 18 0 17 0;
#P fasten 20 0 24 0 484 196 394 196;
#P connect 24 0 23 0;
#P connect 23 0 22 0;
#P connect 36 0 20 0;
#P connect 21 0 20 1;
#P connect 20 0 21 0;
#P pop;
#P hidden newobj 75 234 40 9109513 p efx01;
#N vpatcher 98 29 857 711;
#P origin 0 23;
#P inlet 339 36 15 0;
#P window setfont "Sans Serif" 9.;
#P window linecount 0;
#P newex 307 446 33 9109513 *~ 0.7;
#P newex 324 390 47 9109513 random 2;
#P window linecount 1;
#P newex 307 419 27 9109513 *~;
#P window linecount 0;
#P newex 335 419 107 9109513 expr random(700\\\,2000);
#P window linecount 1;
#P newex 250 446 39 9109513 tapout~;
#P newex 250 419 56 9109513 tapin~ 2000;
#P newex 236 562 59 9109513 pack 0 1000;
#P newex 236 586 27 9109513 line~;
#P window linecount 0;
#P newex 338 562 59 9109513 pack 0 1000;
#P newex 338 585 27 9109513 line~;
#P outlet 291 643 15 0;
#P outlet 189 643 15 0;
#P inlet 479 37 15 0;
#P window linecount 1;
#P newex 338 538 52 9109513 random 20;
#P newex 291 613 39 9109513 tapout~;
#P newex 291 538 46 9109513 tapin~ 20;
#P newex 236 538 52 9109513 random 20;
#P newex 189 613 39 9109513 tapout~;
#P window linecount 0;
#P newex 189 538 46 9109513 tapin~ 20;
#P newex 208 231 28 9109513 mtof;
#P inlet 189 220 15 0;
#P window linecount 1;
#P newex 189 478 62 9109513 clip~ -0.9 0.9;
#P newex 189 389 33 9109513 *~ 0.2;
#P newex 217 340 124 9109513 expr random(10\\\,500)*0.001;
#P newex 389 200 92 9109513 expr random(0\\\,100);
#P message 389 225 41 9109513 \$1 1000;
#P newex 389 247 40 9109513 line;
#P newex 512 60 102 9109513 expr random(80\\\,1200);
#P newex 479 60 32 9109513 metro;
#P newex 347 175 92 9109513 expr random(0\\\,100);
#P message 347 200 41 9109513 \$1 1000;
#P newex 347 222 40 9109513 line;
#P newex 208 96 52 9109513 random 21;
#P newex 298 175 27 9109513 + 36;
#P newex 253 175 27 9109513 + 24;
#P newex 208 175 27 9109513 + 12;
#P newex 298 125 27 9109513 - 14;
#P newex 253 125 27 9109513 - 7;
#P newex 298 149 44 9109513 CMscale;
#P newex 253 149 44 9109513 CMscale;
#P newex 208 149 44 9109513 CMscale;
#P newex 189 503 33 9109513 *~ 0.2;
#P newex 189 364 67 9109513 degrade~ 1 16;
#P newex 189 340 27 9109513 *~;
#P newex 263 287 115 9109513 expr random(1\\\,100) * 0.1;
#P newex 263 312 31 9109513 rand~;
#P newex 208 207 27 9109513 + 0;
#P newex 189 287 70 9109513 reson~ 10 0 80;
#P newex 189 257 70 9109513 reson~ 10 0 80;
#P connect 28 0 0 0;
#P connect 0 0 1 0;
#P connect 1 0 5 0;
#P connect 5 0 6 0;
#P connect 6 0 26 0;
#P connect 26 0 27 0;
#P fasten 48 0 27 0 312 471 194 471;
#P connect 27 0 7 0;
#P connect 7 0 30 0;
#P fasten 41 0 31 0 241 609 194 609;
#P connect 30 0 31 0;
#P connect 31 0 37 0;
#P fasten 3 0 5 1 268 335 211 335;
#P fasten 20 0 16 0 484 87 213 87;
#P connect 16 0 8 0;
#P connect 8 0 13 0;
#P fasten 15 0 2 0 303 200 213 200;
#P fasten 14 0 2 0 258 200 213 200;
#P connect 13 0 2 0;
#P connect 2 0 29 0;
#P fasten 20 0 25 0 484 335 222 335;
#P connect 25 0 6 1;
#P fasten 49 0 2 1 344 204 230 204;
#P connect 29 0 0 2;
#P connect 29 0 1 2;
#P fasten 20 0 32 0 484 529 241 529;
#P connect 32 0 42 0;
#P connect 42 0 41 0;
#P fasten 17 0 0 3 352 253 254 253;
#P fasten 22 0 1 3 394 280 254 280;
#P connect 46 0 43 0;
#P fasten 26 0 43 0 194 413 255 413;
#P fasten 45 0 44 0 340 442 255 442;
#P connect 43 0 44 0;
#P fasten 16 0 11 0 213 120 258 120;
#P connect 11 0 9 0;
#P connect 9 0 14 0;
#P fasten 20 0 4 0 484 280 268 280;
#P connect 4 0 3 0;
#P fasten 7 0 33 0 194 530 296 530;
#P fasten 39 0 34 0 343 608 296 608;
#P connect 33 0 34 0;
#P connect 34 0 38 0;
#P fasten 16 0 12 0 213 120 303 120;
#P connect 12 0 10 0;
#P connect 10 0 15 0;
#P connect 44 0 46 0;
#P connect 46 0 48 0;
#P fasten 20 0 47 0 484 386 329 386;
#P connect 47 0 46 1;
#P fasten 20 0 45 0 484 414 340 414;
#P fasten 20 0 35 0 484 529 343 529;
#P connect 35 0 40 0;
#P connect 40 0 39 0;
#P fasten 20 0 19 0 484 171 352 171;
#P connect 19 0 18 0;
#P connect 18 0 17 0;
#P fasten 20 0 24 0 484 196 394 196;
#P connect 24 0 23 0;
#P connect 23 0 22 0;
#P connect 36 0 20 0;
#P connect 21 0 20 1;
#P connect 20 0 21 0;
#P pop;
#P hidden newobj 362 234 40 9109513 p efx01;
#N vpatcher 98 29 857 711;
#P origin 0 23;
#P inlet 339 37 15 0;
#P window setfont "Sans Serif" 9.;
#P window linecount 0;
#P newex 307 446 33 9109513 *~ 0.7;
#P newex 324 390 47 9109513 random 2;
#P window linecount 1;
#P newex 307 419 27 9109513 *~;
#P window linecount 0;
#P newex 335 419 107 9109513 expr random(700\\\,2000);
#P window linecount 1;
#P newex 250 446 39 9109513 tapout~;
#P newex 250 419 56 9109513 tapin~ 2000;
#P newex 236 562 59 9109513 pack 0 1000;
#P newex 236 586 27 9109513 line~;
#P window linecount 0;
#P newex 338 562 59 9109513 pack 0 1000;
#P newex 338 585 27 9109513 line~;
#P outlet 291 643 15 0;
#P outlet 189 643 15 0;
#P inlet 479 37 15 0;
#P window linecount 1;
#P newex 338 538 52 9109513 random 20;
#P newex 291 613 39 9109513 tapout~;
#P newex 291 538 46 9109513 tapin~ 20;
#P newex 236 538 52 9109513 random 20;
#P newex 189 613 39 9109513 tapout~;
#P window linecount 0;
#P newex 189 538 46 9109513 tapin~ 20;
#P newex 208 231 28 9109513 mtof;
#P inlet 189 220 15 0;
#P window linecount 1;
#P newex 189 478 62 9109513 clip~ -0.9 0.9;
#P newex 189 389 85 9109513 reson~ 10 1900 30;
#P newex 217 340 124 9109513 expr random(10\\\,500)*0.001;
#P newex 389 200 92 9109513 expr random(0\\\,100);
#P message 389 225 41 9109513 \$1 1000;
#P newex 389 247 40 9109513 line;
#P newex 512 60 102 9109513 expr random(80\\\,1200);
#P newex 479 60 32 9109513 metro;
#P newex 347 175 92 9109513 expr random(0\\\,100);
#P message 347 200 41 9109513 \$1 1000;
#P newex 347 222 40 9109513 line;
#P newex 208 96 52 9109513 random 21;
#P newex 298 175 27 9109513 + 12;
#P newex 253 175 27 9109513 + 0;
#P newex 208 175 27 9109513 - 12;
#P newex 298 125 27 9109513 - 14;
#P newex 253 125 27 9109513 - 7;
#P newex 298 149 44 9109513 CMscale;
#P newex 253 149 44 9109513 CMscale;
#P newex 208 149 44 9109513 CMscale;
#P newex 189 503 33 9109513 *~ 0.2;
#P newex 189 364 67 9109513 degrade~ 1 16;
#P newex 189 340 27 9109513 *~;
#P newex 263 287 115 9109513 expr random(1\\\,100) * 0.1;
#P newex 263 312 31 9109513 rand~;
#P newex 208 207 27 9109513 + 0;
#P newex 189 287 70 9109513 reson~ 10 0 80;
#P newex 189 257 70 9109513 reson~ 10 0 80;
#P connect 28 0 0 0;
#P connect 0 0 1 0;
#P connect 1 0 5 0;
#P connect 5 0 6 0;
#P connect 6 0 26 0;
#P connect 26 0 27 0;
#P fasten 48 0 27 0 312 471 194 471;
#P connect 27 0 7 0;
#P connect 7 0 30 0;
#P connect 30 0 31 0;
#P fasten 41 0 31 0 241 609 194 609;
#P connect 31 0 37 0;
#P fasten 3 0 5 1 268 335 211 335;
#P fasten 20 0 16 0 484 87 213 87;
#P connect 16 0 8 0;
#P connect 8 0 13 0;
#P fasten 15 0 2 0 303 200 213 200;
#P fasten 14 0 2 0 258 200 213 200;
#P connect 13 0 2 0;
#P connect 2 0 29 0;
#P fasten 20 0 25 0 484 335 222 335;
#P connect 25 0 6 1;
#P fasten 49 0 2 1 344 203 230 203;
#P connect 29 0 0 2;
#P connect 29 0 1 2;
#P fasten 20 0 32 0 484 529 241 529;
#P connect 32 0 42 0;
#P connect 42 0 41 0;
#P fasten 17 0 0 3 352 253 254 253;
#P fasten 22 0 1 3 394 280 254 280;
#P connect 46 0 43 0;
#P fasten 26 0 43 0 194 413 255 413;
#P connect 43 0 44 0;
#P fasten 45 0 44 0 340 442 255 442;
#P fasten 16 0 11 0 213 120 258 120;
#P connect 11 0 9 0;
#P connect 9 0 14 0;
#P fasten 20 0 4 0 484 280 268 280;
#P connect 4 0 3 0;
#P fasten 7 0 33 0 194 530 296 530;
#P connect 33 0 34 0;
#P fasten 39 0 34 0 343 608 296 608;
#P connect 34 0 38 0;
#P fasten 16 0 12 0 213 120 303 120;
#P connect 12 0 10 0;
#P connect 10 0 15 0;
#P connect 44 0 46 0;
#P connect 46 0 48 0;
#P fasten 20 0 47 0 484 386 329 386;
#P connect 47 0 46 1;
#P fasten 20 0 45 0 484 414 340 414;
#P fasten 20 0 35 0 484 529 343 529;
#P connect 35 0 40 0;
#P connect 40 0 39 0;
#P fasten 20 0 19 0 484 171 352 171;
#P connect 19 0 18 0;
#P connect 18 0 17 0;
#P fasten 20 0 24 0 484 196 394 196;
#P connect 24 0 23 0;
#P connect 23 0 22 0;
#P connect 36 0 20 0;
#P connect 21 0 20 1;
#P connect 20 0 21 0;
#P pop;
#P hidden newobj 321 234 40 9109513 p efx01;
#N vpatcher 98 29 857 711;
#P origin 0 23;
#P inlet 339 37 15 0;
#P window setfont "Sans Serif" 9.;
#P window linecount 0;
#P newex 307 446 33 9109513 *~ 0.7;
#P newex 324 390 47 9109513 random 2;
#P window linecount 1;
#P newex 307 419 27 9109513 *~;
#P window linecount 0;
#P newex 335 419 107 9109513 expr random(700\\\,2000);
#P window linecount 1;
#P newex 250 446 39 9109513 tapout~;
#P newex 250 419 56 9109513 tapin~ 2000;
#P newex 236 562 59 9109513 pack 0 1000;
#P newex 236 586 27 9109513 line~;
#P window linecount 0;
#P newex 338 562 59 9109513 pack 0 1000;
#P newex 338 585 27 9109513 line~;
#P outlet 291 643 15 0;
#P outlet 189 643 15 0;
#P inlet 479 37 15 0;
#P window linecount 1;
#P newex 338 538 52 9109513 random 20;
#P newex 291 613 39 9109513 tapout~;
#P newex 291 538 46 9109513 tapin~ 20;
#P newex 236 538 52 9109513 random 20;
#P newex 189 613 39 9109513 tapout~;
#P window linecount 0;
#P newex 189 538 46 9109513 tapin~ 20;
#P newex 208 231 28 9109513 mtof;
#P inlet 189 220 15 0;
#P window linecount 1;
#P newex 189 478 62 9109513 clip~ -0.9 0.9;
#P newex 189 389 85 9109513 reson~ 10 1600 30;
#P newex 217 340 124 9109513 expr random(10\\\,500)*0.001;
#P newex 389 200 92 9109513 expr random(0\\\,100);
#P message 389 225 41 9109513 \$1 1000;
#P newex 389 247 40 9109513 line;
#P newex 512 60 102 9109513 expr random(80\\\,1200);
#P newex 479 60 32 9109513 metro;
#P newex 347 175 92 9109513 expr random(0\\\,100);
#P message 347 200 41 9109513 \$1 1000;
#P newex 347 222 40 9109513 line;
#P newex 208 96 52 9109513 random 21;
#P newex 298 175 27 9109513 + 12;
#P newex 253 175 27 9109513 + 0;
#P newex 208 175 27 9109513 - 12;
#P newex 298 125 27 9109513 - 14;
#P newex 253 125 27 9109513 - 7;
#P newex 298 149 44 9109513 CMscale;
#P newex 253 149 44 9109513 CMscale;
#P newex 208 149 44 9109513 CMscale;
#P newex 189 503 33 9109513 *~ 0.2;
#P newex 189 364 67 9109513 degrade~ 1 16;
#P newex 189 340 27 9109513 *~;
#P newex 263 287 115 9109513 expr random(1\\\,100) * 0.1;
#P newex 263 312 31 9109513 rand~;
#P newex 208 207 27 9109513 + 0;
#P newex 189 287 70 9109513 reson~ 10 0 80;
#P newex 189 257 70 9109513 reson~ 10 0 80;
#P connect 28 0 0 0;
#P connect 0 0 1 0;
#P connect 1 0 5 0;
#P connect 5 0 6 0;
#P connect 6 0 26 0;
#P connect 26 0 27 0;
#P fasten 48 0 27 0 312 471 194 471;
#P connect 27 0 7 0;
#P connect 7 0 30 0;
#P fasten 41 0 31 0 241 609 194 609;
#P connect 30 0 31 0;
#P connect 31 0 37 0;
#P fasten 3 0 5 1 268 335 211 335;
#P fasten 20 0 16 0 484 87 213 87;
#P connect 16 0 8 0;
#P connect 8 0 13 0;
#P connect 13 0 2 0;
#P fasten 14 0 2 0 258 200 213 200;
#P fasten 15 0 2 0 303 200 213 200;
#P connect 2 0 29 0;
#P fasten 20 0 25 0 484 335 222 335;
#P connect 25 0 6 1;
#P fasten 49 0 2 1 344 203 230 203;
#P connect 29 0 0 2;
#P connect 29 0 1 2;
#P fasten 20 0 32 0 484 529 241 529;
#P connect 32 0 42 0;
#P connect 42 0 41 0;
#P fasten 17 0 0 3 352 253 254 253;
#P fasten 22 0 1 3 394 280 254 280;
#P connect 46 0 43 0;
#P fasten 26 0 43 0 194 413 255 413;
#P fasten 45 0 44 0 340 442 255 442;
#P connect 43 0 44 0;
#P fasten 16 0 11 0 213 120 258 120;
#P connect 11 0 9 0;
#P connect 9 0 14 0;
#P fasten 20 0 4 0 484 280 268 280;
#P connect 4 0 3 0;
#P fasten 7 0 33 0 194 530 296 530;
#P fasten 39 0 34 0 343 608 296 608;
#P connect 33 0 34 0;
#P connect 34 0 38 0;
#P fasten 16 0 12 0 213 120 303 120;
#P connect 12 0 10 0;
#P connect 10 0 15 0;
#P connect 44 0 46 0;
#P connect 46 0 48 0;
#P fasten 20 0 47 0 484 386 329 386;
#P connect 47 0 46 1;
#P fasten 20 0 45 0 484 414 340 414;
#P fasten 20 0 35 0 484 529 343 529;
#P connect 35 0 40 0;
#P connect 40 0 39 0;
#P fasten 20 0 19 0 484 171 352 171;
#P connect 19 0 18 0;
#P connect 18 0 17 0;
#P fasten 20 0 24 0 484 196 394 196;
#P connect 24 0 23 0;
#P connect 23 0 22 0;
#P connect 36 0 20 0;
#P connect 21 0 20 1;
#P connect 20 0 21 0;
#P pop;
#P hidden newobj 280 234 40 9109513 p efx01;
#N vpatcher 98 29 857 711;
#P origin 0 23;
#P inlet 339 37 15 0;
#P window setfont "Sans Serif" 9.;
#P window linecount 0;
#P newex 307 446 33 9109513 *~ 0.7;
#P newex 324 390 47 9109513 random 2;
#P window linecount 1;
#P newex 307 419 27 9109513 *~;
#P window linecount 0;
#P newex 335 419 107 9109513 expr random(700\\\,2000);
#P window linecount 1;
#P newex 250 446 39 9109513 tapout~;
#P newex 250 419 56 9109513 tapin~ 2000;
#P newex 236 562 59 9109513 pack 0 1000;
#P newex 236 586 27 9109513 line~;
#P window linecount 0;
#P newex 338 562 59 9109513 pack 0 1000;
#P newex 338 585 27 9109513 line~;
#P outlet 291 643 15 0;
#P outlet 189 643 15 0;
#P inlet 479 37 15 0;
#P window linecount 1;
#P newex 338 538 52 9109513 random 20;
#P newex 291 613 39 9109513 tapout~;
#P newex 291 538 46 9109513 tapin~ 20;
#P newex 236 538 52 9109513 random 20;
#P newex 189 613 39 9109513 tapout~;
#P window linecount 0;
#P newex 189 538 46 9109513 tapin~ 20;
#P newex 208 231 28 9109513 mtof;
#P inlet 189 220 15 0;
#P window linecount 1;
#P newex 189 478 62 9109513 clip~ -0.9 0.9;
#P newex 189 389 85 9109513 reson~ 10 1000 30;
#P newex 217 340 124 9109513 expr random(10\\\,500)*0.001;
#P newex 389 200 92 9109513 expr random(0\\\,100);
#P message 389 225 41 9109513 \$1 1000;
#P newex 389 247 40 9109513 line;
#P newex 512 60 102 9109513 expr random(80\\\,1200);
#P newex 479 60 32 9109513 metro;
#P newex 347 175 92 9109513 expr random(0\\\,100);
#P message 347 200 41 9109513 \$1 1000;
#P newex 347 222 40 9109513 line;
#P newex 208 96 52 9109513 random 21;
#P newex 298 175 27 9109513 + 12;
#P newex 253 175 27 9109513 + 0;
#P newex 208 175 27 9109513 - 12;
#P newex 298 125 27 9109513 - 14;
#P newex 253 125 27 9109513 - 7;
#P newex 298 149 44 9109513 CMscale;
#P newex 253 149 44 9109513 CMscale;
#P newex 208 149 44 9109513 CMscale;
#P newex 189 503 33 9109513 *~ 0.2;
#P newex 189 364 67 9109513 degrade~ 1 16;
#P newex 189 340 27 9109513 *~;
#P newex 263 287 115 9109513 expr random(1\\\,100) * 0.1;
#P newex 263 312 31 9109513 rand~;
#P newex 208 207 27 9109513 + 0;
#P newex 189 287 70 9109513 reson~ 10 0 80;
#P newex 189 257 70 9109513 reson~ 10 0 80;
#P connect 28 0 0 0;
#P connect 0 0 1 0;
#P connect 1 0 5 0;
#P connect 5 0 6 0;
#P connect 6 0 26 0;
#P connect 26 0 27 0;
#P fasten 48 0 27 0 312 471 194 471;
#P connect 27 0 7 0;
#P connect 7 0 30 0;
#P fasten 41 0 31 0 241 609 194 609;
#P connect 30 0 31 0;
#P connect 31 0 37 0;
#P fasten 3 0 5 1 268 335 211 335;
#P fasten 20 0 16 0 484 87 213 87;
#P connect 16 0 8 0;
#P connect 8 0 13 0;
#P connect 13 0 2 0;
#P fasten 14 0 2 0 258 200 213 200;
#P fasten 15 0 2 0 303 200 213 200;
#P connect 2 0 29 0;
#P fasten 20 0 25 0 484 335 222 335;
#P connect 25 0 6 1;
#P fasten 49 0 2 1 344 202 230 202;
#P connect 29 0 0 2;
#P connect 29 0 1 2;
#P fasten 20 0 32 0 484 529 241 529;
#P connect 32 0 42 0;
#P connect 42 0 41 0;
#P fasten 17 0 0 3 352 253 254 253;
#P fasten 22 0 1 3 394 280 254 280;
#P connect 46 0 43 0;
#P fasten 26 0 43 0 194 413 255 413;
#P fasten 45 0 44 0 340 442 255 442;
#P connect 43 0 44 0;
#P fasten 16 0 11 0 213 120 258 120;
#P connect 11 0 9 0;
#P connect 9 0 14 0;
#P fasten 20 0 4 0 484 280 268 280;
#P connect 4 0 3 0;
#P fasten 7 0 33 0 194 530 296 530;
#P fasten 39 0 34 0 343 608 296 608;
#P connect 33 0 34 0;
#P connect 34 0 38 0;
#P fasten 16 0 12 0 213 120 303 120;
#P connect 12 0 10 0;
#P connect 10 0 15 0;
#P connect 44 0 46 0;
#P connect 46 0 48 0;
#P fasten 20 0 47 0 484 386 329 386;
#P connect 47 0 46 1;
#P fasten 20 0 45 0 484 414 340 414;
#P fasten 20 0 35 0 484 529 343 529;
#P connect 35 0 40 0;
#P connect 40 0 39 0;
#P fasten 20 0 19 0 484 171 352 171;
#P connect 19 0 18 0;
#P connect 18 0 17 0;
#P fasten 20 0 24 0 484 196 394 196;
#P connect 24 0 23 0;
#P connect 23 0 22 0;
#P connect 36 0 20 0;
#P connect 21 0 20 1;
#P connect 20 0 21 0;
#P pop;
#P hidden newobj 239 234 40 9109513 p efx01;
#N vpatcher 98 29 857 711;
#P origin 0 23;
#P inlet 339 36 15 0;
#P window setfont "Sans Serif" 9.;
#P window linecount 0;
#P newex 307 446 33 9109513 *~ 0.7;
#P newex 324 390 47 9109513 random 2;
#P window linecount 1;
#P newex 307 419 27 9109513 *~;
#P window linecount 0;
#P newex 335 419 107 9109513 expr random(700\\\,2000);
#P window linecount 1;
#P newex 250 446 39 9109513 tapout~;
#P newex 250 419 56 9109513 tapin~ 2000;
#P newex 236 562 59 9109513 pack 0 1000;
#P newex 236 586 27 9109513 line~;
#P window linecount 0;
#P newex 338 562 59 9109513 pack 0 1000;
#P newex 338 585 27 9109513 line~;
#P outlet 291 643 15 0;
#P outlet 189 643 15 0;
#P inlet 479 37 15 0;
#P window linecount 1;
#P newex 338 538 52 9109513 random 20;
#P newex 291 613 39 9109513 tapout~;
#P newex 291 538 46 9109513 tapin~ 20;
#P newex 236 538 52 9109513 random 20;
#P newex 189 613 39 9109513 tapout~;
#P window linecount 0;
#P newex 189 538 46 9109513 tapin~ 20;
#P newex 208 231 28 9109513 mtof;
#P inlet 189 220 15 0;
#P window linecount 1;
#P newex 189 478 62 9109513 clip~ -0.9 0.9;
#P newex 189 389 85 9109513 reson~ 10 3000 30;
#P newex 217 340 124 9109513 expr random(10\\\,500)*0.001;
#P newex 389 200 92 9109513 expr random(0\\\,100);
#P message 389 225 41 9109513 \$1 1000;
#P newex 389 247 40 9109513 line;
#P newex 512 60 102 9109513 expr random(80\\\,1200);
#P newex 479 60 32 9109513 metro;
#P newex 347 175 92 9109513 expr random(0\\\,100);
#P message 347 200 41 9109513 \$1 1000;
#P newex 347 222 40 9109513 line;
#P newex 208 96 52 9109513 random 21;
#P newex 298 175 27 9109513 + 24;
#P newex 253 175 27 9109513 + 12;
#P newex 208 175 27 9109513 + 0;
#P newex 298 125 27 9109513 - 14;
#P newex 253 125 27 9109513 - 7;
#P newex 298 149 44 9109513 CMscale;
#P newex 253 149 44 9109513 CMscale;
#P newex 208 149 44 9109513 CMscale;
#P newex 189 503 33 9109513 *~ 0.2;
#P newex 189 364 67 9109513 degrade~ 1 16;
#P newex 189 340 27 9109513 *~;
#P newex 263 287 115 9109513 expr random(1\\\,100) * 0.1;
#P newex 263 312 31 9109513 rand~;
#P newex 208 207 27 9109513 + 0;
#P newex 189 287 70 9109513 reson~ 10 0 80;
#P newex 189 257 70 9109513 reson~ 10 0 80;
#P connect 28 0 0 0;
#P connect 0 0 1 0;
#P connect 1 0 5 0;
#P connect 5 0 6 0;
#P connect 6 0 26 0;
#P connect 26 0 27 0;
#P fasten 48 0 27 0 312 471 194 471;
#P connect 27 0 7 0;
#P connect 7 0 30 0;
#P connect 30 0 31 0;
#P fasten 41 0 31 0 241 609 194 609;
#P connect 31 0 37 0;
#P fasten 3 0 5 1 268 335 211 335;
#P fasten 20 0 16 0 484 87 213 87;
#P connect 16 0 8 0;
#P connect 8 0 13 0;
#P fasten 15 0 2 0 303 200 213 200;
#P fasten 14 0 2 0 258 200 213 200;
#P connect 13 0 2 0;
#P connect 2 0 29 0;
#P fasten 20 0 25 0 484 335 222 335;
#P connect 25 0 6 1;
#P fasten 49 0 2 1 344 204 230 204;
#P connect 29 0 0 2;
#P connect 29 0 1 2;
#P fasten 20 0 32 0 484 529 241 529;
#P connect 32 0 42 0;
#P connect 42 0 41 0;
#P fasten 17 0 0 3 352 253 254 253;
#P fasten 22 0 1 3 394 280 254 280;
#P connect 46 0 43 0;
#P fasten 26 0 43 0 194 413 255 413;
#P connect 43 0 44 0;
#P fasten 45 0 44 0 340 442 255 442;
#P fasten 16 0 11 0 213 120 258 120;
#P connect 11 0 9 0;
#P connect 9 0 14 0;
#P fasten 20 0 4 0 484 280 268 280;
#P connect 4 0 3 0;
#P fasten 7 0 33 0 194 530 296 530;
#P connect 33 0 34 0;
#P fasten 39 0 34 0 343 608 296 608;
#P connect 34 0 38 0;
#P fasten 16 0 12 0 213 120 303 120;
#P connect 12 0 10 0;
#P connect 10 0 15 0;
#P connect 44 0 46 0;
#P connect 46 0 48 0;
#P fasten 20 0 47 0 484 386 329 386;
#P connect 47 0 46 1;
#P fasten 20 0 45 0 484 414 340 414;
#P fasten 20 0 35 0 484 529 343 529;
#P connect 35 0 40 0;
#P connect 40 0 39 0;
#P fasten 20 0 19 0 484 171 352 171;
#P connect 19 0 18 0;
#P connect 18 0 17 0;
#P fasten 20 0 24 0 484 196 394 196;
#P connect 24 0 23 0;
#P connect 23 0 22 0;
#P connect 36 0 20 0;
#P connect 21 0 20 1;
#P connect 20 0 21 0;
#P pop;
#P hidden newobj 198 234 40 9109513 p efx01;
#N vpatcher 98 29 857 711;
#P origin 0 23;
#P inlet 338 42 15 0;
#P window setfont "Sans Serif" 9.;
#P window linecount 0;
#P newex 307 446 33 9109513 *~ 0.7;
#P newex 324 390 47 9109513 random 2;
#P window linecount 1;
#P newex 307 419 27 9109513 *~;
#P window linecount 0;
#P newex 335 419 107 9109513 expr random(700\\\,2000);
#P window linecount 1;
#P newex 250 446 39 9109513 tapout~;
#P newex 250 419 56 9109513 tapin~ 2000;
#P newex 236 562 59 9109513 pack 0 1000;
#P newex 236 586 27 9109513 line~;
#P window linecount 0;
#P newex 338 562 59 9109513 pack 0 1000;
#P newex 338 585 27 9109513 line~;
#P outlet 291 643 15 0;
#P outlet 189 643 15 0;
#P inlet 479 37 15 0;
#P window linecount 1;
#P newex 338 538 52 9109513 random 20;
#P newex 291 613 39 9109513 tapout~;
#P newex 291 538 46 9109513 tapin~ 20;
#P newex 236 538 52 9109513 random 20;
#P newex 189 613 39 9109513 tapout~;
#P window linecount 0;
#P newex 189 538 46 9109513 tapin~ 20;
#P newex 208 231 28 9109513 mtof;
#P inlet 189 220 15 0;
#P window linecount 1;
#P newex 189 478 62 9109513 clip~ -0.9 0.9;
#P newex 189 389 33 9109513 *~ 0.2;
#P newex 217 340 124 9109513 expr random(10\\\,500)*0.001;
#P newex 389 200 92 9109513 expr random(0\\\,100);
#P message 389 225 41 9109513 \$1 1000;
#P newex 389 247 40 9109513 line;
#P newex 512 60 102 9109513 expr random(80\\\,1200);
#P newex 479 60 32 9109513 metro;
#P newex 347 175 92 9109513 expr random(0\\\,100);
#P message 347 200 41 9109513 \$1 1000;
#P newex 347 222 40 9109513 line;
#P newex 208 96 52 9109513 random 21;
#P newex 298 175 27 9109513 + 12;
#P newex 253 175 27 9109513 + 0;
#P newex 208 175 27 9109513 - 12;
#P newex 298 125 27 9109513 - 14;
#P newex 253 125 27 9109513 - 7;
#P newex 298 149 44 9109513 CMscale;
#P newex 253 149 44 9109513 CMscale;
#P newex 208 149 44 9109513 CMscale;
#P newex 189 503 33 9109513 *~ 0.4;
#P newex 189 364 67 9109513 degrade~ 1 16;
#P newex 189 340 27 9109513 *~;
#P newex 263 287 115 9109513 expr random(1\\\,100) * 0.1;
#P newex 263 312 31 9109513 rand~;
#P newex 208 207 27 9109513 + 0;
#P newex 189 287 70 9109513 reson~ 10 0 80;
#P newex 189 257 70 9109513 reson~ 10 0 80;
#P connect 28 0 0 0;
#P connect 0 0 1 0;
#P connect 1 0 5 0;
#P connect 5 0 6 0;
#P connect 6 0 26 0;
#P connect 26 0 27 0;
#P fasten 48 0 27 0 312 471 194 471;
#P connect 27 0 7 0;
#P connect 7 0 30 0;
#P connect 30 0 31 0;
#P fasten 41 0 31 0 241 609 194 609;
#P connect 31 0 37 0;
#P fasten 3 0 5 1 268 335 211 335;
#P fasten 20 0 16 0 484 87 213 87;
#P connect 16 0 8 0;
#P connect 8 0 13 0;
#P fasten 15 0 2 0 303 200 213 200;
#P fasten 14 0 2 0 258 200 213 200;
#P connect 13 0 2 0;
#P connect 2 0 29 0;
#P fasten 20 0 25 0 484 335 222 335;
#P connect 25 0 6 1;
#P fasten 49 0 2 1 343 203 230 203;
#P connect 29 0 0 2;
#P connect 29 0 1 2;
#P fasten 20 0 32 0 484 529 241 529;
#P connect 32 0 42 0;
#P connect 42 0 41 0;
#P fasten 17 0 0 3 352 253 254 253;
#P fasten 22 0 1 3 394 280 254 280;
#P connect 46 0 43 0;
#P fasten 26 0 43 0 194 413 255 413;
#P connect 43 0 44 0;
#P fasten 45 0 44 0 340 442 255 442;
#P fasten 16 0 11 0 213 120 258 120;
#P connect 11 0 9 0;
#P connect 9 0 14 0;
#P fasten 20 0 4 0 484 280 268 280;
#P connect 4 0 3 0;
#P fasten 7 0 33 0 194 530 296 530;
#P connect 33 0 34 0;
#P fasten 39 0 34 0 343 608 296 608;
#P connect 34 0 38 0;
#P fasten 16 0 12 0 213 120 303 120;
#P connect 12 0 10 0;
#P connect 10 0 15 0;
#P connect 44 0 46 0;
#P connect 46 0 48 0;
#P fasten 20 0 47 0 484 386 329 386;
#P connect 47 0 46 1;
#P fasten 20 0 45 0 484 414 340 414;
#P fasten 20 0 35 0 484 529 343 529;
#P connect 35 0 40 0;
#P connect 40 0 39 0;
#P fasten 20 0 19 0 484 171 352 171;
#P connect 19 0 18 0;
#P connect 18 0 17 0;
#P fasten 20 0 24 0 484 196 394 196;
#P connect 24 0 23 0;
#P connect 23 0 22 0;
#P connect 36 0 20 0;
#P connect 21 0 20 1;
#P connect 20 0 21 0;
#P pop;
#P hidden newobj 157 234 40 9109513 p efx01;
#P hidden toggle 517 195 15 0;
#N vpatcher 98 29 857 711;
#P origin 0 23;
#P inlet 338 38 15 0;
#P window setfont "Sans Serif" 9.;
#P window linecount 0;
#P newex 307 446 33 9109513 *~ 0.7;
#P newex 324 390 47 9109513 random 2;
#P window linecount 1;
#P newex 307 419 27 9109513 *~;
#P window linecount 0;
#P newex 335 419 107 9109513 expr random(700\\\,2000);
#P window linecount 1;
#P newex 250 446 39 9109513 tapout~;
#P newex 250 419 56 9109513 tapin~ 2000;
#P newex 236 562 59 9109513 pack 0 1000;
#P newex 236 586 27 9109513 line~;
#P window linecount 0;
#P newex 338 562 59 9109513 pack 0 1000;
#P newex 338 585 27 9109513 line~;
#P outlet 291 643 15 0;
#P outlet 189 643 15 0;
#P inlet 479 37 15 0;
#P window linecount 1;
#P newex 338 538 52 9109513 random 20;
#P newex 291 613 39 9109513 tapout~;
#P newex 291 538 46 9109513 tapin~ 20;
#P newex 236 538 52 9109513 random 20;
#P newex 189 613 39 9109513 tapout~;
#P window linecount 0;
#P newex 189 538 46 9109513 tapin~ 20;
#P newex 208 231 28 9109513 mtof;
#P inlet 189 220 15 0;
#P window linecount 1;
#P newex 189 478 62 9109513 clip~ -0.9 0.9;
#P newex 189 389 33 9109513 *~ 0.2;
#P newex 217 340 124 9109513 expr random(10\\\,500)*0.001;
#P newex 389 200 92 9109513 expr random(0\\\,100);
#P message 389 225 41 9109513 \$1 1000;
#P newex 389 247 40 9109513 line;
#P newex 512 60 102 9109513 expr random(80\\\,1200);
#P newex 479 60 32 9109513 metro;
#P newex 347 175 92 9109513 expr random(0\\\,100);
#P message 347 200 41 9109513 \$1 1000;
#P newex 347 222 40 9109513 line;
#P newex 208 96 52 9109513 random 21;
#P newex 298 175 27 9109513 + 0;
#P newex 253 175 27 9109513 - 12;
#P newex 208 175 27 9109513 - 24;
#P newex 298 125 27 9109513 - 14;
#P newex 253 125 27 9109513 - 7;
#P newex 298 149 44 9109513 CMscale;
#P newex 253 149 44 9109513 CMscale;
#P newex 208 149 44 9109513 CMscale;
#P newex 189 503 33 9109513 *~ 0.4;
#P newex 189 364 67 9109513 degrade~ 1 16;
#P newex 189 340 27 9109513 *~;
#P newex 263 287 115 9109513 expr random(1\\\,100) * 0.1;
#P newex 263 312 31 9109513 rand~;
#P newex 208 207 27 9109513 + 0;
#P newex 189 287 70 9109513 reson~ 10 0 80;
#P newex 189 257 70 9109513 reson~ 10 0 80;
#P connect 28 0 0 0;
#P connect 0 0 1 0;
#P connect 1 0 5 0;
#P connect 5 0 6 0;
#P connect 6 0 26 0;
#P connect 26 0 27 0;
#P fasten 48 0 27 0 312 471 194 471;
#P connect 27 0 7 0;
#P connect 7 0 30 0;
#P fasten 41 0 31 0 241 609 194 609;
#P connect 30 0 31 0;
#P connect 31 0 37 0;
#P fasten 3 0 5 1 268 335 211 335;
#P fasten 20 0 16 0 484 87 213 87;
#P connect 16 0 8 0;
#P connect 8 0 13 0;
#P fasten 15 0 2 0 303 200 213 200;
#P fasten 14 0 2 0 258 200 213 200;
#P connect 13 0 2 0;
#P connect 2 0 29 0;
#P fasten 20 0 25 0 484 335 222 335;
#P connect 25 0 6 1;
#P fasten 49 0 2 1 343 204 230 204;
#P connect 29 0 0 2;
#P connect 29 0 1 2;
#P fasten 20 0 32 0 484 529 241 529;
#P connect 32 0 42 0;
#P connect 42 0 41 0;
#P fasten 17 0 0 3 352 253 254 253;
#P fasten 22 0 1 3 394 280 254 280;
#P connect 46 0 43 0;
#P fasten 26 0 43 0 194 413 255 413;
#P fasten 45 0 44 0 340 442 255 442;
#P connect 43 0 44 0;
#P fasten 16 0 11 0 213 120 258 120;
#P connect 11 0 9 0;
#P connect 9 0 14 0;
#P fasten 20 0 4 0 484 280 268 280;
#P connect 4 0 3 0;
#P fasten 7 0 33 0 194 530 296 530;
#P fasten 39 0 34 0 343 608 296 608;
#P connect 33 0 34 0;
#P connect 34 0 38 0;
#P fasten 16 0 12 0 213 120 303 120;
#P connect 12 0 10 0;
#P connect 10 0 15 0;
#P connect 44 0 46 0;
#P connect 46 0 48 0;
#P fasten 20 0 47 0 484 386 329 386;
#P connect 47 0 46 1;
#P fasten 20 0 45 0 484 414 340 414;
#P fasten 20 0 35 0 484 529 343 529;
#P connect 35 0 40 0;
#P connect 40 0 39 0;
#P fasten 20 0 19 0 484 171 352 171;
#P connect 19 0 18 0;
#P connect 18 0 17 0;
#P fasten 20 0 24 0 484 196 394 196;
#P connect 24 0 23 0;
#P connect 23 0 22 0;
#P connect 36 0 20 0;
#P connect 21 0 20 1;
#P connect 20 0 21 0;
#P pop;
#P hidden newobj 116 234 40 9109513 p efx01;
#P hidden newex 207 366 28 9109513 dac~;
#P hidden newex 103 174 28 9109513 adc~;
#P hidden fasten 0 0 10 0 108 213 80 213;
#P hidden fasten 15 0 10 1 88 157 95 157;
#P hidden fasten 3 0 10 2 522 222 110 222;
#P hidden fasten 0 0 2 0 108 213 121 213;
#P hidden fasten 15 0 2 1 88 157 136 157;
#P hidden fasten 3 0 2 2 522 222 151 222;
#P hidden fasten 0 0 4 0 108 213 162 213;
#P hidden fasten 15 0 4 1 88 157 177 157;
#P hidden fasten 3 0 4 2 522 222 192 222;
#P hidden fasten 0 0 5 0 108 213 203 213;
#P hidden fasten 12 0 1 0 459 309 212 309;
#P hidden fasten 11 0 1 0 408 309 212 309;
#P hidden fasten 9 0 1 0 367 309 212 309;
#P hidden fasten 8 0 1 0 326 309 212 309;
#P hidden fasten 7 0 1 0 285 309 212 309;
#P hidden fasten 6 0 1 0 244 309 212 309;
#P hidden fasten 5 0 1 0 203 309 212 309;
#P hidden fasten 4 0 1 0 162 309 212 309;
#P hidden fasten 2 0 1 0 121 309 212 309;
#P hidden fasten 10 0 1 0 80 309 212 309;
#P hidden fasten 16 0 1 0 48 353 212 353;
#P hidden fasten 17 0 1 0 265 362 212 362;
#P hidden fasten 15 0 5 1 88 157 218 157;
#P hidden fasten 12 1 1 1 490 309 230 309;
#P hidden fasten 11 1 1 1 448 309 230 309;
#P hidden fasten 9 1 1 1 397 309 230 309;
#P hidden fasten 8 1 1 1 356 309 230 309;
#P hidden fasten 7 1 1 1 315 309 230 309;
#P hidden fasten 6 1 1 1 274 309 230 309;
#P hidden fasten 5 1 1 1 233 309 230 309;
#P hidden fasten 4 1 1 1 192 309 230 309;
#P hidden fasten 2 1 1 1 151 309 230 309;
#P hidden fasten 10 1 1 1 110 309 230 309;
#P hidden fasten 17 1 1 1 287 362 230 362;
#P hidden fasten 3 0 5 2 522 222 233 222;
#P hidden fasten 0 0 6 0 108 213 244 213;
#P hidden fasten 15 0 6 1 88 157 259 157;
#P hidden fasten 12 0 18 0 459 283 265 283;
#P hidden fasten 11 0 18 0 408 283 265 283;
#P hidden fasten 9 0 18 0 367 283 265 283;
#P hidden fasten 8 0 18 0 326 283 265 283;
#P hidden fasten 7 0 18 0 285 283 265 283;
#P hidden fasten 6 0 18 0 244 283 265 283;
#P hidden fasten 5 0 18 0 203 283 265 283;
#P hidden fasten 4 0 18 0 162 283 265 283;
#P hidden fasten 2 0 18 0 121 283 265 283;
#P hidden fasten 10 0 18 0 80 283 265 283;
#P hidden connect 18 0 17 0;
#P hidden fasten 3 0 6 2 522 222 274 222;
#P hidden fasten 0 0 7 0 108 213 285 213;
#P hidden fasten 19 0 17 1 299 336 287 336;
#P hidden fasten 12 1 19 0 490 283 299 283;
#P hidden fasten 11 1 19 0 448 283 299 283;
#P hidden fasten 9 1 19 0 397 283 299 283;
#P hidden fasten 8 1 19 0 356 283 299 283;
#P hidden fasten 7 1 19 0 315 283 299 283;
#P hidden fasten 6 1 19 0 274 283 299 283;
#P hidden fasten 5 1 19 0 233 283 299 283;
#P hidden fasten 4 1 19 0 192 283 299 283;
#P hidden fasten 2 1 19 0 151 283 299 283;
#P hidden fasten 10 1 19 0 110 283 299 283;
#P hidden fasten 15 0 7 1 88 157 300 157;
#P hidden fasten 3 0 7 2 522 222 315 222;
#P hidden fasten 0 0 8 0 108 213 326 213;
#P hidden fasten 15 0 8 1 88 157 341 157;
#P hidden fasten 3 0 8 2 522 222 356 222;
#P hidden fasten 0 0 9 0 108 213 367 213;
#P hidden fasten 15 0 9 1 88 157 382 157;
#P hidden fasten 3 0 9 2 522 222 397 222;
#P hidden fasten 0 0 11 0 108 213 408 213;
#P hidden fasten 3 0 11 1 522 222 448 222;
#P hidden fasten 0 0 12 0 108 213 459 213;
#P hidden fasten 3 0 12 1 522 222 490 222;
#P hidden fasten 16 0 3 0 48 137 522 137;
#P pop;
