max v2;
#N vpatcher 299 147 513 339;
#P origin 0 16;
#P window setfont "Sans Serif" 9.;
#P hidden message 274 183 21 9109513 0.1;
#P user ubumenu 44 84 39 9109513 0 1 1 0;
#X setrgb 31 31 31 231 231 231 140 140 140 149 149 149 141 141 141 112 112 112;
#X add off;
#X add on;
#X prefix_set 0 0 <none> 0;
#P user ubumenu 84 84 74 9109513 0 1 1 0;
#X setrgb 31 31 31 231 231 231 140 140 140 149 149 149 141 141 141 112 112 112;
#X add C major;
#X add C# major;
#X add D major;
#X add D# major;
#X add E major;
#X add F major;
#X add F# major;
#X add G major;
#X add G# major;
#X add A major;
#X add Bb major;
#X add B major;
#X prefix_set 0 0 <none> 0;
#P hidden message 259 183 14 9109513 1;
#P hidden newex 259 156 45 9109513 loadbang;
#N vpatcher 80 45 698 513;
#P origin -23 0;
#P inlet 324 177 15 0;
#P window setfont "Sans Serif" 9.;
#P newex 145 208 38 9109513 *~ 0.04;
#P inlet 145 177 15 0;
#P newex 233 208 38 9109513 *~ 0.04;
#P newex 233 374 32 9109513 *~ 0.5;
#P newex 233 339 88 9109513 allpass~ 100 85 0.7;
#P newex 233 313 88 9109513 allpass~ 100 67 0.7;
#P newex 233 288 88 9109513 allpass~ 100 64 0.7;
#P outlet 233 429 15 0;
#P newex 144 374 32 9109513 *~ 0.5;
#P newex 144 339 88 9109513 allpass~ 100 85 0.7;
#P newex 144 313 88 9109513 allpass~ 100 67 0.7;
#P newex 144 288 88 9109513 allpass~ 100 65 0.7;
#P outlet 144 429 15 0;
#P inlet 233 177 15 0;
#P connect 13 0 2 0;
#P connect 2 0 3 0;
#P connect 3 0 4 0;
#P connect 4 0 5 0;
#P connect 5 0 1 0;
#P connect 12 0 13 0;
#P fasten 14 0 13 1 329 200 178 200;
#P connect 0 0 11 0;
#P connect 11 0 7 0;
#P connect 7 0 8 0;
#P connect 8 0 9 0;
#P connect 9 0 10 0;
#P connect 10 0 6 0;
#P fasten 14 0 11 1 329 200 266 200;
#P pop;
#P hidden newobj 355 347 40 9109513 p rvb;
#N vpatcher 159 26 910 692;
#P window setfont "Sans Serif" 9.;
#P window linecount 1;
#P newex 460 525 87 9109513 expr random(1\\\,10);
#P newex 413 552 39 9109513 tapout~;
#P newex 413 525 46 9109513 tapin~ 10;
#P newex 413 498 87 9109513 expr random(1\\\,10);
#P newex 366 525 39 9109513 tapout~;
#P window linecount 0;
#P newex 366 498 46 9109513 tapin~ 10;
#P window linecount 1;
#P newex 413 584 33 9109513 *~ 0.2;
#P outlet 413 626 15 0;
#P newex 438 276 107 9109513 expr random(300\\\,2000);
#P message 623 331 14 9109513 1;
#P message 641 358 21 9109513 0.5;
#P window linecount 0;
#P message 605 358 23 9109513 120;
#P message 515 358 45 9109513 highpass;
#P user filtergraph~ 515 389 137 46 139 9 20. 20000. 0.0625 16. 0 1 1 0 0 1 1;
#X frgb 170 170 170;
#X brgb 209 209 209;
#X rgb2 0 0 0;
#X rgb3 130 130 130;
#X rgb4 0 0 0;
#X rgb5 76 108 172;
#X rgb6 210 74 54;
#X rgb7 255 22 22;
#X linmarkers 5512.5 11025. 16537.5;
#X logmarkers 10. 100. 1000. 10000.;
#X nfilters 1;
#X setfilter 0 2 1 0 0 120. 1. 0.5 0. 0. 0. 0. 0. 0.;
#X done;
#P newex 366 452 79 9109513 biquad~;
#P newex 366 340 72 9109513 lores~ 1000 0.8;
#P newex 394 93 45 9109513 loadbang;
#P message 394 119 14 9109513 1;
#P window linecount 1;
#P newex 427 142 97 9109513 expr random(50\\\,400);
#P newex 394 143 32 9109513 metro;
#P window linecount 0;
#P newex 394 167 87 9109513 expr random(1\\\,20);
#P message 394 191 31 9109513 \$1 10;
#P newex 394 213 27 9109513 line~;
#P window linecount 1;
#P newex 366 569 33 9109513 *~ 0.2;
#P window linecount 0;
#P newex 350 213 33 9109513 *~ 0.6;
#P newex 298 247 39 9109513 tapout~;
#P newex 298 213 51 9109513 tapin~ 100;
#P outlet 366 611 15 0;
#P inlet 269 60 15 0;
#P fasten 4 0 2 0 355 236 287 236 287 203 303 203;
#P fasten 0 0 2 0 274 144 303 144;
#P fasten 6 0 3 0 399 240 303 240;
#P connect 2 0 3 0;
#P fasten 3 0 4 0 303 275 383 275 383 196 355 196;
#P fasten 3 0 13 0 303 303 371 303;
#P connect 13 0 14 0;
#P connect 14 0 23 0;
#P connect 25 0 24 0;
#P connect 23 0 24 0;
#P connect 24 0 5 0;
#P connect 5 0 1 0;
#P fasten 15 0 14 1 520 443 384 443;
#P connect 12 0 11 0;
#P connect 11 0 9 0;
#P connect 9 0 8 0;
#P connect 8 0 7 0;
#P connect 7 0 6 0;
#P connect 20 0 13 1;
#P connect 9 0 25 0;
#P connect 14 0 26 0;
#P connect 26 0 27 0;
#P connect 28 0 27 0;
#P connect 27 0 22 0;
#P connect 22 0 21 0;
#P connect 10 0 9 1;
#P connect 9 0 10 0;
#P connect 9 0 20 0;
#P connect 9 0 28 0;
#P fasten 12 0 16 0 399 115 520 115;
#P connect 16 0 15 0;
#P fasten 12 0 17 0 399 115 610 115;
#P connect 17 0 15 5;
#P fasten 12 0 19 0 399 115 628 115;
#P connect 19 0 15 6;
#P fasten 12 0 18 0 399 115 646 115;
#P connect 18 0 15 7;
#P pop;
#P hidden newobj 246 307 92 9109513 p kue;
#N vpatcher 15 55 768 639;
#P origin 0 20;
#P window setfont "Sans Serif" 9.;
#P window linecount 0;
#P newex 381 428 120 9109513 expr random(20\\\,40) * 0.01;
#P newex 257 491 67 9109513 degrade~ 1 16;
#P inlet 257 105 15 0;
#P window linecount 1;
#P newex 257 441 62 9109513 clip~ -0.8 0.8;
#P newex 257 411 65 9109513 reson~ 5 0 80;
#P inlet 536 109 15 0;
#P outlet 257 536 15 0;
#P window linecount 0;
#P newex 431 116 45 9109513 loadbang;
#P inlet 356 106 15 0;
#P window linecount 1;
#P newex 446 330 27 9109513 + 0;
#P newex 401 330 27 9109513 + 0;
#P newex 356 330 27 9109513 + 0;
#P newex 446 303 27 9109513 + 12;
#P newex 401 303 27 9109513 - 0;
#P newex 356 303 27 9109513 - 12;
#P newex 446 254 27 9109513 - 14;
#P newex 401 254 27 9109513 - 7;
#P newex 446 278 44 9109513 CMscale;
#P newex 401 278 44 9109513 CMscale;
#P newex 356 362 28 9109513 mtof;
#P newex 356 227 52 9109513 random 21;
#P newex 356 278 44 9109513 CMscale;
#P message 431 145 26 9109513 5.43;
#P newex 389 195 87 9109513 scale 0 1 100 1000;
#P newex 389 170 52 9109513 random-as;
#P newex 356 170 32 9109513 metro;
#P connect 23 0 21 0;
#P connect 21 0 22 0;
#P connect 22 0 24 0;
#P connect 24 0 19 0;
#P connect 25 0 24 1;
#P connect 6 0 21 2;
#P connect 17 0 0 0;
#P connect 0 0 5 0;
#P connect 5 0 4 0;
#P connect 4 0 11 0;
#P connect 11 0 14 0;
#P connect 15 0 6 0;
#P connect 14 0 6 0;
#P connect 16 0 6 0;
#P connect 20 0 14 1;
#P connect 2 0 0 1;
#P connect 0 0 25 0;
#P connect 0 0 1 0;
#P connect 1 0 2 0;
#P connect 5 0 9 0;
#P connect 9 0 7 0;
#P connect 7 0 12 0;
#P connect 12 0 15 0;
#P connect 20 0 15 1;
#P connect 18 0 3 0;
#P connect 3 0 1 1;
#P connect 5 0 10 0;
#P connect 10 0 8 0;
#P connect 8 0 13 0;
#P connect 13 0 16 0;
#P connect 20 0 16 1;
#P pop;
#P hidden newobj 310 227 51 9109513 p frqrnd01;
#N vpatcher 15 55 768 639;
#P origin 0 20;
#P window setfont "Sans Serif" 9.;
#P window linecount 0;
#P newex 381 428 120 9109513 expr random(20\\\,40) * 0.01;
#P newex 257 491 67 9109513 degrade~ 1 16;
#P inlet 257 105 15 0;
#P window linecount 1;
#P newex 257 441 62 9109513 clip~ -0.8 0.8;
#P newex 257 411 65 9109513 reson~ 5 0 80;
#P inlet 536 109 15 0;
#P outlet 257 536 15 0;
#P window linecount 0;
#P newex 431 116 45 9109513 loadbang;
#P inlet 356 106 15 0;
#P window linecount 1;
#P newex 446 330 27 9109513 + 0;
#P newex 401 330 27 9109513 + 0;
#P newex 356 330 27 9109513 + 0;
#P newex 446 303 27 9109513 + 12;
#P newex 401 303 27 9109513 - 0;
#P newex 356 303 27 9109513 - 12;
#P newex 446 254 27 9109513 - 14;
#P newex 401 254 27 9109513 - 7;
#P newex 446 278 44 9109513 CMscale;
#P newex 401 278 44 9109513 CMscale;
#P newex 356 362 28 9109513 mtof;
#P newex 356 227 52 9109513 random 21;
#P newex 356 278 44 9109513 CMscale;
#P message 431 145 26 9109513 3.41;
#P newex 389 195 87 9109513 scale 0 1 100 1000;
#P newex 389 170 52 9109513 random-as;
#P newex 356 170 32 9109513 metro;
#P connect 23 0 21 0;
#P connect 21 0 22 0;
#P connect 22 0 24 0;
#P connect 24 0 19 0;
#P connect 25 0 24 1;
#P connect 6 0 21 2;
#P connect 17 0 0 0;
#P connect 0 0 5 0;
#P connect 5 0 4 0;
#P connect 4 0 11 0;
#P connect 11 0 14 0;
#P connect 16 0 6 0;
#P connect 14 0 6 0;
#P connect 15 0 6 0;
#P connect 20 0 14 1;
#P connect 2 0 0 1;
#P connect 0 0 25 0;
#P connect 0 0 1 0;
#P connect 1 0 2 0;
#P connect 5 0 9 0;
#P connect 9 0 7 0;
#P connect 7 0 12 0;
#P connect 12 0 15 0;
#P connect 20 0 15 1;
#P connect 18 0 3 0;
#P connect 3 0 1 1;
#P connect 5 0 10 0;
#P connect 10 0 8 0;
#P connect 8 0 13 0;
#P connect 13 0 16 0;
#P connect 20 0 16 1;
#P pop;
#P hidden newobj 258 227 51 9109513 p frqrnd01;
#N vpatcher 15 55 768 639;
#P origin 0 20;
#P window setfont "Sans Serif" 9.;
#P window linecount 0;
#P newex 381 428 120 9109513 expr random(20\\\,40) * 0.01;
#P newex 257 491 67 9109513 degrade~ 1 16;
#P inlet 257 105 15 0;
#P window linecount 1;
#P newex 257 441 62 9109513 clip~ -0.8 0.8;
#P newex 257 411 65 9109513 reson~ 5 0 80;
#P inlet 536 109 15 0;
#P outlet 257 536 15 0;
#P window linecount 0;
#P newex 431 116 45 9109513 loadbang;
#P inlet 356 106 15 0;
#P window linecount 1;
#P newex 446 330 27 9109513 + 0;
#P newex 401 330 27 9109513 + 0;
#P newex 356 330 27 9109513 + 0;
#P newex 446 303 27 9109513 + 12;
#P newex 401 303 27 9109513 - 0;
#P newex 356 303 27 9109513 - 12;
#P newex 446 254 27 9109513 - 14;
#P newex 401 254 27 9109513 - 7;
#P newex 446 278 44 9109513 CMscale;
#P newex 401 278 44 9109513 CMscale;
#P newex 356 362 28 9109513 mtof;
#P newex 356 227 52 9109513 random 21;
#P newex 356 278 44 9109513 CMscale;
#P message 431 145 26 9109513 3.46;
#P newex 389 195 87 9109513 scale 0 1 100 1000;
#P newex 389 170 52 9109513 random-as;
#P newex 356 170 32 9109513 metro;
#P connect 23 0 21 0;
#P connect 21 0 22 0;
#P connect 22 0 24 0;
#P connect 24 0 19 0;
#P connect 25 0 24 1;
#P connect 6 0 21 2;
#P connect 17 0 0 0;
#P connect 0 0 5 0;
#P connect 5 0 4 0;
#P connect 4 0 11 0;
#P connect 11 0 14 0;
#P connect 15 0 6 0;
#P connect 14 0 6 0;
#P connect 16 0 6 0;
#P connect 20 0 14 1;
#P connect 2 0 0 1;
#P connect 0 0 25 0;
#P connect 0 0 1 0;
#P connect 1 0 2 0;
#P connect 5 0 9 0;
#P connect 9 0 7 0;
#P connect 7 0 12 0;
#P connect 12 0 15 0;
#P connect 20 0 15 1;
#P connect 18 0 3 0;
#P connect 3 0 1 1;
#P connect 5 0 10 0;
#P connect 10 0 8 0;
#P connect 8 0 13 0;
#P connect 13 0 16 0;
#P connect 20 0 16 1;
#P pop;
#P hidden newobj 206 227 51 9109513 p frqrnd01;
#P hidden newex 206 391 28 9109513 dac~;
#P hidden newex 206 266 33 9109513 *~ 0.4;
#P hidden newex 206 183 52 9109513 normalize~;
#P hidden newex 206 137 28 9109513 adc~;
#P comment 64 65 100 9109513 efx_step v 0.01;
#B frgb 99 99 99;
#P user panel 44 62 114 20;
#X brgb 231 231 231;
#X frgb 149 149 149;
#X border 1;
#X rounded 0;
#X shadow 0;
#X done;
#P comment 80 104 100 9109513 reverb;
#B frgb 99 99 99;
#P user multiSlider 44 102 114 19 0. 1. 1 2680 47 0 0 2 0 0 0;
#M frgb 99 99 99;
#M brgb 231 231 231;
#M rgb2 127 127 127;
#M rgb3 149 149 149;
#M rgb4 37 52 91;
#M rgb5 74 105 182;
#M rgb6 112 158 18;
#M rgb7 149 211 110;
#M rgb8 187 9 201;
#M rgb9 224 62 37;
#M rgb10 7 114 128;
#P hidden fasten 17 0 0 0 279 204 27 204 27 92;
#P hidden connect 4 0 5 0;
#P hidden connect 5 0 8 0;
#P hidden fasten 10 0 6 0 315 256 211 256;
#P hidden fasten 9 0 6 0 263 256 211 256;
#P hidden connect 8 0 6 0;
#P hidden fasten 11 0 7 0 251 358 211 358;
#P hidden fasten 6 0 7 0 211 338 211 338;
#P hidden fasten 16 0 7 0 49 167 211 167;
#P hidden fasten 12 0 7 0 360 378 211 378;
#P hidden fasten 11 1 7 1 333 358 229 358;
#P hidden fasten 6 0 7 1 211 338 229 338;
#P hidden fasten 12 1 7 1 390 378 229 378;
#P hidden fasten 14 0 8 1 264 213 231 213;
#P hidden fasten 15 0 8 2 89 160 251 160;
#P hidden fasten 10 0 11 0 315 276 251 276;
#P hidden fasten 6 0 11 0 211 296 251 296;
#P hidden fasten 5 0 9 0 211 214 263 214;
#P hidden connect 13 0 14 0;
#P hidden connect 13 0 17 0;
#P hidden fasten 14 0 9 1 264 213 283 213;
#P hidden fasten 15 0 9 2 89 126 303 126;
#P hidden fasten 5 0 10 0 211 214 315 214;
#P hidden fasten 14 0 10 1 264 213 335 213;
#P hidden fasten 15 0 10 2 89 126 355 126;
#P hidden fasten 11 0 12 0 251 336 360 336;
#P hidden fasten 6 0 12 0 211 300 360 300;
#P hidden fasten 11 1 12 1 333 336 375 336;
#P hidden fasten 6 0 12 1 211 300 375 300;
#P hidden fasten 0 0 12 2 49 336 390 336;
#P pop;
