max v2;
#N vpatcher 225 210 441 381;
#P window setfont "Sans Serif" 9.;
#P user ubumenu 44 85 39 9109513 0 1 1 0;
#X setrgb 31 31 31 231 231 231 140 140 140 149 149 149 141 141 141 112 112 112;
#X add off;
#X add on;
#X prefix_set 0 0 <none> 0;
#P user ubumenu 84 85 74 9109513 0 1 1 0;
#X setrgb 31 31 31 231 231 231 140 140 140 149 149 149 141 141 141 112 112 112;
#X add C major;
#X add C# major;
#X add D major;
#X add D# major;
#X add E major;
#X add F major;
#X add F# major;
#X add G major;
#X add G# major;
#X add A major;
#X add Bb major;
#X add B major;
#X prefix_set 0 0 <none> 0;
#P comment 64 66 100 9109513 efx_stxp v 0.01;
#B frgb 99 99 99;
#P user panel 44 63 114 20;
#X brgb 231 231 231;
#X frgb 149 149 149;
#X border 1;
#X rounded 0;
#X shadow 0;
#X done;
#P hidden newex 248 329 33 9109513 *~ 0.1;
#P hidden newex 214 329 33 9109513 *~ 0.1;
#P hidden newex 213 353 45 9109513 rvb02;
#P hidden newex 539 284 33 9109513 *~ 0.7;
#P hidden newex 494 284 33 9109513 *~ 0.7;
#N vpatcher 163 33 859 721;
#P origin 0 39;
#P window setfont "Sans Serif" 9.;
#P window linecount 0;
#P newex 302 448 47 9109513 random 2;
#P newex 235 483 27 9109513 *~;
#P window linecount 1;
#P newex 235 418 85 9109513 reson~ 10 1700 50;
#P newex 235 448 66 9109513 overdrive~ 10;
#P newex 263 350 129 9109513 expr random(100\\\,500)*0.001;
#P window linecount 0;
#P newex 235 389 67 9109513 degrade~ 1 12;
#P window linecount 1;
#P newex 235 518 33 9109513 *~ 0.2;
#P outlet 235 547 15 0;
#P inlet 234 32 15 0;
#P newex 292 321 27 9109513 *~ 5;
#P newex 292 298 62 9109513 clip~ -0.2 0.2;
#P newex 234 85 47 9109513 random 3;
#P newex 234 110 53 9109513 sel 0 1 2;
#P newex 267 59 112 9109513 expr random(2000\\\,4000);
#P newex 234 59 32 9109513 metro;
#P newex 292 247 58 9109513 *~ 3.141592;
#P newex 235 350 27 9109513 *~;
#P newex 292 270 30 9109513 sinx~;
#P message 268 137 24 9109513 -0.5;
#P message 251 137 16 9109513 -2;
#P message 234 137 16 9109513 -1;
#P newex 234 165 25 9109513 sig~;
#P message 172 185 33 9109513 loop 1;
#P newex 172 155 45 9109513 loadbang;
#P newex 292 192 130 9109513 expr $i1 + random(500\\\,1000);
#P newex 263 165 97 9109513 expr random(0\\\,1000);
#P newex 234 221 68 9109513 groove~ rec01;
#P connect 3 0 4 0;
#P connect 18 0 12 0;
#P connect 12 0 15 0;
#P connect 15 0 14 0;
#P connect 14 0 6 0;
#P connect 8 0 5 0;
#P connect 7 0 5 0;
#P connect 6 0 5 0;
#P connect 5 0 0 0;
#P fasten 4 0 0 0 177 211 239 211;
#P connect 0 0 10 0;
#P connect 10 0 21 0;
#P connect 21 0 24 0;
#P connect 24 0 23 0;
#P connect 23 0 25 0;
#P connect 25 0 20 0;
#P connect 20 0 19 0;
#P connect 14 1 7 0;
#P fasten 17 0 10 1 297 344 257 344;
#P fasten 26 0 25 1 307 475 257 475;
#P connect 13 0 12 1;
#P connect 12 0 1 0;
#P connect 1 0 0 1;
#P connect 12 0 22 0;
#P connect 22 0 21 1;
#P connect 12 0 13 0;
#P connect 14 2 8 0;
#P connect 1 0 2 0;
#P connect 2 0 0 2;
#P connect 0 1 11 0;
#P connect 11 0 9 0;
#P connect 9 0 16 0;
#P connect 16 0 17 0;
#P connect 12 0 26 0;
#P pop;
#P hidden newobj 539 188 44 9109513 p stxp01;
#N vpatcher 163 33 859 721;
#P origin 0 39;
#P window setfont "Sans Serif" 9.;
#P window linecount 0;
#P newex 302 443 47 9109513 random 2;
#P newex 235 477 27 9109513 *~;
#P window linecount 1;
#P newex 235 413 85 9109513 reson~ 10 1700 50;
#P newex 235 443 66 9109513 overdrive~ 10;
#P newex 263 350 129 9109513 expr random(100\\\,500)*0.001;
#P window linecount 0;
#P newex 235 384 67 9109513 degrade~ 1 12;
#P window linecount 1;
#P newex 235 504 33 9109513 *~ 0.2;
#P outlet 235 533 15 0;
#P inlet 234 32 15 0;
#P newex 292 321 27 9109513 *~ 5;
#P newex 292 298 62 9109513 clip~ -0.2 0.2;
#P newex 234 85 47 9109513 random 3;
#P newex 234 110 53 9109513 sel 0 1 2;
#P newex 267 59 112 9109513 expr random(2000\\\,4000);
#P newex 234 59 32 9109513 metro;
#P newex 292 247 58 9109513 *~ 3.141592;
#P newex 235 350 27 9109513 *~;
#P newex 292 270 30 9109513 sinx~;
#P message 268 137 24 9109513 -0.5;
#P message 251 137 16 9109513 -2;
#P message 234 137 16 9109513 -1;
#P newex 234 165 25 9109513 sig~;
#P message 172 185 33 9109513 loop 1;
#P newex 172 155 45 9109513 loadbang;
#P newex 292 192 130 9109513 expr $i1 + random(500\\\,1000);
#P newex 263 165 97 9109513 expr random(0\\\,1000);
#P newex 234 221 68 9109513 groove~ rec01;
#P connect 3 0 4 0;
#P connect 18 0 12 0;
#P connect 12 0 15 0;
#P connect 15 0 14 0;
#P connect 14 0 6 0;
#P connect 6 0 5 0;
#P connect 7 0 5 0;
#P connect 8 0 5 0;
#P fasten 4 0 0 0 177 211 239 211;
#P connect 5 0 0 0;
#P connect 0 0 10 0;
#P connect 10 0 21 0;
#P connect 21 0 24 0;
#P connect 24 0 23 0;
#P connect 23 0 25 0;
#P connect 25 0 20 0;
#P connect 20 0 19 0;
#P connect 14 1 7 0;
#P fasten 17 0 10 1 297 344 257 344;
#P fasten 26 0 25 1 307 469 257 469;
#P connect 13 0 12 1;
#P connect 12 0 1 0;
#P connect 1 0 0 1;
#P connect 12 0 22 0;
#P connect 22 0 21 1;
#P connect 12 0 13 0;
#P connect 14 2 8 0;
#P connect 1 0 2 0;
#P connect 2 0 0 2;
#P connect 0 1 11 0;
#P connect 11 0 9 0;
#P connect 9 0 16 0;
#P connect 16 0 17 0;
#P connect 12 0 26 0;
#P pop;
#P hidden newobj 494 188 44 9109513 p stxp01;
#N vpatcher 163 33 859 721;
#P origin 0 39;
#P inlet 441 32 15 0;
#P window setfont "Sans Serif" 9.;
#P window linecount 0;
#P newex 235 594 27 9109513 *~ 1;
#P window linecount 1;
#P newex 430 515 33 9109513 *~ 0.8;
#P newex 470 451 117 9109513 expr random(9000\\\,15000);
#P newex 430 489 70 9109513 reson~ 10 0 50;
#P newex 431 403 97 9109513 expr random(10\\\,200);
#P newex 397 382 107 9109513 expr random(100\\\,7000);
#P newex 397 426 44 9109513 pack 0 0;
#P newex 397 451 27 9109513 line~;
#P newex 235 552 62 9109513 clip~ -0.9 0.9;
#P newex 235 489 57 9109513 lores~ 0 0.8;
#P newex 263 403 129 9109513 expr random(100\\\,500)*0.001;
#P window linecount 0;
#P newex 235 451 67 9109513 degrade~ 1 12;
#P window linecount 1;
#P newex 559 221 27 9109513 - 21;
#P newex 559 270 27 9109513 + 24;
#P newex 559 247 44 9109513 CMscale;
#P window linecount 0;
#P newex 424 321 28 9109513 mtof;
#P window linecount 1;
#P newex 235 629 33 9109513 *~ 0.3;
#P outlet 235 658 15 0;
#P newex 514 221 27 9109513 - 14;
#P window linecount 0;
#P newex 469 221 27 9109513 - 7;
#P newex 424 192 52 9109513 random 28;
#P window linecount 1;
#P newex 424 270 27 9109513 - 12;
#P newex 424 247 44 9109513 CMscale;
#P newex 514 270 27 9109513 + 12;
#P newex 514 247 44 9109513 CMscale;
#P window linecount 0;
#P newex 424 298 27 9109513 + 0;
#P newex 469 247 44 9109513 CMscale;
#P newex 235 382 70 9109513 reson~ 10 0 10;
#P inlet 234 32 15 0;
#P window linecount 1;
#P newex 292 321 27 9109513 *~ 5;
#P newex 292 298 62 9109513 clip~ -0.2 0.2;
#P newex 234 85 47 9109513 random 3;
#P newex 234 110 53 9109513 sel 0 1 2;
#P newex 267 59 112 9109513 expr random(2000\\\,4000);
#P newex 234 59 32 9109513 metro;
#P newex 292 247 58 9109513 *~ 3.141592;
#P newex 235 350 27 9109513 *~;
#P newex 292 270 30 9109513 sinx~;
#P message 268 137 24 9109513 -0.5;
#P message 251 137 16 9109513 -2;
#P message 234 137 16 9109513 -1;
#P newex 234 165 25 9109513 sig~;
#P message 172 185 33 9109513 loop 1;
#P newex 172 155 45 9109513 loadbang;
#P newex 292 192 130 9109513 expr $i1 + random(500\\\,1000);
#P newex 263 165 97 9109513 expr random(0\\\,1000);
#P newex 234 221 68 9109513 groove~ rec01;
#P connect 3 0 4 0;
#P connect 18 0 12 0;
#P connect 12 0 15 0;
#P connect 15 0 14 0;
#P connect 14 0 6 0;
#P connect 6 0 5 0;
#P connect 7 0 5 0;
#P connect 8 0 5 0;
#P fasten 4 0 0 0 177 211 239 211;
#P connect 5 0 0 0;
#P connect 0 0 10 0;
#P connect 10 0 19 0;
#P connect 19 0 35 0;
#P connect 35 0 37 0;
#P fasten 45 0 38 0 435 543 240 543;
#P connect 37 0 38 0;
#P connect 38 0 46 0;
#P connect 46 0 30 0;
#P connect 30 0 29 0;
#P connect 14 1 7 0;
#P fasten 17 0 10 1 297 344 257 344;
#P connect 13 0 12 1;
#P fasten 39 0 37 1 402 479 263 479;
#P connect 12 0 1 0;
#P connect 1 0 0 1;
#P connect 12 0 36 0;
#P connect 36 0 35 1;
#P connect 12 0 13 0;
#P connect 14 2 8 0;
#P fasten 31 0 19 2 429 361 280 361;
#P connect 1 0 2 0;
#P connect 2 0 0 2;
#P connect 0 1 11 0;
#P connect 11 0 9 0;
#P connect 9 0 16 0;
#P connect 16 0 17 0;
#P connect 12 0 41 0;
#P connect 41 0 40 0;
#P connect 40 0 39 0;
#P connect 12 0 26 0;
#P connect 26 0 24 0;
#P connect 24 0 25 0;
#P fasten 33 0 21 0 564 294 429 294;
#P fasten 20 0 21 0 474 294 429 294;
#P fasten 23 0 21 0 519 294 429 294;
#P connect 25 0 21 0;
#P connect 21 0 31 0;
#P fasten 35 0 43 0 240 479 435 479;
#P connect 43 0 45 0;
#P connect 12 0 42 0;
#P connect 42 0 40 1;
#P connect 47 0 21 1;
#P fasten 26 0 27 0 429 216 474 216;
#P connect 27 0 20 0;
#P connect 12 0 44 0;
#P connect 44 0 43 2;
#P fasten 26 0 28 0 429 216 519 216;
#P connect 28 0 22 0;
#P connect 22 0 23 0;
#P fasten 26 0 34 0 429 216 564 216;
#P connect 34 0 32 0;
#P connect 32 0 33 0;
#P pop;
#P hidden newobj 179 188 44 9109513 p stxp01;
#N vpatcher 163 33 859 721;
#P origin 0 39;
#P window setfont "Sans Serif" 9.;
#P window linecount 0;
#P newex 431 403 97 9109513 expr random(10\\\,500);
#P newex 397 382 107 9109513 expr random(100\\\,7000);
#P newex 397 426 44 9109513 pack 0 0;
#P newex 397 451 27 9109513 line~;
#P newex 235 522 62 9109513 clip~ -0.9 0.9;
#P newex 235 489 57 9109513 lores~ 0 0.8;
#P newex 263 403 129 9109513 expr random(200\\\,800)*0.001;
#P newex 235 451 67 9109513 degrade~ 1 12;
#P outlet 235 580 15 0;
#P inlet 234 32 15 0;
#P window linecount 1;
#P newex 292 321 27 9109513 *~ 5;
#P newex 292 298 62 9109513 clip~ -0.2 0.2;
#P newex 234 85 47 9109513 random 3;
#P newex 234 110 53 9109513 sel 0 1 2;
#P newex 267 59 112 9109513 expr random(2000\\\,4000);
#P newex 234 59 32 9109513 metro;
#P newex 292 247 58 9109513 *~ 3.141592;
#P newex 235 350 27 9109513 *~;
#P newex 292 270 30 9109513 sinx~;
#P message 268 137 24 9109513 -0.5;
#P message 251 137 16 9109513 -2;
#P message 234 137 16 9109513 -1;
#P newex 234 165 25 9109513 sig~;
#P message 172 185 33 9109513 loop 1;
#P newex 172 155 45 9109513 loadbang;
#P newex 292 192 130 9109513 expr $i1 + random(500\\\,1000);
#P newex 263 165 97 9109513 expr random(0\\\,1000);
#P newex 234 221 68 9109513 groove~ rec01;
#P newex 235 551 33 9109513 *~ 1.6;
#P connect 4 0 5 0;
#P connect 19 0 13 0;
#P connect 13 0 16 0;
#P connect 16 0 15 0;
#P connect 15 0 7 0;
#P connect 9 0 6 0;
#P connect 8 0 6 0;
#P connect 7 0 6 0;
#P connect 6 0 1 0;
#P fasten 5 0 1 0 177 211 239 211;
#P connect 1 0 11 0;
#P connect 11 0 21 0;
#P connect 21 0 23 0;
#P connect 23 0 24 0;
#P connect 24 0 0 0;
#P connect 0 0 20 0;
#P connect 15 1 8 0;
#P fasten 18 0 11 1 297 344 257 344;
#P connect 14 0 13 1;
#P fasten 25 0 23 1 402 479 263 479;
#P connect 13 0 2 0;
#P connect 2 0 1 1;
#P connect 13 0 22 0;
#P connect 22 0 21 1;
#P connect 13 0 14 0;
#P connect 15 2 9 0;
#P connect 2 0 3 0;
#P connect 3 0 1 2;
#P connect 1 1 12 0;
#P connect 12 0 10 0;
#P connect 10 0 17 0;
#P connect 17 0 18 0;
#P connect 13 0 27 0;
#P connect 27 0 26 0;
#P connect 26 0 25 0;
#P connect 13 0 28 0;
#P connect 28 0 26 1;
#P pop;
#P hidden newobj 449 188 44 9109513 p stxp01;
#N vpatcher 163 33 859 721;
#P origin 0 39;
#P window setfont "Sans Serif" 9.;
#P window linecount 0;
#P newex 299 552 47 9109513 random 2;
#P newex 235 594 27 9109513 *~;
#P window linecount 1;
#P newex 431 403 97 9109513 expr random(10\\\,500);
#P newex 397 382 107 9109513 expr random(100\\\,7000);
#P newex 397 426 44 9109513 pack 0 0;
#P newex 397 451 27 9109513 line~;
#P newex 235 552 62 9109513 clip~ -0.9 0.9;
#P newex 235 489 57 9109513 lores~ 0 0.8;
#P newex 263 403 129 9109513 expr random(200\\\,800)*0.001;
#P window linecount 0;
#P newex 235 451 67 9109513 degrade~ 1 12;
#P window linecount 1;
#P newex 235 629 33 9109513 *~ 1.4;
#P outlet 235 658 15 0;
#P inlet 234 32 15 0;
#P newex 292 321 27 9109513 *~ 5;
#P newex 292 298 62 9109513 clip~ -0.2 0.2;
#P newex 234 85 47 9109513 random 3;
#P newex 234 110 53 9109513 sel 0 1 2;
#P newex 267 59 112 9109513 expr random(2000\\\,4000);
#P newex 234 59 32 9109513 metro;
#P newex 292 247 58 9109513 *~ 3.141592;
#P newex 235 350 27 9109513 *~;
#P newex 292 270 30 9109513 sinx~;
#P message 268 137 24 9109513 -0.5;
#P message 251 137 16 9109513 -2;
#P message 234 137 16 9109513 -1;
#P newex 234 165 25 9109513 sig~;
#P message 172 185 33 9109513 loop 1;
#P newex 172 155 45 9109513 loadbang;
#P newex 292 192 130 9109513 expr $i1 + random(500\\\,1000);
#P newex 263 165 97 9109513 expr random(0\\\,1000);
#P newex 234 221 68 9109513 groove~ rec01;
#P connect 3 0 4 0;
#P connect 18 0 12 0;
#P connect 12 0 15 0;
#P connect 15 0 14 0;
#P connect 14 0 6 0;
#P connect 6 0 5 0;
#P connect 7 0 5 0;
#P connect 8 0 5 0;
#P fasten 4 0 0 0 177 211 239 211;
#P connect 5 0 0 0;
#P connect 0 0 10 0;
#P connect 10 0 21 0;
#P connect 21 0 23 0;
#P connect 23 0 24 0;
#P connect 24 0 29 0;
#P connect 29 0 20 0;
#P connect 20 0 19 0;
#P connect 14 1 7 0;
#P fasten 17 0 10 1 297 344 257 344;
#P fasten 30 0 29 1 304 582 257 582;
#P connect 13 0 12 1;
#P fasten 25 0 23 1 402 479 263 479;
#P connect 12 0 1 0;
#P connect 1 0 0 1;
#P connect 12 0 22 0;
#P connect 22 0 21 1;
#P connect 12 0 13 0;
#P connect 14 2 8 0;
#P connect 1 0 2 0;
#P connect 2 0 0 2;
#P connect 0 1 11 0;
#P connect 11 0 9 0;
#P connect 9 0 16 0;
#P connect 16 0 17 0;
#P connect 12 0 30 0;
#P connect 12 0 27 0;
#P connect 27 0 26 0;
#P connect 26 0 25 0;
#P connect 12 0 28 0;
#P connect 28 0 26 1;
#P pop;
#P hidden newobj 404 188 44 9109513 p stxp01;
#P hidden newex 359 284 33 9109513 *~ 0.5;
#P hidden newex 314 284 33 9109513 *~ 0.5;
#N vpatcher 163 33 859 721;
#P origin 0 39;
#P inlet 441 32 15 0;
#P window setfont "Sans Serif" 9.;
#P window linecount 0;
#P newex 299 552 47 9109513 random 2;
#P newex 235 594 27 9109513 *~;
#P window linecount 1;
#P newex 430 515 33 9109513 *~ 0.8;
#P newex 470 451 117 9109513 expr random(9000\\\,15000);
#P newex 430 489 70 9109513 reson~ 10 0 50;
#P newex 431 403 97 9109513 expr random(10\\\,500);
#P newex 397 382 107 9109513 expr random(100\\\,7000);
#P newex 397 426 44 9109513 pack 0 0;
#P newex 397 451 27 9109513 line~;
#P newex 235 552 62 9109513 clip~ -0.9 0.9;
#P newex 235 489 57 9109513 lores~ 0 0.8;
#P newex 263 403 129 9109513 expr random(100\\\,500)*0.001;
#P window linecount 0;
#P newex 235 451 67 9109513 degrade~ 1 12;
#P window linecount 1;
#P newex 559 221 27 9109513 - 21;
#P newex 559 270 27 9109513 + 24;
#P newex 559 247 44 9109513 CMscale;
#P window linecount 0;
#P newex 424 321 28 9109513 mtof;
#P window linecount 1;
#P newex 235 629 33 9109513 *~ 0.3;
#P outlet 235 658 15 0;
#P newex 514 221 27 9109513 - 14;
#P window linecount 0;
#P newex 469 221 27 9109513 - 7;
#P newex 424 192 52 9109513 random 28;
#P window linecount 1;
#P newex 424 270 27 9109513 - 12;
#P newex 424 247 44 9109513 CMscale;
#P newex 514 270 27 9109513 + 12;
#P newex 514 247 44 9109513 CMscale;
#P window linecount 0;
#P newex 424 298 27 9109513 + 0;
#P newex 469 247 44 9109513 CMscale;
#P newex 235 382 70 9109513 reson~ 10 0 10;
#P inlet 234 32 15 0;
#P window linecount 1;
#P newex 292 321 27 9109513 *~ 5;
#P newex 292 298 62 9109513 clip~ -0.2 0.2;
#P newex 234 85 47 9109513 random 3;
#P newex 234 110 53 9109513 sel 0 1 2;
#P newex 267 59 112 9109513 expr random(2000\\\,4000);
#P newex 234 59 32 9109513 metro;
#P newex 292 247 58 9109513 *~ 3.141592;
#P newex 235 350 27 9109513 *~;
#P newex 292 270 30 9109513 sinx~;
#P message 268 137 24 9109513 -0.5;
#P message 251 137 16 9109513 -2;
#P message 234 137 16 9109513 -1;
#P newex 234 165 25 9109513 sig~;
#P message 172 185 33 9109513 loop 1;
#P newex 172 155 45 9109513 loadbang;
#P newex 292 192 130 9109513 expr $i1 + random(500\\\,1000);
#P newex 263 165 97 9109513 expr random(0\\\,1000);
#P newex 234 221 68 9109513 groove~ rec01;
#P connect 3 0 4 0;
#P connect 18 0 12 0;
#P connect 12 0 15 0;
#P connect 15 0 14 0;
#P connect 14 0 6 0;
#P connect 8 0 5 0;
#P connect 7 0 5 0;
#P connect 6 0 5 0;
#P connect 5 0 0 0;
#P fasten 4 0 0 0 177 211 239 211;
#P connect 0 0 10 0;
#P connect 10 0 19 0;
#P connect 19 0 35 0;
#P connect 35 0 37 0;
#P connect 37 0 38 0;
#P fasten 45 0 38 0 435 543 240 543;
#P connect 38 0 46 0;
#P connect 46 0 30 0;
#P connect 30 0 29 0;
#P connect 14 1 7 0;
#P fasten 17 0 10 1 297 344 257 344;
#P fasten 47 0 46 1 304 582 257 582;
#P connect 13 0 12 1;
#P fasten 39 0 37 1 402 479 263 479;
#P connect 12 0 1 0;
#P connect 1 0 0 1;
#P connect 12 0 36 0;
#P connect 36 0 35 1;
#P connect 12 0 13 0;
#P connect 14 2 8 0;
#P fasten 31 0 19 2 429 361 280 361;
#P connect 1 0 2 0;
#P connect 2 0 0 2;
#P connect 0 1 11 0;
#P connect 11 0 9 0;
#P connect 9 0 16 0;
#P connect 16 0 17 0;
#P connect 12 0 47 0;
#P connect 12 0 41 0;
#P connect 41 0 40 0;
#P connect 40 0 39 0;
#P connect 12 0 26 0;
#P connect 26 0 24 0;
#P connect 24 0 25 0;
#P connect 25 0 21 0;
#P fasten 23 0 21 0 519 294 429 294;
#P fasten 20 0 21 0 474 294 429 294;
#P fasten 33 0 21 0 564 294 429 294;
#P connect 21 0 31 0;
#P fasten 35 0 43 0 240 479 435 479;
#P connect 43 0 45 0;
#P connect 12 0 42 0;
#P connect 42 0 40 1;
#P connect 48 0 21 1;
#P fasten 26 0 27 0 429 216 474 216;
#P connect 27 0 20 0;
#P connect 12 0 44 0;
#P connect 44 0 43 2;
#P fasten 26 0 28 0 429 216 519 216;
#P connect 28 0 22 0;
#P connect 22 0 23 0;
#P fasten 26 0 34 0 429 216 564 216;
#P connect 34 0 32 0;
#P connect 32 0 33 0;
#P pop;
#P hidden newobj 359 188 44 9109513 p stxp01;
#N vpatcher 163 33 859 721;
#P origin 0 39;
#P inlet 441 32 15 0;
#P window setfont "Sans Serif" 9.;
#P window linecount 0;
#P newex 299 552 47 9109513 random 2;
#P newex 235 594 27 9109513 *~;
#P window linecount 1;
#P newex 430 515 33 9109513 *~ 0.8;
#P newex 470 451 117 9109513 expr random(9000\\\,15000);
#P newex 430 489 70 9109513 reson~ 10 0 50;
#P newex 431 403 97 9109513 expr random(10\\\,500);
#P newex 397 382 107 9109513 expr random(100\\\,7000);
#P newex 397 426 44 9109513 pack 0 0;
#P newex 397 451 27 9109513 line~;
#P newex 235 552 62 9109513 clip~ -0.9 0.9;
#P newex 235 489 57 9109513 lores~ 0 0.8;
#P newex 263 403 129 9109513 expr random(100\\\,500)*0.001;
#P window linecount 0;
#P newex 235 451 67 9109513 degrade~ 1 12;
#P window linecount 1;
#P newex 559 221 27 9109513 - 21;
#P newex 559 270 27 9109513 + 24;
#P newex 559 247 44 9109513 CMscale;
#P window linecount 0;
#P newex 424 321 28 9109513 mtof;
#P window linecount 1;
#P newex 235 629 33 9109513 *~ 0.3;
#P outlet 235 658 15 0;
#P newex 514 221 27 9109513 - 14;
#P window linecount 0;
#P newex 469 221 27 9109513 - 7;
#P newex 424 192 52 9109513 random 28;
#P window linecount 1;
#P newex 424 270 27 9109513 - 12;
#P newex 424 247 44 9109513 CMscale;
#P newex 514 270 27 9109513 + 12;
#P newex 514 247 44 9109513 CMscale;
#P window linecount 0;
#P newex 424 298 27 9109513 + 0;
#P newex 469 247 44 9109513 CMscale;
#P newex 235 382 70 9109513 reson~ 10 0 10;
#P inlet 234 32 15 0;
#P window linecount 1;
#P newex 292 321 27 9109513 *~ 5;
#P newex 292 298 62 9109513 clip~ -0.2 0.2;
#P newex 234 85 47 9109513 random 3;
#P newex 234 110 53 9109513 sel 0 1 2;
#P newex 267 59 112 9109513 expr random(2000\\\,4000);
#P newex 234 59 32 9109513 metro;
#P newex 292 247 58 9109513 *~ 3.141592;
#P newex 235 350 27 9109513 *~;
#P newex 292 270 30 9109513 sinx~;
#P message 268 137 24 9109513 -0.5;
#P message 251 137 16 9109513 -2;
#P message 234 137 16 9109513 -1;
#P newex 234 165 25 9109513 sig~;
#P message 172 185 33 9109513 loop 1;
#P newex 172 155 45 9109513 loadbang;
#P newex 292 192 130 9109513 expr $i1 + random(500\\\,1000);
#P newex 263 165 97 9109513 expr random(0\\\,1000);
#P newex 234 221 68 9109513 groove~ rec01;
#P connect 3 0 4 0;
#P connect 18 0 12 0;
#P connect 12 0 15 0;
#P connect 15 0 14 0;
#P connect 14 0 6 0;
#P connect 6 0 5 0;
#P connect 7 0 5 0;
#P connect 8 0 5 0;
#P fasten 4 0 0 0 177 211 239 211;
#P connect 5 0 0 0;
#P connect 0 0 10 0;
#P connect 10 0 19 0;
#P connect 19 0 35 0;
#P connect 35 0 37 0;
#P fasten 45 0 38 0 435 543 240 543;
#P connect 37 0 38 0;
#P connect 38 0 46 0;
#P connect 46 0 30 0;
#P connect 30 0 29 0;
#P connect 14 1 7 0;
#P fasten 17 0 10 1 297 344 257 344;
#P fasten 47 0 46 1 304 582 257 582;
#P connect 13 0 12 1;
#P fasten 39 0 37 1 402 479 263 479;
#P connect 12 0 1 0;
#P connect 1 0 0 1;
#P connect 12 0 36 0;
#P connect 36 0 35 1;
#P connect 12 0 13 0;
#P connect 14 2 8 0;
#P fasten 31 0 19 2 429 361 280 361;
#P connect 1 0 2 0;
#P connect 2 0 0 2;
#P connect 0 1 11 0;
#P connect 11 0 9 0;
#P connect 9 0 16 0;
#P connect 16 0 17 0;
#P connect 12 0 47 0;
#P connect 12 0 41 0;
#P connect 41 0 40 0;
#P connect 40 0 39 0;
#P connect 12 0 26 0;
#P connect 26 0 24 0;
#P connect 24 0 25 0;
#P fasten 33 0 21 0 564 294 429 294;
#P fasten 20 0 21 0 474 294 429 294;
#P fasten 23 0 21 0 519 294 429 294;
#P connect 25 0 21 0;
#P connect 21 0 31 0;
#P fasten 35 0 43 0 240 479 435 479;
#P connect 43 0 45 0;
#P connect 12 0 42 0;
#P connect 42 0 40 1;
#P connect 48 0 21 1;
#P fasten 26 0 27 0 429 216 474 216;
#P connect 27 0 20 0;
#P connect 12 0 44 0;
#P connect 44 0 43 2;
#P fasten 26 0 28 0 429 216 519 216;
#P connect 28 0 22 0;
#P connect 22 0 23 0;
#P fasten 26 0 34 0 429 216 564 216;
#P connect 34 0 32 0;
#P connect 32 0 33 0;
#P pop;
#P hidden newobj 314 188 44 9109513 p stxp01;
#N vpatcher 163 33 859 721;
#P origin 0 39;
#P inlet 441 32 15 0;
#P window setfont "Sans Serif" 9.;
#P window linecount 0;
#P newex 299 552 47 9109513 random 2;
#P newex 235 594 27 9109513 *~;
#P window linecount 1;
#P newex 430 515 33 9109513 *~ 0.8;
#P newex 470 451 117 9109513 expr random(9000\\\,15000);
#P newex 430 489 70 9109513 reson~ 10 0 50;
#P newex 431 403 97 9109513 expr random(10\\\,500);
#P newex 397 382 107 9109513 expr random(100\\\,7000);
#P newex 397 426 44 9109513 pack 0 0;
#P newex 397 451 27 9109513 line~;
#P newex 235 552 62 9109513 clip~ -0.9 0.9;
#P newex 235 489 57 9109513 lores~ 0 0.8;
#P newex 263 403 129 9109513 expr random(100\\\,500)*0.001;
#P window linecount 0;
#P newex 235 451 67 9109513 degrade~ 1 12;
#P window linecount 1;
#P newex 559 221 27 9109513 - 21;
#P newex 559 270 27 9109513 + 24;
#P newex 559 247 44 9109513 CMscale;
#P window linecount 0;
#P newex 424 321 28 9109513 mtof;
#P window linecount 1;
#P newex 235 629 33 9109513 *~ 0.3;
#P outlet 235 658 15 0;
#P newex 514 221 27 9109513 - 14;
#P window linecount 0;
#P newex 469 221 27 9109513 - 7;
#P newex 424 192 52 9109513 random 28;
#P window linecount 1;
#P newex 424 270 27 9109513 - 12;
#P newex 424 247 44 9109513 CMscale;
#P newex 514 270 27 9109513 + 12;
#P newex 514 247 44 9109513 CMscale;
#P window linecount 0;
#P newex 424 298 27 9109513 + 0;
#P newex 469 247 44 9109513 CMscale;
#P newex 235 382 70 9109513 reson~ 10 0 10;
#P inlet 234 32 15 0;
#P window linecount 1;
#P newex 292 321 27 9109513 *~ 5;
#P newex 292 298 62 9109513 clip~ -0.2 0.2;
#P newex 234 85 47 9109513 random 3;
#P newex 234 110 53 9109513 sel 0 1 2;
#P newex 267 59 112 9109513 expr random(2000\\\,4000);
#P newex 234 59 32 9109513 metro;
#P newex 292 247 58 9109513 *~ 3.141592;
#P newex 235 350 27 9109513 *~;
#P newex 292 270 30 9109513 sinx~;
#P message 268 137 24 9109513 -0.5;
#P message 251 137 16 9109513 -2;
#P message 234 137 16 9109513 -1;
#P newex 234 165 25 9109513 sig~;
#P message 172 185 33 9109513 loop 1;
#P newex 172 155 45 9109513 loadbang;
#P newex 292 192 130 9109513 expr $i1 + random(500\\\,1000);
#P newex 263 165 97 9109513 expr random(0\\\,1000);
#P newex 234 221 68 9109513 groove~ rec01;
#P connect 3 0 4 0;
#P connect 18 0 12 0;
#P connect 12 0 15 0;
#P connect 15 0 14 0;
#P connect 14 0 6 0;
#P connect 6 0 5 0;
#P connect 7 0 5 0;
#P connect 8 0 5 0;
#P fasten 4 0 0 0 177 211 239 211;
#P connect 5 0 0 0;
#P connect 0 0 10 0;
#P connect 10 0 19 0;
#P connect 19 0 35 0;
#P connect 35 0 37 0;
#P fasten 45 0 38 0 435 543 240 543;
#P connect 37 0 38 0;
#P connect 38 0 46 0;
#P connect 46 0 30 0;
#P connect 30 0 29 0;
#P connect 14 1 7 0;
#P fasten 17 0 10 1 297 344 257 344;
#P fasten 47 0 46 1 304 582 257 582;
#P connect 13 0 12 1;
#P fasten 39 0 37 1 402 479 263 479;
#P connect 12 0 1 0;
#P connect 1 0 0 1;
#P connect 12 0 36 0;
#P connect 36 0 35 1;
#P connect 12 0 13 0;
#P connect 14 2 8 0;
#P fasten 31 0 19 2 429 361 280 361;
#P connect 1 0 2 0;
#P connect 2 0 0 2;
#P connect 0 1 11 0;
#P connect 11 0 9 0;
#P connect 9 0 16 0;
#P connect 16 0 17 0;
#P connect 12 0 47 0;
#P connect 12 0 41 0;
#P connect 41 0 40 0;
#P connect 40 0 39 0;
#P connect 12 0 26 0;
#P connect 26 0 24 0;
#P connect 24 0 25 0;
#P fasten 33 0 21 0 564 294 429 294;
#P fasten 20 0 21 0 474 294 429 294;
#P fasten 23 0 21 0 519 294 429 294;
#P connect 25 0 21 0;
#P connect 21 0 31 0;
#P fasten 35 0 43 0 240 479 435 479;
#P connect 43 0 45 0;
#P connect 12 0 42 0;
#P connect 42 0 40 1;
#P connect 48 0 21 1;
#P fasten 26 0 27 0 429 216 474 216;
#P connect 27 0 20 0;
#P connect 12 0 44 0;
#P connect 44 0 43 2;
#P fasten 26 0 28 0 429 216 519 216;
#P connect 28 0 22 0;
#P connect 22 0 23 0;
#P fasten 26 0 34 0 429 216 564 216;
#P connect 34 0 32 0;
#P connect 32 0 33 0;
#P pop;
#P hidden newobj 269 188 44 9109513 p stxp01;
#N vpatcher 163 33 859 721;
#P origin 0 39;
#P inlet 441 32 15 0;
#P window setfont "Sans Serif" 9.;
#P window linecount 0;
#P newex 299 552 47 9109513 random 2;
#P newex 235 594 27 9109513 *~;
#P window linecount 1;
#P newex 430 515 33 9109513 *~ 0.8;
#P newex 470 451 117 9109513 expr random(9000\\\,15000);
#P newex 430 489 70 9109513 reson~ 10 0 50;
#P newex 431 403 97 9109513 expr random(10\\\,500);
#P newex 397 382 107 9109513 expr random(100\\\,7000);
#P newex 397 426 44 9109513 pack 0 0;
#P newex 397 451 27 9109513 line~;
#P newex 235 552 62 9109513 clip~ -0.9 0.9;
#P newex 235 489 57 9109513 lores~ 0 0.8;
#P newex 263 403 129 9109513 expr random(100\\\,500)*0.001;
#P window linecount 0;
#P newex 235 451 67 9109513 degrade~ 1 12;
#P window linecount 1;
#P newex 559 221 27 9109513 - 21;
#P newex 559 270 27 9109513 + 24;
#P newex 559 247 44 9109513 CMscale;
#P window linecount 0;
#P newex 424 321 28 9109513 mtof;
#P window linecount 1;
#P newex 235 629 33 9109513 *~ 0.3;
#P outlet 235 658 15 0;
#P newex 514 221 27 9109513 - 14;
#P window linecount 0;
#P newex 469 221 27 9109513 - 7;
#P newex 424 192 52 9109513 random 28;
#P window linecount 1;
#P newex 424 270 27 9109513 - 12;
#P newex 424 247 44 9109513 CMscale;
#P newex 514 270 27 9109513 + 12;
#P newex 514 247 44 9109513 CMscale;
#P window linecount 0;
#P newex 424 298 27 9109513 + 0;
#P newex 469 247 44 9109513 CMscale;
#P newex 235 382 70 9109513 reson~ 10 0 10;
#P inlet 234 32 15 0;
#P window linecount 1;
#P newex 292 321 27 9109513 *~ 5;
#P newex 292 298 62 9109513 clip~ -0.2 0.2;
#P newex 234 85 47 9109513 random 3;
#P newex 234 110 53 9109513 sel 0 1 2;
#P newex 267 59 112 9109513 expr random(2000\\\,4000);
#P newex 234 59 32 9109513 metro;
#P newex 292 247 58 9109513 *~ 3.141592;
#P newex 235 350 27 9109513 *~;
#P newex 292 270 30 9109513 sinx~;
#P message 268 137 24 9109513 -0.5;
#P message 251 137 16 9109513 -2;
#P message 234 137 16 9109513 -1;
#P newex 234 165 25 9109513 sig~;
#P message 172 185 33 9109513 loop 1;
#P newex 172 155 45 9109513 loadbang;
#P newex 292 192 130 9109513 expr $i1 + random(500\\\,1000);
#P newex 263 165 97 9109513 expr random(0\\\,1000);
#P newex 234 221 68 9109513 groove~ rec01;
#P connect 3 0 4 0;
#P connect 18 0 12 0;
#P connect 12 0 15 0;
#P connect 15 0 14 0;
#P connect 14 0 6 0;
#P connect 8 0 5 0;
#P connect 7 0 5 0;
#P connect 6 0 5 0;
#P connect 5 0 0 0;
#P fasten 4 0 0 0 177 211 239 211;
#P connect 0 0 10 0;
#P connect 10 0 19 0;
#P connect 19 0 35 0;
#P connect 35 0 37 0;
#P connect 37 0 38 0;
#P fasten 45 0 38 0 435 543 240 543;
#P connect 38 0 46 0;
#P connect 46 0 30 0;
#P connect 30 0 29 0;
#P connect 14 1 7 0;
#P fasten 17 0 10 1 297 344 257 344;
#P fasten 47 0 46 1 304 582 257 582;
#P connect 13 0 12 1;
#P fasten 39 0 37 1 402 479 263 479;
#P connect 12 0 1 0;
#P connect 1 0 0 1;
#P connect 12 0 36 0;
#P connect 36 0 35 1;
#P connect 12 0 13 0;
#P connect 14 2 8 0;
#P fasten 31 0 19 2 429 361 280 361;
#P connect 1 0 2 0;
#P connect 2 0 0 2;
#P connect 0 1 11 0;
#P connect 11 0 9 0;
#P connect 9 0 16 0;
#P connect 16 0 17 0;
#P connect 12 0 47 0;
#P connect 12 0 41 0;
#P connect 41 0 40 0;
#P connect 40 0 39 0;
#P connect 12 0 26 0;
#P connect 26 0 24 0;
#P connect 24 0 25 0;
#P connect 25 0 21 0;
#P fasten 23 0 21 0 519 294 429 294;
#P fasten 20 0 21 0 474 294 429 294;
#P fasten 33 0 21 0 564 294 429 294;
#P connect 21 0 31 0;
#P fasten 35 0 43 0 240 479 435 479;
#P connect 43 0 45 0;
#P connect 12 0 42 0;
#P connect 42 0 40 1;
#P connect 48 0 21 1;
#P fasten 26 0 27 0 429 216 474 216;
#P connect 27 0 20 0;
#P connect 12 0 44 0;
#P connect 44 0 43 2;
#P fasten 26 0 28 0 429 216 519 216;
#P connect 28 0 22 0;
#P connect 22 0 23 0;
#P fasten 26 0 34 0 429 216 564 216;
#P connect 34 0 32 0;
#P connect 32 0 33 0;
#P pop;
#P hidden newobj 224 188 44 9109513 p stxp01;
#P hidden newex 179 381 28 9109513 dac~;
#P hidden toggle 109 159 15 0;
#P hidden message 109 215 14 9109513 1;
#P hidden newex 109 188 55 9109513 metro 2000;
#P hidden newex 80 247 65 9109513 record~ rec01;
#P hidden newex 208 381 88 9109513 buffer~ rec01 2000;
#P hidden newex 80 188 28 9109513 adc~;
#P hidden connect 0 0 2 0;
#P hidden fasten 4 0 2 0 114 239 85 239;
#P hidden fasten 26 0 5 0 49 130 114 130;
#P hidden connect 5 0 3 0;
#P hidden connect 3 0 4 0;
#P hidden fasten 5 0 15 0 114 181 184 181;
#P hidden fasten 19 0 6 0 544 316 184 316;
#P hidden fasten 16 0 6 0 499 278 184 278;
#P hidden fasten 15 0 6 0 184 278 184 278;
#P hidden fasten 14 0 6 0 454 278 184 278;
#P hidden fasten 13 0 6 0 409 278 184 278;
#P hidden fasten 12 0 6 0 364 316 184 316;
#P hidden fasten 9 0 6 0 319 278 184 278;
#P hidden fasten 8 0 6 0 274 278 184 278;
#P hidden fasten 7 0 6 0 229 278 184 278;
#P hidden fasten 5 0 6 0 114 185 184 185;
#P hidden fasten 20 0 6 0 218 376 184 376;
#P hidden fasten 18 0 6 1 499 316 202 316;
#P hidden fasten 17 0 6 1 544 278 202 278;
#P hidden fasten 15 0 6 1 184 278 202 278;
#P hidden fasten 14 0 6 1 454 278 202 278;
#P hidden fasten 13 0 6 1 409 278 202 278;
#P hidden fasten 11 0 6 1 319 316 202 316;
#P hidden fasten 10 0 6 1 364 278 202 278;
#P hidden fasten 8 0 6 1 274 278 202 278;
#P hidden fasten 7 0 6 1 229 278 202 278;
#P hidden fasten 20 1 6 1 253 376 202 376;
#P hidden fasten 25 0 15 1 89 144 218 144;
#P hidden connect 21 0 20 0;
#P hidden fasten 19 0 21 0 544 316 219 316;
#P hidden fasten 16 0 21 0 499 268 219 268;
#P hidden fasten 15 0 21 0 184 268 219 268;
#P hidden fasten 14 0 21 0 454 268 219 268;
#P hidden fasten 13 0 21 0 409 268 219 268;
#P hidden fasten 12 0 21 0 364 316 219 316;
#P hidden fasten 9 0 21 0 319 268 219 268;
#P hidden fasten 8 0 21 0 274 268 219 268;
#P hidden fasten 7 0 21 0 229 268 219 268;
#P hidden fasten 5 0 7 0 114 181 229 181;
#P hidden fasten 18 0 22 0 499 316 253 316;
#P hidden fasten 17 0 22 0 544 268 253 268;
#P hidden fasten 15 0 22 0 184 268 253 268;
#P hidden fasten 14 0 22 0 454 268 253 268;
#P hidden fasten 13 0 22 0 409 268 253 268;
#P hidden fasten 11 0 22 0 319 316 253 316;
#P hidden fasten 10 0 22 0 364 268 253 268;
#P hidden fasten 8 0 22 0 274 268 253 268;
#P hidden fasten 7 0 22 0 229 268 253 268;
#P hidden connect 22 0 20 1;
#P hidden fasten 25 0 7 1 89 144 263 144;
#P hidden fasten 5 0 8 0 114 181 274 181;
#P hidden fasten 25 0 8 1 89 144 308 144;
#P hidden fasten 5 0 9 0 114 181 319 181;
#P hidden fasten 9 0 11 0 319 246 319 246;
#P hidden fasten 25 0 9 1 89 144 353 144;
#P hidden fasten 5 0 10 0 114 181 364 181;
#P hidden fasten 10 0 12 0 364 246 364 246;
#P hidden fasten 25 0 10 1 89 144 398 144;
#P hidden fasten 5 0 13 0 114 181 409 181;
#P hidden fasten 5 0 14 0 114 181 454 181;
#P hidden fasten 5 0 16 0 114 181 499 181;
#P hidden fasten 16 0 18 0 499 246 499 246;
#P hidden fasten 5 0 17 0 114 181 544 181;
#P hidden fasten 17 0 19 0 544 246 544 246;
#P pop;
