{
    "patcher": {
        "fileversion": 1,
        "appversion": {
            "major": 9,
            "minor": 1,
            "revision": 0,
            "architecture": "x64",
            "modernui": 1
        },
        "classnamespace": "box",
        "rect": [ 376.0, 88.0, 268.0, 509.0 ],
        "toolbarvisible": 0,
        "enablehscroll": 0,
        "enablevscroll": 0,
        "globalpatchername": "snesHardmode@1",
        "boxes": [
            {
                "box": {
                    "fontface": 0,
                    "format": [ 3.1 ],
                    "id": "obj-38",
                    "label": [ "preamp" ],
                    "max": 20.0,
                    "maxclass": "ll_number",
                    "min": 0.0,
                    "mousefocus": 1,
                    "numinlets": 1,
                    "numoutlets": 1,
                    "outlettype": [ "" ],
                    "parameter_enable": 0,
                    "patching_rect": [ 2.0, 414.0, 250.0, 12.0 ],
                    "slidermax": 10.0,
                    "varname": "snesBigPreamp"
                }
            },
            {
                "box": {
                    "fontface": 0,
                    "id": "obj-46",
                    "label": [ "FIR_7" ],
                    "max": 127.0,
                    "maxclass": "ll_number",
                    "min": 0.0,
                    "mousefocus": 1,
                    "numinlets": 1,
                    "numoutlets": 1,
                    "outlettype": [ "" ],
                    "parameter_enable": 0,
                    "patching_rect": [ 2.0, 379.0, 250.0, 18.0 ],
                    "slidermax": 127.0,
                    "varname": "fir7"
                }
            },
            {
                "box": {
                    "fontface": 0,
                    "id": "obj-45",
                    "label": [ "FIR_6" ],
                    "max": 127.0,
                    "maxclass": "ll_number",
                    "min": 0.0,
                    "mousefocus": 1,
                    "numinlets": 1,
                    "numoutlets": 1,
                    "outlettype": [ "" ],
                    "parameter_enable": 0,
                    "patching_rect": [ 2.0, 359.0, 250.0, 18.0 ],
                    "slidermax": 127.0,
                    "varname": "fir6"
                }
            },
            {
                "box": {
                    "fontface": 0,
                    "id": "obj-44",
                    "label": [ "FIR_5" ],
                    "max": 127.0,
                    "maxclass": "ll_number",
                    "min": 0.0,
                    "mousefocus": 1,
                    "numinlets": 1,
                    "numoutlets": 1,
                    "outlettype": [ "" ],
                    "parameter_enable": 0,
                    "patching_rect": [ 2.0, 339.0, 250.0, 18.0 ],
                    "slidermax": 127.0,
                    "varname": "fir5"
                }
            },
            {
                "box": {
                    "fontface": 0,
                    "id": "obj-42",
                    "label": [ "FIR_4" ],
                    "max": 127.0,
                    "maxclass": "ll_number",
                    "min": 0.0,
                    "mousefocus": 1,
                    "numinlets": 1,
                    "numoutlets": 1,
                    "outlettype": [ "" ],
                    "parameter_enable": 0,
                    "patching_rect": [ 2.0, 319.0, 250.0, 18.0 ],
                    "slidermax": 127.0,
                    "varname": "fir4"
                }
            },
            {
                "box": {
                    "fontface": 0,
                    "id": "obj-41",
                    "label": [ "FIR_3" ],
                    "max": 127.0,
                    "maxclass": "ll_number",
                    "min": 0.0,
                    "mousefocus": 1,
                    "numinlets": 1,
                    "numoutlets": 1,
                    "outlettype": [ "" ],
                    "parameter_enable": 0,
                    "patching_rect": [ 2.0, 299.0, 250.0, 18.0 ],
                    "slidermax": 127.0,
                    "varname": "fir3"
                }
            },
            {
                "box": {
                    "fontface": 0,
                    "id": "obj-40",
                    "label": [ "FIR_2" ],
                    "max": 127.0,
                    "maxclass": "ll_number",
                    "min": 0.0,
                    "mousefocus": 1,
                    "numinlets": 1,
                    "numoutlets": 1,
                    "outlettype": [ "" ],
                    "parameter_enable": 0,
                    "patching_rect": [ 2.0, 279.0, 250.0, 18.0 ],
                    "slidermax": 127.0,
                    "varname": "fir2"
                }
            },
            {
                "box": {
                    "fontface": 0,
                    "id": "obj-39",
                    "label": [ "FIR_1" ],
                    "max": 127.0,
                    "maxclass": "ll_number",
                    "min": 0.0,
                    "mousefocus": 1,
                    "multidrag": 0,
                    "numinlets": 1,
                    "numoutlets": 1,
                    "outlettype": [ "" ],
                    "parameter_enable": 0,
                    "patching_rect": [ 2.0, 259.0, 250.0, 18.0 ],
                    "slidermax": 127.0,
                    "varname": "fir1"
                }
            },
            {
                "box": {
                    "fontsize": 7.0,
                    "id": "obj-36",
                    "maxclass": "comment",
                    "numinlets": 1,
                    "numoutlets": 0,
                    "patching_rect": [ 156.0, 88.0, 92.0, 14.0 ],
                    "text": "wet volume surround"
                }
            },
            {
                "box": {
                    "id": "obj-37",
                    "maxclass": "toggle",
                    "numinlets": 1,
                    "numoutlets": 1,
                    "outlettype": [ "int" ],
                    "parameter_enable": 0,
                    "patching_rect": [ 130.0, 83.0, 24.0, 24.0 ],
                    "varname": "snesWetVolSurr"
                }
            },
            {
                "box": {
                    "fontsize": 7.0,
                    "id": "obj-34",
                    "maxclass": "comment",
                    "numinlets": 1,
                    "numoutlets": 0,
                    "patching_rect": [ 156.0, 62.0, 92.0, 14.0 ],
                    "text": "dry volume surround"
                }
            },
            {
                "box": {
                    "id": "obj-35",
                    "maxclass": "toggle",
                    "numinlets": 1,
                    "numoutlets": 1,
                    "outlettype": [ "int" ],
                    "parameter_enable": 0,
                    "patching_rect": [ 130.0, 57.0, 24.0, 24.0 ],
                    "varname": "snesDryVolSurr"
                }
            },
            {
                "box": {
                    "fontsize": 7.0,
                    "id": "obj-32",
                    "maxclass": "comment",
                    "numinlets": 1,
                    "numoutlets": 0,
                    "patching_rect": [ 156.0, 109.0, 92.0, 14.0 ],
                    "text": "wet volume negative"
                }
            },
            {
                "box": {
                    "id": "obj-31",
                    "maxclass": "toggle",
                    "numinlets": 1,
                    "numoutlets": 1,
                    "outlettype": [ "int" ],
                    "parameter_enable": 0,
                    "patching_rect": [ 130.0, 109.0, 24.0, 24.0 ],
                    "varname": "snesWetVolNeg"
                }
            },
            {
                "box": {
                    "fontsize": 7.0,
                    "id": "obj-30",
                    "maxclass": "comment",
                    "numinlets": 1,
                    "numoutlets": 0,
                    "patching_rect": [ 28.0, 109.0, 92.0, 14.0 ],
                    "text": "dry volume negative"
                }
            },
            {
                "box": {
                    "id": "obj-29",
                    "maxclass": "toggle",
                    "numinlets": 1,
                    "numoutlets": 1,
                    "outlettype": [ "int" ],
                    "parameter_enable": 0,
                    "patching_rect": [ 2.0, 109.0, 24.0, 24.0 ],
                    "varname": "snesDryNeg"
                }
            },
            {
                "box": {
                    "fontsize": 7.0,
                    "id": "obj-28",
                    "maxclass": "comment",
                    "numinlets": 1,
                    "numoutlets": 0,
                    "patching_rect": [ 156.0, 36.0, 92.0, 14.0 ],
                    "text": "snes surround"
                }
            },
            {
                "box": {
                    "id": "obj-27",
                    "maxclass": "toggle",
                    "numinlets": 1,
                    "numoutlets": 1,
                    "outlettype": [ "int" ],
                    "parameter_enable": 0,
                    "patching_rect": [ 130.0, 31.0, 24.0, 24.0 ],
                    "varname": "snesSurround"
                }
            },
            {
                "box": {
                    "fontsize": 7.0,
                    "id": "obj-26",
                    "maxclass": "comment",
                    "numinlets": 1,
                    "numoutlets": 0,
                    "patching_rect": [ 28.0, 88.0, 92.0, 14.0 ],
                    "text": "echo feedback negative"
                }
            },
            {
                "box": {
                    "id": "obj-22",
                    "maxclass": "toggle",
                    "numinlets": 1,
                    "numoutlets": 1,
                    "outlettype": [ "int" ],
                    "parameter_enable": 0,
                    "patching_rect": [ 2.0, 83.0, 24.0, 24.0 ],
                    "varname": "snesEchoFBNeg"
                }
            },
            {
                "box": {
                    "fontface": 0,
                    "format": [ 3.1 ],
                    "id": "obj-19",
                    "label": [ "wet_volume" ],
                    "max": 127.0,
                    "maxclass": "ll_number",
                    "min": 0.0,
                    "mousefocus": 1,
                    "numinlets": 1,
                    "numoutlets": 1,
                    "outlettype": [ "" ],
                    "parameter_enable": 0,
                    "patching_rect": [ 2.0, 212.0, 250.0, 18.0 ],
                    "slidermax": 127.0,
                    "varname": "snesWet"
                }
            },
            {
                "box": {
                    "fontsize": 7.0,
                    "id": "obj-14",
                    "maxclass": "comment",
                    "numinlets": 1,
                    "numoutlets": 0,
                    "patching_rect": [ 28.0, 57.0, 92.0, 14.0 ],
                    "text": "bypass echo"
                }
            },
            {
                "box": {
                    "id": "obj-7",
                    "maxclass": "toggle",
                    "numinlets": 1,
                    "numoutlets": 1,
                    "outlettype": [ "int" ],
                    "parameter_enable": 0,
                    "patching_rect": [ 2.0, 57.0, 24.0, 24.0 ],
                    "varname": "bypassEcho"
                }
            },
            {
                "box": {
                    "fontsize": 7.0,
                    "id": "obj-23",
                    "maxclass": "comment",
                    "numinlets": 1,
                    "numoutlets": 0,
                    "patching_rect": [ 28.0, 36.0, 92.0, 14.0 ],
                    "text": "normalize volume"
                }
            },
            {
                "box": {
                    "id": "obj-20",
                    "maxclass": "toggle",
                    "numinlets": 1,
                    "numoutlets": 1,
                    "outlettype": [ "int" ],
                    "parameter_enable": 0,
                    "patching_rect": [ 2.0, 31.0, 24.0, 24.0 ],
                    "varname": "snesNorm"
                }
            },
            {
                "box": {
                    "fontface": 0,
                    "format": [ 1 ],
                    "id": "obj-12",
                    "label": [ "echo_blocks" ],
                    "max": 16.0,
                    "maxclass": "ll_number",
                    "min": 0.0,
                    "mousefocus": 1,
                    "numinlets": 1,
                    "numoutlets": 1,
                    "outlettype": [ "" ],
                    "parameter_enable": 0,
                    "patching_rect": [ 2.0, 137.0, 250.0, 18.0 ],
                    "slidermax": 16.0,
                    "varname": "snesEchoBlock"
                }
            },
            {
                "box": {
                    "fontface": 0,
                    "format": [ 3.1 ],
                    "id": "obj-10",
                    "label": [ "dry_volume" ],
                    "max": 127.0,
                    "maxclass": "ll_number",
                    "min": 0.0,
                    "mousefocus": 1,
                    "numinlets": 1,
                    "numoutlets": 1,
                    "outlettype": [ "" ],
                    "parameter_enable": 0,
                    "patching_rect": [ 2.0, 187.0, 250.0, 18.0 ],
                    "slidermax": 127.0,
                    "varname": "snesDry"
                }
            },
            {
                "box": {
                    "fontface": 0,
                    "id": "obj-9",
                    "label": [ "feedback" ],
                    "max": 127.0,
                    "maxclass": "ll_number",
                    "min": 0.0,
                    "mousefocus": 1,
                    "numinlets": 1,
                    "numoutlets": 1,
                    "outlettype": [ "" ],
                    "parameter_enable": 0,
                    "patching_rect": [ 2.0, 162.0, 250.0, 18.0 ],
                    "slidermax": 127.0,
                    "varname": "snesFeedback"
                }
            },
            {
                "box": {
                    "annotation": "ramp time between presets. click on ppooll in the ho_st to find info about it",
                    "fontface": 0,
                    "fontsize": 14.0,
                    "format": [ 10000, 1000, ":", 100, 10, 1 ],
                    "id": "obj-25",
                    "maxclass": "ll_number",
                    "mousefocus": 1,
                    "numinlets": 1,
                    "numoutlets": 1,
                    "outlettype": [ "" ],
                    "parameter_enable": 0,
                    "patching_rect": [ 0.0, 17.0, 120.0, 13.0 ],
                    "varname": "preset-ramp"
                }
            },
            {
                "box": {
                    "annotation": "presets grid. click on ppooll in the ho_st to find info about it",
                    "filename": "ll.pattr_ui.js",
                    "id": "obj-24",
                    "jsarguments": [ 13, "255 255 255", "50 50 50", "255 0 0", "0 255 0", "delayloops1" ],
                    "maxclass": "jsui",
                    "numinlets": 1,
                    "numoutlets": 1,
                    "outlettype": [ "" ],
                    "parameter_enable": 0,
                    "patching_rect": [ 117.0, 0.0, 123.0, 30.0 ],
                    "varname": "presets"
                }
            },
            {
                "box": {
                    "hidden": 1,
                    "id": "obj-21",
                    "maxclass": "newobj",
                    "numinlets": 1,
                    "numoutlets": 3,
                    "outlettype": [ "", "", "" ],
                    "patching_rect": [ 556.0, 39.0, 88.0, 22.0 ],
                    "restore": [ "in(2)" ],
                    "saved_object_attributes": {
                        "parameter_enable": 0,
                        "parameter_mappable": 0
                    },
                    "text": "pattr inputs~",
                    "varname": "inputs~[1]"
                }
            },
            {
                "box": {
                    "args": [ "", "@in_mix", 1 ],
                    "bgmode": 0,
                    "border": 1,
                    "clickthrough": 0,
                    "enablehscroll": 0,
                    "enablevscroll": 0,
                    "id": "obj-43",
                    "lockeddragscroll": 0,
                    "lockedsize": 0,
                    "maxclass": "bpatcher",
                    "name": "ll.blues.maxpat",
                    "numinlets": 1,
                    "numoutlets": 0,
                    "offset": [ 0.0, 0.0 ],
                    "patching_rect": [ 2.0, 442.0, 256.0, 53.0 ],
                    "varname": "ll.blues",
                    "viewvisibility": 1
                }
            },
            {
                "box": {
                    "color": [ 0.0, 0.0, 0.0, 1.0 ],
                    "fontname": "Arial",
                    "fontsize": 12.0,
                    "hidden": 1,
                    "id": "obj-17",
                    "maxclass": "newobj",
                    "numinlets": 0,
                    "numoutlets": 0,
                    "patcher": {
                        "fileversion": 1,
                        "appversion": {
                            "major": 9,
                            "minor": 1,
                            "revision": 0,
                            "architecture": "x64",
                            "modernui": 1
                        },
                        "classnamespace": "box",
                        "rect": [ 227.0, 87.0, 1179.0, 725.0 ],
                        "boxes": [
                            {
                                "box": {
                                    "id": "obj-21",
                                    "maxclass": "newobj",
                                    "numinlets": 1,
                                    "numoutlets": 2,
                                    "outlettype": [ "", "bang" ],
                                    "patching_rect": [ 265.0, 60.0, 66.0, 22.0 ],
                                    "text": "ll.r in_mix~"
                                }
                            },
                            {
                                "box": {
                                    "id": "obj-30",
                                    "maxclass": "newobj",
                                    "numinlets": 1,
                                    "numoutlets": 2,
                                    "outlettype": [ "", "bang" ],
                                    "patching_rect": [ 625.0, 536.0, 109.0, 22.0 ],
                                    "text": "ll.r snesBigPreamp"
                                }
                            },
                            {
                                "box": {
                                    "id": "obj-13",
                                    "maxclass": "newobj",
                                    "numinlets": 2,
                                    "numoutlets": 2,
                                    "outlettype": [ "multichannelsignal", "multichannelsignal" ],
                                    "patching_rect": [ 261.0, 246.0, 63.0, 22.0 ],
                                    "text": "mc.limi~ 2"
                                }
                            },
                            {
                                "box": {
                                    "id": "obj-77",
                                    "maxclass": "newobj",
                                    "numinlets": 1,
                                    "numoutlets": 2,
                                    "outlettype": [ "", "bang" ],
                                    "patching_rect": [ 50.0, 763.3106774687767, 41.0, 22.0 ],
                                    "text": "ll.r fir6"
                                }
                            },
                            {
                                "box": {
                                    "id": "obj-76",
                                    "maxclass": "newobj",
                                    "numinlets": 1,
                                    "numoutlets": 2,
                                    "outlettype": [ "", "bang" ],
                                    "patching_rect": [ 50.0, 661.4563099741936, 41.0, 22.0 ],
                                    "text": "ll.r fir5"
                                }
                            },
                            {
                                "box": {
                                    "id": "obj-75",
                                    "maxclass": "newobj",
                                    "numinlets": 1,
                                    "numoutlets": 2,
                                    "outlettype": [ "", "bang" ],
                                    "patching_rect": [ 50.0, 553.3106774687767, 41.0, 22.0 ],
                                    "text": "ll.r fir4"
                                }
                            },
                            {
                                "box": {
                                    "id": "obj-74",
                                    "maxclass": "newobj",
                                    "numinlets": 1,
                                    "numoutlets": 2,
                                    "outlettype": [ "", "bang" ],
                                    "patching_rect": [ 50.0, 443.3106774687767, 41.0, 22.0 ],
                                    "text": "ll.r fir3"
                                }
                            },
                            {
                                "box": {
                                    "id": "obj-73",
                                    "maxclass": "newobj",
                                    "numinlets": 1,
                                    "numoutlets": 2,
                                    "outlettype": [ "", "bang" ],
                                    "patching_rect": [ 48.0, 338.0, 41.0, 22.0 ],
                                    "text": "ll.r fir2"
                                }
                            },
                            {
                                "box": {
                                    "id": "obj-72",
                                    "maxclass": "newobj",
                                    "numinlets": 1,
                                    "numoutlets": 2,
                                    "outlettype": [ "", "bang" ],
                                    "patching_rect": [ 50.0, 863.3106774687767, 41.0, 22.0 ],
                                    "text": "ll.r fir7"
                                }
                            },
                            {
                                "box": {
                                    "id": "obj-71",
                                    "maxclass": "newobj",
                                    "numinlets": 1,
                                    "numoutlets": 2,
                                    "outlettype": [ "", "bang" ],
                                    "patching_rect": [ 122.5, 228.0, 41.0, 22.0 ],
                                    "text": "ll.r fir1"
                                }
                            },
                            {
                                "box": {
                                    "id": "obj-70",
                                    "maxclass": "newobj",
                                    "numinlets": 1,
                                    "numoutlets": 2,
                                    "outlettype": [ "", "bang" ],
                                    "patching_rect": [ 48.0, 228.0, 41.0, 22.0 ],
                                    "text": "ll.r fir0"
                                }
                            },
                            {
                                "box": {
                                    "id": "obj-69",
                                    "maxclass": "newobj",
                                    "numinlets": 1,
                                    "numoutlets": 2,
                                    "outlettype": [ "", "bang" ],
                                    "patching_rect": [ 837.0873608589172, 390.4563099741936, 110.0, 22.0 ],
                                    "text": "ll.r snesWetVolNeg"
                                }
                            },
                            {
                                "box": {
                                    "id": "obj-68",
                                    "maxclass": "newobj",
                                    "numinlets": 1,
                                    "numoutlets": 2,
                                    "outlettype": [ "", "bang" ],
                                    "patching_rect": [ 626.2038753628731, 390.4563099741936, 110.0, 22.0 ],
                                    "text": "ll.r snesWetVolSurr"
                                }
                            },
                            {
                                "box": {
                                    "id": "obj-67",
                                    "maxclass": "newobj",
                                    "numinlets": 1,
                                    "numoutlets": 2,
                                    "outlettype": [ "", "bang" ],
                                    "patching_rect": [ 835.0, 298.0, 108.0, 22.0 ],
                                    "text": "ll.r snesDryVolSurr"
                                }
                            },
                            {
                                "box": {
                                    "id": "obj-66",
                                    "maxclass": "newobj",
                                    "numinlets": 1,
                                    "numoutlets": 2,
                                    "outlettype": [ "", "bang" ],
                                    "patching_rect": [ 626.2038753628731, 298.0, 91.0, 22.0 ],
                                    "text": "ll.r snesDryNeg"
                                }
                            },
                            {
                                "box": {
                                    "id": "obj-65",
                                    "maxclass": "newobj",
                                    "numinlets": 1,
                                    "numoutlets": 2,
                                    "outlettype": [ "", "bang" ],
                                    "patching_rect": [ 812.0, 187.0, 115.0, 22.0 ],
                                    "text": "ll.r snesEchoFBNeg"
                                }
                            },
                            {
                                "box": {
                                    "id": "obj-64",
                                    "maxclass": "newobj",
                                    "numinlets": 1,
                                    "numoutlets": 2,
                                    "outlettype": [ "", "bang" ],
                                    "patching_rect": [ 626.2038753628731, 187.0, 99.0, 22.0 ],
                                    "text": "ll.r snesSurround"
                                }
                            },
                            {
                                "box": {
                                    "id": "obj-63",
                                    "maxclass": "newobj",
                                    "numinlets": 1,
                                    "numoutlets": 2,
                                    "outlettype": [ "", "bang" ],
                                    "patching_rect": [ 729.499991774559, 75.0, 71.0, 22.0 ],
                                    "text": "ll.r snesWet"
                                }
                            },
                            {
                                "box": {
                                    "id": "obj-45",
                                    "maxclass": "newobj",
                                    "numinlets": 1,
                                    "numoutlets": 2,
                                    "outlettype": [ "", "bang" ],
                                    "patching_rect": [ 501.2038753628731, 79.0, 90.0, 22.0 ],
                                    "text": "ll.r bypassEcho"
                                }
                            },
                            {
                                "box": {
                                    "format": 6,
                                    "id": "obj-61",
                                    "maxclass": "flonum",
                                    "numinlets": 1,
                                    "numoutlets": 2,
                                    "outlettype": [ "", "bang" ],
                                    "parameter_enable": 0,
                                    "patching_rect": [ 50.0, 896.3786299824715, 50.0, 22.0 ]
                                }
                            },
                            {
                                "box": {
                                    "id": "obj-62",
                                    "maxclass": "message",
                                    "numinlets": 2,
                                    "numoutlets": 1,
                                    "outlettype": [ "" ],
                                    "patching_rect": [ 50.0, 932.3106774687767, 40.0, 22.0 ],
                                    "text": "\"7\" $1"
                                }
                            },
                            {
                                "box": {
                                    "format": 6,
                                    "id": "obj-59",
                                    "maxclass": "flonum",
                                    "numinlets": 1,
                                    "numoutlets": 2,
                                    "outlettype": [ "", "bang" ],
                                    "parameter_enable": 0,
                                    "patching_rect": [ 50.0, 797.3106774687767, 50.0, 22.0 ]
                                }
                            },
                            {
                                "box": {
                                    "id": "obj-60",
                                    "maxclass": "message",
                                    "numinlets": 2,
                                    "numoutlets": 1,
                                    "outlettype": [ "" ],
                                    "patching_rect": [ 50.0, 830.3106774687767, 40.0, 22.0 ],
                                    "text": "\"6\" $1"
                                }
                            },
                            {
                                "box": {
                                    "format": 6,
                                    "id": "obj-57",
                                    "maxclass": "flonum",
                                    "numinlets": 1,
                                    "numoutlets": 2,
                                    "outlettype": [ "", "bang" ],
                                    "parameter_enable": 0,
                                    "patching_rect": [ 50.0, 693.3106774687767, 50.0, 22.0 ]
                                }
                            },
                            {
                                "box": {
                                    "id": "obj-58",
                                    "maxclass": "message",
                                    "numinlets": 2,
                                    "numoutlets": 1,
                                    "outlettype": [ "" ],
                                    "patching_rect": [ 50.0, 728.3106774687767, 40.0, 22.0 ],
                                    "text": "\"5\" $1"
                                }
                            },
                            {
                                "box": {
                                    "format": 6,
                                    "id": "obj-55",
                                    "maxclass": "flonum",
                                    "numinlets": 1,
                                    "numoutlets": 2,
                                    "outlettype": [ "", "bang" ],
                                    "parameter_enable": 0,
                                    "patching_rect": [ 50.0, 589.3106774687767, 50.0, 22.0 ]
                                }
                            },
                            {
                                "box": {
                                    "id": "obj-56",
                                    "maxclass": "message",
                                    "numinlets": 2,
                                    "numoutlets": 1,
                                    "outlettype": [ "" ],
                                    "patching_rect": [ 50.0, 623.3106774687767, 40.0, 22.0 ],
                                    "text": "\"4\" $1"
                                }
                            },
                            {
                                "box": {
                                    "format": 6,
                                    "id": "obj-53",
                                    "maxclass": "flonum",
                                    "numinlets": 1,
                                    "numoutlets": 2,
                                    "outlettype": [ "", "bang" ],
                                    "parameter_enable": 0,
                                    "patching_rect": [ 50.0, 477.4563099741936, 50.0, 22.0 ]
                                }
                            },
                            {
                                "box": {
                                    "id": "obj-54",
                                    "maxclass": "message",
                                    "numinlets": 2,
                                    "numoutlets": 1,
                                    "outlettype": [ "" ],
                                    "patching_rect": [ 50.0, 510.3106774687767, 40.0, 22.0 ],
                                    "text": "\"3\" $1"
                                }
                            },
                            {
                                "box": {
                                    "format": 6,
                                    "id": "obj-51",
                                    "maxclass": "flonum",
                                    "numinlets": 1,
                                    "numoutlets": 2,
                                    "outlettype": [ "", "bang" ],
                                    "parameter_enable": 0,
                                    "patching_rect": [ 48.0, 369.4563099741936, 50.0, 22.0 ]
                                }
                            },
                            {
                                "box": {
                                    "id": "obj-52",
                                    "maxclass": "message",
                                    "numinlets": 2,
                                    "numoutlets": 1,
                                    "outlettype": [ "" ],
                                    "patching_rect": [ 48.0, 404.0, 40.0, 22.0 ],
                                    "text": "\"2\" $1"
                                }
                            },
                            {
                                "box": {
                                    "format": 6,
                                    "id": "obj-50",
                                    "maxclass": "flonum",
                                    "numinlets": 1,
                                    "numoutlets": 2,
                                    "outlettype": [ "", "bang" ],
                                    "parameter_enable": 0,
                                    "patching_rect": [ 729.499991774559, 108.0, 50.0, 22.0 ]
                                }
                            },
                            {
                                "box": {
                                    "id": "obj-49",
                                    "maxclass": "message",
                                    "numinlets": 2,
                                    "numoutlets": 1,
                                    "outlettype": [ "" ],
                                    "patching_rect": [ 729.499991774559, 138.14563113451004, 93.0, 22.0 ],
                                    "text": "Wet_Volume $1"
                                }
                            },
                            {
                                "box": {
                                    "id": "obj-48",
                                    "maxclass": "toggle",
                                    "numinlets": 1,
                                    "numoutlets": 1,
                                    "outlettype": [ "int" ],
                                    "parameter_enable": 0,
                                    "patching_rect": [ 837.0873608589172, 417.4854266047478, 24.0, 24.0 ]
                                }
                            },
                            {
                                "box": {
                                    "id": "obj-47",
                                    "maxclass": "message",
                                    "numinlets": 2,
                                    "numoutlets": 1,
                                    "outlettype": [ "" ],
                                    "patching_rect": [ 837.0873608589172, 447.4563099741936, 147.0, 22.0 ],
                                    "text": "Wet_Volume_Negative $1"
                                }
                            },
                            {
                                "box": {
                                    "id": "obj-46",
                                    "maxclass": "toggle",
                                    "numinlets": 1,
                                    "numoutlets": 1,
                                    "outlettype": [ "int" ],
                                    "parameter_enable": 0,
                                    "patching_rect": [ 501.2038753628731, 108.0, 24.0, 24.0 ]
                                }
                            },
                            {
                                "box": {
                                    "id": "obj-44",
                                    "maxclass": "message",
                                    "numinlets": 2,
                                    "numoutlets": 1,
                                    "outlettype": [ "" ],
                                    "patching_rect": [ 501.2038753628731, 138.93203788995743, 99.0, 22.0 ],
                                    "text": "Bypass_Echo $1"
                                }
                            },
                            {
                                "box": {
                                    "id": "obj-42",
                                    "maxclass": "toggle",
                                    "numinlets": 1,
                                    "numoutlets": 1,
                                    "outlettype": [ "int" ],
                                    "parameter_enable": 0,
                                    "patching_rect": [ 626.2038753628731, 417.4854266047478, 24.0, 24.0 ]
                                }
                            },
                            {
                                "box": {
                                    "id": "obj-40",
                                    "maxclass": "message",
                                    "numinlets": 2,
                                    "numoutlets": 1,
                                    "outlettype": [ "" ],
                                    "patching_rect": [ 626.2038753628731, 447.4563099741936, 149.0, 22.0 ],
                                    "text": "Wet_Volume_Surround $1"
                                }
                            },
                            {
                                "box": {
                                    "format": 6,
                                    "id": "obj-39",
                                    "maxclass": "flonum",
                                    "numinlets": 1,
                                    "numoutlets": 2,
                                    "outlettype": [ "", "bang" ],
                                    "parameter_enable": 0,
                                    "patching_rect": [ 122.5, 263.0, 50.0, 22.0 ]
                                }
                            },
                            {
                                "box": {
                                    "id": "obj-38",
                                    "maxclass": "message",
                                    "numinlets": 2,
                                    "numoutlets": 1,
                                    "outlettype": [ "" ],
                                    "patching_rect": [ 122.5, 293.0, 40.0, 22.0 ],
                                    "text": "\"1\" $1"
                                }
                            },
                            {
                                "box": {
                                    "format": 6,
                                    "id": "obj-37",
                                    "maxclass": "flonum",
                                    "numinlets": 1,
                                    "numoutlets": 2,
                                    "outlettype": [ "", "bang" ],
                                    "parameter_enable": 0,
                                    "patching_rect": [ 48.0, 263.0, 50.0, 22.0 ]
                                }
                            },
                            {
                                "box": {
                                    "id": "obj-35",
                                    "maxclass": "message",
                                    "numinlets": 2,
                                    "numoutlets": 1,
                                    "outlettype": [ "" ],
                                    "patching_rect": [ 48.0, 293.0, 40.0, 22.0 ],
                                    "text": "\"0\" $1"
                                }
                            },
                            {
                                "box": {
                                    "id": "obj-31",
                                    "maxclass": "toggle",
                                    "numinlets": 1,
                                    "numoutlets": 1,
                                    "outlettype": [ "int" ],
                                    "parameter_enable": 0,
                                    "patching_rect": [ 835.0, 330.0, 24.0, 24.0 ]
                                }
                            },
                            {
                                "box": {
                                    "id": "obj-27",
                                    "maxclass": "message",
                                    "numinlets": 2,
                                    "numoutlets": 1,
                                    "outlettype": [ "" ],
                                    "patching_rect": [ 835.0, 361.0, 147.0, 22.0 ],
                                    "text": "Dry_Volume_Surround $1"
                                }
                            },
                            {
                                "box": {
                                    "id": "obj-25",
                                    "maxclass": "toggle",
                                    "numinlets": 1,
                                    "numoutlets": 1,
                                    "outlettype": [ "int" ],
                                    "parameter_enable": 0,
                                    "patching_rect": [ 626.2038753628731, 330.0, 24.0, 24.0 ]
                                }
                            },
                            {
                                "box": {
                                    "id": "obj-22",
                                    "maxclass": "message",
                                    "numinlets": 2,
                                    "numoutlets": 1,
                                    "outlettype": [ "" ],
                                    "patching_rect": [ 626.2038753628731, 361.0, 145.0, 22.0 ],
                                    "text": "Dry_Volume_Negative $1"
                                }
                            },
                            {
                                "box": {
                                    "id": "obj-3",
                                    "maxclass": "toggle",
                                    "numinlets": 1,
                                    "numoutlets": 1,
                                    "outlettype": [ "int" ],
                                    "parameter_enable": 0,
                                    "patching_rect": [ 812.0, 220.0, 24.0, 24.0 ]
                                }
                            },
                            {
                                "box": {
                                    "id": "obj-7",
                                    "maxclass": "message",
                                    "numinlets": 2,
                                    "numoutlets": 1,
                                    "outlettype": [ "" ],
                                    "patching_rect": [ 812.0, 254.0, 166.0, 22.0 ],
                                    "text": "Echo_Feedback_Negative $1"
                                }
                            },
                            {
                                "box": {
                                    "id": "obj-12",
                                    "maxclass": "toggle",
                                    "numinlets": 1,
                                    "numoutlets": 1,
                                    "outlettype": [ "int" ],
                                    "parameter_enable": 0,
                                    "patching_rect": [ 626.2038753628731, 220.0, 24.0, 24.0 ]
                                }
                            },
                            {
                                "box": {
                                    "id": "obj-8",
                                    "maxclass": "message",
                                    "numinlets": 2,
                                    "numoutlets": 1,
                                    "outlettype": [ "" ],
                                    "patching_rect": [ 626.2038753628731, 254.0, 157.0, 22.0 ],
                                    "text": "Surround_not_on_SNES $1"
                                }
                            },
                            {
                                "box": {
                                    "id": "obj-32",
                                    "maxclass": "message",
                                    "numinlets": 2,
                                    "numoutlets": 1,
                                    "outlettype": [ "" ],
                                    "patching_rect": [ 48.0, 173.0, 129.0, 22.0 ],
                                    "text": "Echo_blocks_16ms $1"
                                }
                            },
                            {
                                "box": {
                                    "id": "obj-10",
                                    "maxclass": "toggle",
                                    "numinlets": 1,
                                    "numoutlets": 1,
                                    "outlettype": [ "int" ],
                                    "parameter_enable": 0,
                                    "patching_rect": [ 842.5, 106.0, 24.0, 24.0 ]
                                }
                            },
                            {
                                "box": {
                                    "id": "obj-28",
                                    "maxclass": "message",
                                    "numinlets": 2,
                                    "numoutlets": 1,
                                    "outlettype": [ "" ],
                                    "patching_rect": [ 842.5, 138.14563113451004, 132.0, 22.0 ],
                                    "text": "Normalize_Volumes $1"
                                }
                            },
                            {
                                "box": {
                                    "id": "obj-11",
                                    "linecount": 2,
                                    "maxclass": "comment",
                                    "numinlets": 1,
                                    "numoutlets": 0,
                                    "patching_rect": [ 101.0, 9.5, 150.0, 33.0 ],
                                    "text": "https://github.com/nyanpasu64-backup/snes-echo"
                                }
                            },
                            {
                                "box": {
                                    "format": 6,
                                    "id": "obj-24",
                                    "maxclass": "flonum",
                                    "numinlets": 1,
                                    "numoutlets": 2,
                                    "outlettype": [ "", "bang" ],
                                    "parameter_enable": 0,
                                    "patching_rect": [ 626.2038753628731, 108.0, 50.0, 22.0 ]
                                }
                            },
                            {
                                "box": {
                                    "id": "obj-20",
                                    "maxclass": "message",
                                    "numinlets": 2,
                                    "numoutlets": 1,
                                    "outlettype": [ "" ],
                                    "patching_rect": [ 622.0, 138.93203788995743, 91.0, 22.0 ],
                                    "text": "Dry_Volume $1"
                                }
                            },
                            {
                                "box": {
                                    "format": 6,
                                    "id": "obj-18",
                                    "maxclass": "flonum",
                                    "maximum": 127.0,
                                    "minimum": 0.0,
                                    "numinlets": 1,
                                    "numoutlets": 2,
                                    "outlettype": [ "", "bang" ],
                                    "parameter_enable": 0,
                                    "patching_rect": [ 369.0, 108.0, 50.0, 22.0 ]
                                }
                            },
                            {
                                "box": {
                                    "id": "obj-16",
                                    "maxclass": "message",
                                    "numinlets": 2,
                                    "numoutlets": 1,
                                    "outlettype": [ "" ],
                                    "patching_rect": [ 369.0, 137.0, 112.0, 22.0 ],
                                    "text": "Echo_Feedback $1"
                                }
                            },
                            {
                                "box": {
                                    "id": "obj-43",
                                    "maxclass": "newobj",
                                    "numinlets": 2,
                                    "numoutlets": 2,
                                    "outlettype": [ "", "" ],
                                    "patching_rect": [ 257.0, 178.0, 90.0, 22.0 ],
                                    "text": "faustgen~ snes",
                                    "varname": "faustgen-5861166288"
                                }
                            },
                            {
                                "box": {
                                    "id": "obj-19",
                                    "maxclass": "newobj",
                                    "numinlets": 1,
                                    "numoutlets": 2,
                                    "outlettype": [ "", "bang" ],
                                    "patching_rect": [ 48.0, 125.0, 107.0, 22.0 ],
                                    "text": "ll.r snesEchoBlock"
                                }
                            },
                            {
                                "box": {
                                    "id": "obj-17",
                                    "maxclass": "newobj",
                                    "numinlets": 1,
                                    "numoutlets": 2,
                                    "outlettype": [ "", "bang" ],
                                    "patching_rect": [ 842.5, 75.0, 79.0, 22.0 ],
                                    "text": "ll.r snesNorm"
                                }
                            },
                            {
                                "box": {
                                    "id": "obj-15",
                                    "maxclass": "newobj",
                                    "numinlets": 1,
                                    "numoutlets": 2,
                                    "outlettype": [ "", "bang" ],
                                    "patching_rect": [ 626.2038753628731, 79.0, 69.0, 22.0 ],
                                    "text": "ll.r snesDry"
                                }
                            },
                            {
                                "box": {
                                    "id": "obj-14",
                                    "maxclass": "newobj",
                                    "numinlets": 1,
                                    "numoutlets": 2,
                                    "outlettype": [ "", "bang" ],
                                    "patching_rect": [ 369.0, 79.0, 103.0, 22.0 ],
                                    "text": "ll.r snesFeedback"
                                }
                            },
                            {
                                "box": {
                                    "id": "obj-2",
                                    "maxclass": "newobj",
                                    "numinlets": 3,
                                    "numoutlets": 2,
                                    "outlettype": [ "", "bang" ],
                                    "patching_rect": [ 261.0, 311.0, 68.0, 22.0 ],
                                    "text": "ll.pf ll.blues"
                                }
                            },
                            {
                                "box": {
                                    "id": "obj-6",
                                    "maxclass": "newobj",
                                    "numinlets": 2,
                                    "numoutlets": 1,
                                    "outlettype": [ "multichannelsignal" ],
                                    "patching_rect": [ 261.0, 274.0, 80.0, 22.0 ],
                                    "text": "mc.combine~"
                                }
                            },
                            {
                                "box": {
                                    "id": "obj-4",
                                    "maxclass": "newobj",
                                    "numinlets": 1,
                                    "numoutlets": 2,
                                    "outlettype": [ "signal", "signal" ],
                                    "patching_rect": [ 265.0, 108.0, 74.0, 22.0 ],
                                    "text": "mc.unpack~"
                                }
                            },
                            {
                                "box": {
                                    "fontname": "Arial",
                                    "fontsize": 12.0,
                                    "id": "obj-1",
                                    "maxclass": "newobj",
                                    "numinlets": 1,
                                    "numoutlets": 2,
                                    "outlettype": [ "", "" ],
                                    "patching_rect": [ 7.0, 9.5, 78.0, 22.0 ],
                                    "save": [ "#N", "thispatcher", ";", "#Q", "end", ";" ],
                                    "text": "thispatcher",
                                    "varname": "subTP"
                                }
                            },
                            {
                                "box": {
                                    "attr": "preamp",
                                    "id": "obj-33",
                                    "maxclass": "attrui",
                                    "numinlets": 1,
                                    "numoutlets": 1,
                                    "outlettype": [ "" ],
                                    "parameter_enable": 0,
                                    "patching_rect": [ 625.0, 570.0, 150.0, 22.0 ]
                                }
                            }
                        ],
                        "lines": [
                            {
                                "patchline": {
                                    "destination": [ "obj-28", 0 ],
                                    "source": [ "obj-10", 0 ]
                                }
                            },
                            {
                                "patchline": {
                                    "destination": [ "obj-8", 0 ],
                                    "source": [ "obj-12", 0 ]
                                }
                            },
                            {
                                "patchline": {
                                    "destination": [ "obj-6", 1 ],
                                    "source": [ "obj-13", 1 ]
                                }
                            },
                            {
                                "patchline": {
                                    "destination": [ "obj-6", 0 ],
                                    "source": [ "obj-13", 0 ]
                                }
                            },
                            {
                                "patchline": {
                                    "destination": [ "obj-18", 0 ],
                                    "source": [ "obj-14", 0 ]
                                }
                            },
                            {
                                "patchline": {
                                    "destination": [ "obj-24", 0 ],
                                    "source": [ "obj-15", 0 ]
                                }
                            },
                            {
                                "patchline": {
                                    "destination": [ "obj-43", 0 ],
                                    "midpoints": [ 378.5, 162.0, 266.5, 162.0 ],
                                    "source": [ "obj-16", 0 ]
                                }
                            },
                            {
                                "patchline": {
                                    "destination": [ "obj-10", 0 ],
                                    "source": [ "obj-17", 0 ]
                                }
                            },
                            {
                                "patchline": {
                                    "destination": [ "obj-16", 0 ],
                                    "source": [ "obj-18", 0 ]
                                }
                            },
                            {
                                "patchline": {
                                    "destination": [ "obj-32", 0 ],
                                    "source": [ "obj-19", 0 ]
                                }
                            },
                            {
                                "patchline": {
                                    "destination": [ "obj-43", 0 ],
                                    "midpoints": [ 631.5, 174.0, 266.5, 174.0 ],
                                    "source": [ "obj-20", 0 ]
                                }
                            },
                            {
                                "patchline": {
                                    "destination": [ "obj-4", 0 ],
                                    "source": [ "obj-21", 0 ]
                                }
                            },
                            {
                                "patchline": {
                                    "destination": [ "obj-43", 0 ],
                                    "midpoints": [ 635.7038753628731, 384.0, 357.0, 384.0, 357.0, 165.0, 266.5, 165.0 ],
                                    "source": [ "obj-22", 0 ]
                                }
                            },
                            {
                                "patchline": {
                                    "destination": [ "obj-20", 0 ],
                                    "source": [ "obj-24", 0 ]
                                }
                            },
                            {
                                "patchline": {
                                    "destination": [ "obj-22", 0 ],
                                    "source": [ "obj-25", 0 ]
                                }
                            },
                            {
                                "patchline": {
                                    "destination": [ "obj-43", 0 ],
                                    "midpoints": [ 844.5, 384.0, 795.0, 384.0, 795.0, 174.0, 266.5, 174.0 ],
                                    "source": [ "obj-27", 0 ]
                                }
                            },
                            {
                                "patchline": {
                                    "destination": [ "obj-43", 0 ],
                                    "midpoints": [ 852.0, 174.0, 266.5, 174.0 ],
                                    "source": [ "obj-28", 0 ]
                                }
                            },
                            {
                                "patchline": {
                                    "destination": [ "obj-7", 0 ],
                                    "source": [ "obj-3", 0 ]
                                }
                            },
                            {
                                "patchline": {
                                    "destination": [ "obj-33", 0 ],
                                    "source": [ "obj-30", 0 ]
                                }
                            },
                            {
                                "patchline": {
                                    "destination": [ "obj-27", 0 ],
                                    "source": [ "obj-31", 0 ]
                                }
                            },
                            {
                                "patchline": {
                                    "destination": [ "obj-43", 0 ],
                                    "midpoints": [ 57.5, 207.0, 243.0, 207.0, 243.0, 174.0, 266.5, 174.0 ],
                                    "source": [ "obj-32", 0 ]
                                }
                            },
                            {
                                "patchline": {
                                    "destination": [ "obj-13", 0 ],
                                    "source": [ "obj-33", 0 ]
                                }
                            },
                            {
                                "patchline": {
                                    "destination": [ "obj-43", 0 ],
                                    "midpoints": [ 57.5, 318.0, 108.0, 318.0, 108.0, 207.0, 243.0, 207.0, 243.0, 174.0, 266.5, 174.0 ],
                                    "source": [ "obj-35", 0 ]
                                }
                            },
                            {
                                "patchline": {
                                    "destination": [ "obj-35", 0 ],
                                    "source": [ "obj-37", 0 ]
                                }
                            },
                            {
                                "patchline": {
                                    "destination": [ "obj-43", 0 ],
                                    "midpoints": [ 132.0, 327.0, 243.0, 327.0, 243.0, 174.0, 266.5, 174.0 ],
                                    "source": [ "obj-38", 0 ]
                                }
                            },
                            {
                                "patchline": {
                                    "destination": [ "obj-38", 0 ],
                                    "source": [ "obj-39", 0 ]
                                }
                            },
                            {
                                "patchline": {
                                    "destination": [ "obj-43", 1 ],
                                    "midpoints": [ 329.5, 165.0, 337.5, 165.0 ],
                                    "source": [ "obj-4", 1 ]
                                }
                            },
                            {
                                "patchline": {
                                    "destination": [ "obj-43", 0 ],
                                    "midpoints": [ 274.5, 165.0, 266.5, 165.0 ],
                                    "source": [ "obj-4", 0 ]
                                }
                            },
                            {
                                "patchline": {
                                    "destination": [ "obj-43", 0 ],
                                    "midpoints": [ 635.7038753628731, 471.0, 357.0, 471.0, 357.0, 165.0, 266.5, 165.0 ],
                                    "source": [ "obj-40", 0 ]
                                }
                            },
                            {
                                "patchline": {
                                    "destination": [ "obj-40", 0 ],
                                    "source": [ "obj-42", 0 ]
                                }
                            },
                            {
                                "patchline": {
                                    "destination": [ "obj-13", 1 ],
                                    "source": [ "obj-43", 1 ]
                                }
                            },
                            {
                                "patchline": {
                                    "destination": [ "obj-13", 0 ],
                                    "source": [ "obj-43", 0 ]
                                }
                            },
                            {
                                "patchline": {
                                    "destination": [ "obj-43", 0 ],
                                    "midpoints": [ 510.7038753628731, 174.0, 266.5, 174.0 ],
                                    "source": [ "obj-44", 0 ]
                                }
                            },
                            {
                                "patchline": {
                                    "destination": [ "obj-46", 0 ],
                                    "source": [ "obj-45", 0 ]
                                }
                            },
                            {
                                "patchline": {
                                    "destination": [ "obj-44", 0 ],
                                    "source": [ "obj-46", 0 ]
                                }
                            },
                            {
                                "patchline": {
                                    "destination": [ "obj-43", 0 ],
                                    "midpoints": [ 846.5873608589172, 480.0, 243.0, 480.0, 243.0, 174.0, 266.5, 174.0 ],
                                    "source": [ "obj-47", 0 ]
                                }
                            },
                            {
                                "patchline": {
                                    "destination": [ "obj-47", 0 ],
                                    "source": [ "obj-48", 0 ]
                                }
                            },
                            {
                                "patchline": {
                                    "destination": [ "obj-43", 0 ],
                                    "midpoints": [ 738.999991774559, 174.0, 266.5, 174.0 ],
                                    "source": [ "obj-49", 0 ]
                                }
                            },
                            {
                                "patchline": {
                                    "destination": [ "obj-49", 0 ],
                                    "source": [ "obj-50", 0 ]
                                }
                            },
                            {
                                "patchline": {
                                    "destination": [ "obj-52", 0 ],
                                    "source": [ "obj-51", 0 ]
                                }
                            },
                            {
                                "patchline": {
                                    "destination": [ "obj-43", 0 ],
                                    "midpoints": [ 57.5, 429.0, 243.0, 429.0, 243.0, 174.0, 266.5, 174.0 ],
                                    "source": [ "obj-52", 0 ]
                                }
                            },
                            {
                                "patchline": {
                                    "destination": [ "obj-54", 0 ],
                                    "source": [ "obj-53", 0 ]
                                }
                            },
                            {
                                "patchline": {
                                    "destination": [ "obj-43", 0 ],
                                    "midpoints": [ 59.5, 534.0, 243.0, 534.0, 243.0, 174.0, 266.5, 174.0 ],
                                    "source": [ "obj-54", 0 ]
                                }
                            },
                            {
                                "patchline": {
                                    "destination": [ "obj-56", 0 ],
                                    "source": [ "obj-55", 0 ]
                                }
                            },
                            {
                                "patchline": {
                                    "destination": [ "obj-43", 0 ],
                                    "midpoints": [ 59.5, 648.0, 243.0, 648.0, 243.0, 174.0, 266.5, 174.0 ],
                                    "source": [ "obj-56", 0 ]
                                }
                            },
                            {
                                "patchline": {
                                    "destination": [ "obj-58", 0 ],
                                    "source": [ "obj-57", 0 ]
                                }
                            },
                            {
                                "patchline": {
                                    "destination": [ "obj-43", 0 ],
                                    "midpoints": [ 59.5, 753.0, 243.0, 753.0, 243.0, 174.0, 266.5, 174.0 ],
                                    "source": [ "obj-58", 0 ]
                                }
                            },
                            {
                                "patchline": {
                                    "destination": [ "obj-60", 0 ],
                                    "source": [ "obj-59", 0 ]
                                }
                            },
                            {
                                "patchline": {
                                    "destination": [ "obj-2", 0 ],
                                    "source": [ "obj-6", 0 ]
                                }
                            },
                            {
                                "patchline": {
                                    "destination": [ "obj-43", 0 ],
                                    "midpoints": [ 59.5, 855.0, 243.0, 855.0, 243.0, 174.0, 266.5, 174.0 ],
                                    "source": [ "obj-60", 0 ]
                                }
                            },
                            {
                                "patchline": {
                                    "destination": [ "obj-62", 0 ],
                                    "source": [ "obj-61", 0 ]
                                }
                            },
                            {
                                "patchline": {
                                    "destination": [ "obj-43", 0 ],
                                    "midpoints": [ 59.5, 966.0, 243.0, 966.0, 243.0, 174.0, 266.5, 174.0 ],
                                    "source": [ "obj-62", 0 ]
                                }
                            },
                            {
                                "patchline": {
                                    "destination": [ "obj-50", 0 ],
                                    "source": [ "obj-63", 0 ]
                                }
                            },
                            {
                                "patchline": {
                                    "destination": [ "obj-12", 0 ],
                                    "source": [ "obj-64", 0 ]
                                }
                            },
                            {
                                "patchline": {
                                    "destination": [ "obj-3", 0 ],
                                    "source": [ "obj-65", 0 ]
                                }
                            },
                            {
                                "patchline": {
                                    "destination": [ "obj-25", 0 ],
                                    "source": [ "obj-66", 0 ]
                                }
                            },
                            {
                                "patchline": {
                                    "destination": [ "obj-31", 0 ],
                                    "source": [ "obj-67", 0 ]
                                }
                            },
                            {
                                "patchline": {
                                    "destination": [ "obj-42", 0 ],
                                    "source": [ "obj-68", 0 ]
                                }
                            },
                            {
                                "patchline": {
                                    "destination": [ "obj-48", 0 ],
                                    "source": [ "obj-69", 0 ]
                                }
                            },
                            {
                                "patchline": {
                                    "destination": [ "obj-43", 0 ],
                                    "midpoints": [ 821.5, 279.0, 795.0, 279.0, 795.0, 174.0, 266.5, 174.0 ],
                                    "source": [ "obj-7", 0 ]
                                }
                            },
                            {
                                "patchline": {
                                    "destination": [ "obj-37", 0 ],
                                    "source": [ "obj-70", 0 ]
                                }
                            },
                            {
                                "patchline": {
                                    "destination": [ "obj-39", 0 ],
                                    "source": [ "obj-71", 0 ]
                                }
                            },
                            {
                                "patchline": {
                                    "destination": [ "obj-61", 0 ],
                                    "source": [ "obj-72", 0 ]
                                }
                            },
                            {
                                "patchline": {
                                    "destination": [ "obj-51", 0 ],
                                    "source": [ "obj-73", 0 ]
                                }
                            },
                            {
                                "patchline": {
                                    "destination": [ "obj-53", 0 ],
                                    "source": [ "obj-74", 0 ]
                                }
                            },
                            {
                                "patchline": {
                                    "destination": [ "obj-55", 0 ],
                                    "source": [ "obj-75", 0 ]
                                }
                            },
                            {
                                "patchline": {
                                    "destination": [ "obj-57", 0 ],
                                    "source": [ "obj-76", 0 ]
                                }
                            },
                            {
                                "patchline": {
                                    "destination": [ "obj-59", 0 ],
                                    "source": [ "obj-77", 0 ]
                                }
                            },
                            {
                                "patchline": {
                                    "destination": [ "obj-43", 0 ],
                                    "midpoints": [ 635.7038753628731, 279.0, 357.0, 279.0, 357.0, 165.0, 266.5, 165.0 ],
                                    "source": [ "obj-8", 0 ]
                                }
                            }
                        ]
                    },
                    "patching_rect": [ 420.0, 392.5, 86.0, 22.0 ],
                    "text": "p snesBigSUB",
                    "textcolor": [ 1.0, 0.207843137254902, 0.207843137254902, 1.0 ],
                    "varname": "sub"
                }
            },
            {
                "box": {
                    "active": {
                        "preset-ramp": 0,
                        "presets": 0,
                        "title_menu": 0,
                        "pres_menu": 0,
                        "tetris_menu": 0,
                        "master": 0,
                        "act::active_store": 0,
                        "act::master/activest": 0,
                        "ll.blues": 0,
                        "ll.blues::status": 0,
                        "ll.blues::outputs~": 0,
                        "ll.blues::outputsMix~": 0,
                        "ll.blues::chans": 0,
                        "ll.blues::levels": 0,
                        "actmakeB::active_store": 0,
                        "actmakeB::master/activest": 0
                    },
                    "color": [ 0.0, 0.0, 0.0, 1.0 ],
                    "fontname": "Arial",
                    "fontsize": 12.0,
                    "hidden": 1,
                    "id": "obj-3",
                    "maxclass": "newobj",
                    "numinlets": 1,
                    "numoutlets": 1,
                    "outlettype": [ "" ],
                    "patching_rect": [ 511.0, 181.0, 100.0, 22.0 ],
                    "priority": {
                        "title_menu": 2010,
                        "pres_menu": 2011,
                        "tetris_menu": 2012,
                        "master": 2013,
                        "ll.blues::status": 1,
                        "ll.blues::outputs~": 2,
                        "ll.blues::outputsMix~": 3,
                        "ll.blues::chans": 4,
                        "ll.blues::levels": 5
                    },
                    "saved_object_attributes": {
                        "client_rect": [ 54, 397, 594, 1106 ],
                        "parameter_enable": 0,
                        "parameter_mappable": 0,
                        "storage_rect": [ 365, 44, 816, 172 ]
                    },
                    "text": "pattrstorage pat",
                    "varname": "pat"
                }
            },
            {
                "box": {
                    "color": [ 0.0, 0.0, 0.0, 1.0 ],
                    "fontname": "Arial",
                    "fontsize": 12.0,
                    "hidden": 1,
                    "id": "obj-4",
                    "maxclass": "newobj",
                    "numinlets": 1,
                    "numoutlets": 2,
                    "outlettype": [ "", "" ],
                    "patching_rect": [ 498.0, 223.0, 107.0, 22.0 ],
                    "save": [ "#N", "thispatcher", ";", "#Q", "end", ";" ],
                    "text": "thispatcher",
                    "varname": "thispatcher"
                }
            },
            {
                "box": {
                    "color": [ 0.0, 0.0, 0.0, 1.0 ],
                    "fontname": "Arial",
                    "fontsize": 12.0,
                    "hidden": 1,
                    "id": "obj-5",
                    "maxclass": "newobj",
                    "numinlets": 1,
                    "numoutlets": 1,
                    "outlettype": [ "" ],
                    "patching_rect": [ 498.0, 244.0, 107.0, 22.0 ],
                    "text": "pattrmarker no",
                    "varname": "pattrmarker"
                }
            },
            {
                "box": {
                    "color": [ 0.0, 0.0, 0.0, 1.0 ],
                    "fontname": "Arial",
                    "fontsize": 12.0,
                    "hidden": 1,
                    "id": "obj-6",
                    "maxclass": "newobj",
                    "numinlets": 1,
                    "numoutlets": 4,
                    "outlettype": [ "", "", "", "" ],
                    "patching_rect": [ 498.0, 265.0, 107.0, 22.0 ],
                    "restore": {
                        "bypassEcho": [ 0 ],
                        "fir1": [ 10.841463414634147 ],
                        "fir2": [ 5.678861788617886 ],
                        "fir3": [ 0.0 ],
                        "fir4": [ 5.678861788617886 ],
                        "fir5": [ 0.0 ],
                        "fir6": [ 0.0 ],
                        "fir7": [ 0.0 ],
                        "preset-ramp": [ 100 ],
                        "presets": [ 0 ],
                        "snesBigPreamp": [ 0.24 ],
                        "snesDry": [ 31.496 ],
                        "snesDryNeg": [ 0 ],
                        "snesDryVolSurr": [ 0 ],
                        "snesEchoBlock": [ 7 ],
                        "snesEchoFBNeg": [ 0 ],
                        "snesFeedback": [ 97.536 ],
                        "snesNorm": [ 1 ],
                        "snesSurround": [ 0 ],
                        "snesWet": [ 86.36 ],
                        "snesWetVolNeg": [ 0 ],
                        "snesWetVolSurr": [ 0 ]
                    },
                    "text": "autopattr autopattr",
                    "varname": "autopattr"
                }
            },
            {
                "box": {
                    "args": [ "snesHardmode@", "cec9dd" ],
                    "bgmode": 0,
                    "border": 0,
                    "clickthrough": 0,
                    "enablehscroll": 0,
                    "enablevscroll": 0,
                    "id": "obj-16",
                    "lockeddragscroll": 0,
                    "lockedsize": 0,
                    "maxclass": "bpatcher",
                    "name": "actmakeB.maxpat",
                    "numinlets": 1,
                    "numoutlets": 0,
                    "offset": [ 0.0, 0.0 ],
                    "patching_rect": [ 0.0, 0.0, 116.744140625, 16.0 ],
                    "varname": "act",
                    "viewvisibility": 1
                }
            },
            {
                "box": {
                    "hidden": 1,
                    "id": "obj-18",
                    "maxclass": "newobj",
                    "numinlets": 1,
                    "numoutlets": 1,
                    "outlettype": [ "" ],
                    "patching_rect": [ 511.0, 202.0, 115.0, 22.0 ],
                    "text": "pattrforward act::in2",
                    "varname": "pf"
                }
            }
        ],
        "lines": [
            {
                "patchline": {
                    "destination": [ "obj-18", 0 ],
                    "hidden": 1,
                    "source": [ "obj-3", 0 ]
                }
            }
        ],
        "autosave": 0,
        "styles": [
            {
                "name": "melange",
                "default": {
                    "fontname": [ "Lato" ]
                },
                "parentstyle": "",
                "multi": 0
            }
        ],
        "bgcolor": [ 0.807843137254902, 0.788235294117647, 0.8666666666666667, 1.0 ]
    }
}