{
    "patcher": {
        "fileversion": 1,
        "appversion": {
            "major": 9,
            "minor": 1,
            "revision": 1,
            "architecture": "x64",
            "modernui": 1
        },
        "classnamespace": "box",
        "rect": [ 710.0, 243.0, 309.0, 309.0 ],
        "boxes": [
            {
                "box": {
                    "id": "obj-11",
                    "maxclass": "newobj",
                    "numinlets": 6,
                    "numoutlets": 1,
                    "outlettype": [ "" ],
                    "patching_rect": [ 66.0, 157.0, 94.0, 22.0 ],
                    "text": "scale 0. 1. -1. 1."
                }
            },
            {
                "box": {
                    "id": "obj-9",
                    "maxclass": "newobj",
                    "numinlets": 6,
                    "numoutlets": 1,
                    "outlettype": [ "" ],
                    "patching_rect": [ 179.0, 157.0, 94.0, 22.0 ],
                    "text": "scale 0. 1. -1. 1."
                }
            },
            {
                "box": {
                    "id": "obj-8",
                    "maxclass": "newobj",
                    "numinlets": 6,
                    "numoutlets": 1,
                    "outlettype": [ "" ],
                    "patching_rect": [ 179.0, 65.5, 94.0, 22.0 ],
                    "text": "scale 0. 1. -1. 1."
                }
            },
            {
                "box": {
                    "id": "obj-7",
                    "maxclass": "newobj",
                    "numinlets": 6,
                    "numoutlets": 1,
                    "outlettype": [ "" ],
                    "patching_rect": [ 66.0, 65.5, 94.0, 22.0 ],
                    "text": "scale 0. 1. -1. 1."
                }
            },
            {
                "box": {
                    "id": "obj-6",
                    "maxclass": "newobj",
                    "numinlets": 1,
                    "numoutlets": 2,
                    "outlettype": [ "", "bang" ],
                    "patching_rect": [ 179.0, 130.0, 116.0, 22.0 ],
                    "text": "ll.r ultrasound_noise"
                }
            },
            {
                "box": {
                    "id": "obj-5",
                    "maxclass": "newobj",
                    "numinlets": 1,
                    "numoutlets": 2,
                    "outlettype": [ "", "bang" ],
                    "patching_rect": [ 66.0, 130.0, 107.0, 22.0 ],
                    "text": "ll.r ultrasound_cap"
                }
            },
            {
                "box": {
                    "id": "obj-4",
                    "maxclass": "newobj",
                    "numinlets": 1,
                    "numoutlets": 2,
                    "outlettype": [ "", "bang" ],
                    "patching_rect": [ 179.0, 38.0, 94.0, 22.0 ],
                    "text": "ll.r ultrasound_q"
                }
            },
            {
                "box": {
                    "id": "obj-3",
                    "maxclass": "newobj",
                    "numinlets": 1,
                    "numoutlets": 2,
                    "outlettype": [ "", "bang" ],
                    "patching_rect": [ 66.0, 38.0, 108.0, 22.0 ],
                    "text": "ll.r ultrasound_freq"
                }
            },
            {
                "box": {
                    "id": "obj-28",
                    "maxclass": "message",
                    "numinlets": 2,
                    "numoutlets": 1,
                    "outlettype": [ "" ],
                    "patching_rect": [ 179.0, 184.0, 54.0, 22.0 ],
                    "text": "noise $1"
                }
            },
            {
                "box": {
                    "id": "obj-10",
                    "maxclass": "message",
                    "numinlets": 2,
                    "numoutlets": 1,
                    "outlettype": [ "" ],
                    "patching_rect": [ 66.0, 93.0, 78.0, 22.0 ],
                    "text": "frequency $1"
                }
            },
            {
                "box": {
                    "id": "obj-29",
                    "maxclass": "message",
                    "numinlets": 2,
                    "numoutlets": 1,
                    "outlettype": [ "" ],
                    "patching_rect": [ 66.0, 184.0, 74.0, 22.0 ],
                    "text": "capacitor $1"
                }
            },
            {
                "box": {
                    "id": "obj-35",
                    "maxclass": "message",
                    "numinlets": 2,
                    "numoutlets": 1,
                    "outlettype": [ "" ],
                    "patching_rect": [ 179.0, 93.0, 32.0, 22.0 ],
                    "text": "q $1"
                }
            },
            {
                "box": {
                    "id": "obj-114",
                    "maxclass": "newobj",
                    "numinlets": 5,
                    "numoutlets": 1,
                    "outlettype": [ "signal" ],
                    "patcher": {
                        "fileversion": 1,
                        "appversion": {
                            "major": 9,
                            "minor": 1,
                            "revision": 1,
                            "architecture": "x64",
                            "modernui": 1
                        },
                        "classnamespace": "box",
                        "rect": [ 84.0, 144.0, 1021.0, 804.0 ],
                        "visible": 1,
                        "boxes": [
                            {
                                "box": {
                                    "id": "obj-24",
                                    "maxclass": "newobj",
                                    "numinlets": 1,
                                    "numoutlets": 1,
                                    "outlettype": [ "signal" ],
                                    "patching_rect": [ 415.0, 646.0, 39.0, 22.0 ],
                                    "text": "mtof~"
                                }
                            },
                            {
                                "box": {
                                    "id": "obj-72",
                                    "maxclass": "newobj",
                                    "numinlets": 6,
                                    "numoutlets": 1,
                                    "outlettype": [ "signal" ],
                                    "patching_rect": [ 415.0, 580.0, 194.0, 22.0 ],
                                    "text": "scale~ -1 1 50.369508 135.076232"
                                }
                            },
                            {
                                "box": {
                                    "id": "obj-71",
                                    "maxclass": "newobj",
                                    "numinlets": 6,
                                    "numoutlets": 1,
                                    "outlettype": [ "signal" ],
                                    "patching_rect": [ 290.0, 612.0, 188.0, 22.0 ],
                                    "text": "scale~ -1 1 3.486821 135.076232"
                                }
                            },
                            {
                                "box": {
                                    "id": "obj-26",
                                    "maxclass": "newobj",
                                    "numinlets": 1,
                                    "numoutlets": 1,
                                    "outlettype": [ "signal" ],
                                    "patching_rect": [ 290.0, 646.0, 39.0, 22.0 ],
                                    "text": "mtof~"
                                }
                            },
                            {
                                "box": {
                                    "id": "obj-25",
                                    "maxclass": "newobj",
                                    "numinlets": 6,
                                    "numoutlets": 1,
                                    "outlettype": [ "signal" ],
                                    "patching_rect": [ 540.0, 646.0, 101.0, 22.0 ],
                                    "text": "scale~ -1. 1. 0. 1."
                                }
                            },
                            {
                                "box": {
                                    "id": "obj-13",
                                    "maxclass": "newobj",
                                    "numinlets": 6,
                                    "numoutlets": 1,
                                    "outlettype": [ "signal" ],
                                    "patching_rect": [ 149.0, 593.0, 114.0, 22.0 ],
                                    "text": "scale~ -1. 1. 0. 0.05"
                                }
                            },
                            {
                                "box": {
                                    "id": "obj-19",
                                    "maxclass": "newobj",
                                    "numinlets": 2,
                                    "numoutlets": 1,
                                    "outlettype": [ "signal" ],
                                    "patching_rect": [ 81.0, 646.0, 87.0, 22.0 ],
                                    "text": "*~"
                                }
                            },
                            {
                                "box": {
                                    "id": "obj-16",
                                    "maxclass": "newobj",
                                    "numinlets": 2,
                                    "numoutlets": 1,
                                    "outlettype": [ "" ],
                                    "patching_rect": [ 496.0, 330.0, 57.0, 22.0 ],
                                    "text": "pack f 35"
                                }
                            },
                            {
                                "box": {
                                    "id": "obj-17",
                                    "maxclass": "newobj",
                                    "numinlets": 2,
                                    "numoutlets": 2,
                                    "outlettype": [ "signal", "bang" ],
                                    "patching_rect": [ 496.0, 383.0, 48.0, 22.0 ],
                                    "text": "line~ -1"
                                }
                            },
                            {
                                "box": {
                                    "id": "obj-14",
                                    "maxclass": "newobj",
                                    "numinlets": 0,
                                    "numoutlets": 1,
                                    "outlettype": [ "signal" ],
                                    "patcher": {
                                        "fileversion": 1,
                                        "appversion": {
                                            "major": 9,
                                            "minor": 1,
                                            "revision": 1,
                                            "architecture": "x64",
                                            "modernui": 1
                                        },
                                        "classnamespace": "box",
                                        "rect": [ 59.0, 106.0, 414.0, 349.0 ],
                                        "boxes": [
                                            {
                                                "box": {
                                                    "id": "obj-5",
                                                    "linecount": 3,
                                                    "maxclass": "comment",
                                                    "numinlets": 1,
                                                    "numoutlets": 0,
                                                    "patching_rect": [ 230.0, 36.0, 151.0, 47.0 ],
                                                    "text": "Tuned noise to match the output of the ciat-lonbarde snare noise."
                                                }
                                            },
                                            {
                                                "box": {
                                                    "id": "obj-2",
                                                    "maxclass": "comment",
                                                    "numinlets": 1,
                                                    "numoutlets": 0,
                                                    "patching_rect": [ 73.0, 291.0, 71.0, 20.0 ],
                                                    "text": "tuned noise"
                                                }
                                            },
                                            {
                                                "box": {
                                                    "fontname": "Arial",
                                                    "fontsize": 12.0,
                                                    "id": "obj-4",
                                                    "maxclass": "newobj",
                                                    "numinlets": 2,
                                                    "numoutlets": 1,
                                                    "outlettype": [ "signal" ],
                                                    "patching_rect": [ 37.0, 236.0, 70.0, 22.0 ],
                                                    "text": "-~"
                                                }
                                            },
                                            {
                                                "box": {
                                                    "fontname": "Arial",
                                                    "fontsize": 12.0,
                                                    "id": "obj-56",
                                                    "maxclass": "newobj",
                                                    "numinlets": 2,
                                                    "numoutlets": 1,
                                                    "outlettype": [ "signal" ],
                                                    "patching_rect": [ 88.0, 186.0, 82.0, 22.0 ],
                                                    "text": "onepole~ 100"
                                                }
                                            },
                                            {
                                                "box": {
                                                    "id": "obj-21",
                                                    "maxclass": "newobj",
                                                    "numinlets": 2,
                                                    "numoutlets": 1,
                                                    "outlettype": [ "signal" ],
                                                    "patching_rect": [ 144.0, 86.0, 40.0, 22.0 ],
                                                    "text": "*~ 0.4"
                                                }
                                            },
                                            {
                                                "box": {
                                                    "id": "obj-17",
                                                    "maxclass": "newobj",
                                                    "numinlets": 1,
                                                    "numoutlets": 1,
                                                    "outlettype": [ "signal" ],
                                                    "patching_rect": [ 144.0, 36.0, 44.0, 22.0 ],
                                                    "text": "noise~"
                                                }
                                            },
                                            {
                                                "box": {
                                                    "id": "obj-18",
                                                    "maxclass": "newobj",
                                                    "numinlets": 2,
                                                    "numoutlets": 1,
                                                    "outlettype": [ "signal" ],
                                                    "patching_rect": [ 37.0, 136.0, 126.0, 22.0 ],
                                                    "text": "+~"
                                                }
                                            },
                                            {
                                                "box": {
                                                    "id": "obj-19",
                                                    "maxclass": "newobj",
                                                    "numinlets": 1,
                                                    "numoutlets": 1,
                                                    "outlettype": [ "signal" ],
                                                    "patching_rect": [ 89.0, 36.0, 38.0, 22.0 ],
                                                    "text": "pink~"
                                                }
                                            },
                                            {
                                                "box": {
                                                    "id": "obj-20",
                                                    "maxclass": "newobj",
                                                    "numinlets": 1,
                                                    "numoutlets": 1,
                                                    "outlettype": [ "signal" ],
                                                    "patching_rect": [ 37.0, 36.0, 44.0, 22.0 ],
                                                    "text": "noise~"
                                                }
                                            },
                                            {
                                                "box": {
                                                    "id": "obj-24",
                                                    "maxclass": "newobj",
                                                    "numinlets": 2,
                                                    "numoutlets": 1,
                                                    "outlettype": [ "signal" ],
                                                    "patching_rect": [ 37.0, 86.0, 71.0, 22.0 ],
                                                    "text": "*~"
                                                }
                                            },
                                            {
                                                "box": {
                                                    "comment": "tuned noise",
                                                    "id": "obj-25",
                                                    "index": 1,
                                                    "maxclass": "outlet",
                                                    "numinlets": 1,
                                                    "numoutlets": 0,
                                                    "patching_rect": [ 37.0, 286.0, 30.0, 30.0 ]
                                                }
                                            }
                                        ],
                                        "lines": [
                                            {
                                                "patchline": {
                                                    "destination": [ "obj-21", 0 ],
                                                    "source": [ "obj-17", 0 ]
                                                }
                                            },
                                            {
                                                "patchline": {
                                                    "destination": [ "obj-4", 0 ],
                                                    "order": 1,
                                                    "source": [ "obj-18", 0 ]
                                                }
                                            },
                                            {
                                                "patchline": {
                                                    "destination": [ "obj-56", 0 ],
                                                    "order": 0,
                                                    "source": [ "obj-18", 0 ]
                                                }
                                            },
                                            {
                                                "patchline": {
                                                    "destination": [ "obj-24", 1 ],
                                                    "source": [ "obj-19", 0 ]
                                                }
                                            },
                                            {
                                                "patchline": {
                                                    "destination": [ "obj-24", 0 ],
                                                    "source": [ "obj-20", 0 ]
                                                }
                                            },
                                            {
                                                "patchline": {
                                                    "destination": [ "obj-18", 1 ],
                                                    "source": [ "obj-21", 0 ]
                                                }
                                            },
                                            {
                                                "patchline": {
                                                    "destination": [ "obj-18", 0 ],
                                                    "source": [ "obj-24", 0 ]
                                                }
                                            },
                                            {
                                                "patchline": {
                                                    "destination": [ "obj-25", 0 ],
                                                    "source": [ "obj-4", 0 ]
                                                }
                                            },
                                            {
                                                "patchline": {
                                                    "destination": [ "obj-4", 1 ],
                                                    "source": [ "obj-56", 0 ]
                                                }
                                            }
                                        ]
                                    },
                                    "patching_rect": [ 81.0, 593.0, 47.0, 22.0 ],
                                    "text": "p noise"
                                }
                            },
                            {
                                "box": {
                                    "id": "obj-20",
                                    "maxclass": "newobj",
                                    "numinlets": 5,
                                    "numoutlets": 1,
                                    "outlettype": [ "signal" ],
                                    "patcher": {
                                        "fileversion": 1,
                                        "appversion": {
                                            "major": 9,
                                            "minor": 1,
                                            "revision": 1,
                                            "architecture": "x64",
                                            "modernui": 1
                                        },
                                        "classnamespace": "dsp.gen",
                                        "rect": [ 121.0, 154.0, 504.0, 534.0 ],
                                        "boxes": [
                                            {
                                                "box": {
                                                    "id": "obj-5",
                                                    "maxclass": "newobj",
                                                    "numinlets": 1,
                                                    "numoutlets": 1,
                                                    "outlettype": [ "" ],
                                                    "patching_rect": [ 56.0, 81.0, 78.0, 22.0 ],
                                                    "text": "!/ samplerate"
                                                }
                                            },
                                            {
                                                "box": {
                                                    "id": "obj-4",
                                                    "maxclass": "newobj",
                                                    "numinlets": 1,
                                                    "numoutlets": 1,
                                                    "outlettype": [ "" ],
                                                    "patching_rect": [ 249.5, 282.0, 78.0, 22.0 ],
                                                    "text": "!/ samplerate"
                                                }
                                            },
                                            {
                                                "box": {
                                                    "id": "obj-3",
                                                    "maxclass": "newobj",
                                                    "numinlets": 1,
                                                    "numoutlets": 1,
                                                    "outlettype": [ "" ],
                                                    "patching_rect": [ 332.5, 80.0, 44.0, 22.0 ],
                                                    "text": "history"
                                                }
                                            },
                                            {
                                                "box": {
                                                    "id": "obj-157",
                                                    "maxclass": "newobj",
                                                    "numinlets": 1,
                                                    "numoutlets": 0,
                                                    "patching_rect": [ 56.5, 484.0, 35.0, 22.0 ],
                                                    "text": "out 1"
                                                }
                                            },
                                            {
                                                "box": {
                                                    "id": "obj-156",
                                                    "maxclass": "comment",
                                                    "numinlets": 1,
                                                    "numoutlets": 0,
                                                    "patching_rect": [ 423.5, 81.0, 65.0, 20.0 ],
                                                    "text": "resonance"
                                                }
                                            },
                                            {
                                                "box": {
                                                    "id": "obj-148",
                                                    "maxclass": "comment",
                                                    "numinlets": 1,
                                                    "numoutlets": 0,
                                                    "patching_rect": [ 141.0, 31.0, 38.0, 20.0 ],
                                                    "text": "width"
                                                }
                                            },
                                            {
                                                "box": {
                                                    "id": "obj-142",
                                                    "maxclass": "comment",
                                                    "numinlets": 1,
                                                    "numoutlets": 0,
                                                    "patching_rect": [ 16.0, 31.0, 38.0, 20.0 ],
                                                    "text": "rate"
                                                }
                                            },
                                            {
                                                "box": {
                                                    "id": "obj-126",
                                                    "maxclass": "comment",
                                                    "numinlets": 1,
                                                    "numoutlets": 0,
                                                    "patching_rect": [ 279.5, 233.0, 38.0, 20.0 ],
                                                    "text": "cap 2"
                                                }
                                            },
                                            {
                                                "box": {
                                                    "id": "obj-125",
                                                    "maxclass": "comment",
                                                    "numinlets": 1,
                                                    "numoutlets": 0,
                                                    "patching_rect": [ 136.5, 283.0, 38.0, 20.0 ],
                                                    "text": "cap 1"
                                                }
                                            },
                                            {
                                                "box": {
                                                    "id": "obj-116",
                                                    "maxclass": "comment",
                                                    "numinlets": 1,
                                                    "numoutlets": 0,
                                                    "patching_rect": [ 231.5, 181.0, 51.0, 20.0 ],
                                                    "text": "audio in"
                                                }
                                            },
                                            {
                                                "box": {
                                                    "id": "obj-45",
                                                    "maxclass": "newobj",
                                                    "numinlets": 1,
                                                    "numoutlets": 1,
                                                    "outlettype": [ "" ],
                                                    "patching_rect": [ 56.5, 434.0, 32.0, 22.0 ],
                                                    "text": "tanh"
                                                }
                                            },
                                            {
                                                "box": {
                                                    "id": "obj-25",
                                                    "maxclass": "newobj",
                                                    "numinlets": 1,
                                                    "numoutlets": 1,
                                                    "outlettype": [ "" ],
                                                    "patching_rect": [ 332.5, 181.0, 32.0, 22.0 ],
                                                    "text": "tanh"
                                                }
                                            },
                                            {
                                                "box": {
                                                    "id": "obj-22",
                                                    "maxclass": "newobj",
                                                    "numinlets": 2,
                                                    "numoutlets": 1,
                                                    "outlettype": [ "" ],
                                                    "patching_rect": [ 332.5, 131.0, 71.0, 22.0 ],
                                                    "text": "*"
                                                }
                                            },
                                            {
                                                "box": {
                                                    "id": "obj-20",
                                                    "maxclass": "newobj",
                                                    "numinlets": 0,
                                                    "numoutlets": 1,
                                                    "outlettype": [ "" ],
                                                    "patching_rect": [ 384.5, 80.0, 28.0, 22.0 ],
                                                    "text": "in 5"
                                                }
                                            },
                                            {
                                                "box": {
                                                    "id": "obj-17",
                                                    "maxclass": "newobj",
                                                    "numinlets": 0,
                                                    "numoutlets": 1,
                                                    "outlettype": [ "" ],
                                                    "patching_rect": [ 111.0, 30.0, 25.0, 22.0 ],
                                                    "text": "0.5"
                                                }
                                            },
                                            {
                                                "box": {
                                                    "id": "obj-15",
                                                    "maxclass": "newobj",
                                                    "numinlets": 0,
                                                    "numoutlets": 1,
                                                    "outlettype": [ "" ],
                                                    "patching_rect": [ 56.0, 30.0, 28.0, 22.0 ],
                                                    "text": "in 4"
                                                }
                                            },
                                            {
                                                "box": {
                                                    "id": "obj-14",
                                                    "maxclass": "newobj",
                                                    "numinlets": 1,
                                                    "numoutlets": 1,
                                                    "outlettype": [ "" ],
                                                    "patching_rect": [ 56.5, 181.0, 26.0, 22.0 ],
                                                    "text": "+ 1"
                                                }
                                            },
                                            {
                                                "box": {
                                                    "id": "obj-13",
                                                    "maxclass": "newobj",
                                                    "numinlets": 3,
                                                    "numoutlets": 1,
                                                    "outlettype": [ "" ],
                                                    "patching_rect": [ 56.5, 131.0, 128.0, 22.0 ],
                                                    "text": "train"
                                                }
                                            },
                                            {
                                                "box": {
                                                    "id": "obj-12",
                                                    "maxclass": "newobj",
                                                    "numinlets": 2,
                                                    "numoutlets": 2,
                                                    "outlettype": [ "", "" ],
                                                    "patching_rect": [ 56.5, 232.0, 164.0, 22.0 ],
                                                    "text": "gate 2"
                                                }
                                            },
                                            {
                                                "box": {
                                                    "id": "obj-9",
                                                    "maxclass": "newobj",
                                                    "numinlets": 1,
                                                    "numoutlets": 1,
                                                    "outlettype": [ "" ],
                                                    "patching_rect": [ 249.5, 333.0, 41.0, 22.0 ],
                                                    "text": "pow 2"
                                                }
                                            },
                                            {
                                                "box": {
                                                    "id": "obj-10",
                                                    "maxclass": "newobj",
                                                    "numinlets": 3,
                                                    "numoutlets": 1,
                                                    "outlettype": [ "" ],
                                                    "patching_rect": [ 201.5, 383.0, 67.0, 22.0 ],
                                                    "text": "slide"
                                                }
                                            },
                                            {
                                                "box": {
                                                    "id": "obj-11",
                                                    "maxclass": "newobj",
                                                    "numinlets": 0,
                                                    "numoutlets": 1,
                                                    "outlettype": [ "" ],
                                                    "patching_rect": [ 249.5, 232.0, 28.0, 22.0 ],
                                                    "text": "in 3"
                                                }
                                            },
                                            {
                                                "box": {
                                                    "id": "obj-8",
                                                    "maxclass": "newobj",
                                                    "numinlets": 1,
                                                    "numoutlets": 1,
                                                    "outlettype": [ "" ],
                                                    "patching_rect": [ 104.5, 333.0, 41.0, 22.0 ],
                                                    "text": "pow 2"
                                                }
                                            },
                                            {
                                                "box": {
                                                    "id": "obj-6",
                                                    "maxclass": "newobj",
                                                    "numinlets": 3,
                                                    "numoutlets": 1,
                                                    "outlettype": [ "" ],
                                                    "patching_rect": [ 56.5, 383.0, 67.0, 22.0 ],
                                                    "text": "slide"
                                                }
                                            },
                                            {
                                                "box": {
                                                    "id": "obj-1",
                                                    "maxclass": "newobj",
                                                    "numinlets": 0,
                                                    "numoutlets": 1,
                                                    "outlettype": [ "" ],
                                                    "patching_rect": [ 201.5, 181.0, 28.0, 22.0 ],
                                                    "text": "in 1"
                                                }
                                            },
                                            {
                                                "box": {
                                                    "id": "obj-2",
                                                    "maxclass": "newobj",
                                                    "numinlets": 0,
                                                    "numoutlets": 1,
                                                    "outlettype": [ "" ],
                                                    "patching_rect": [ 104.5, 282.0, 28.0, 22.0 ],
                                                    "text": "in 2"
                                                }
                                            }
                                        ],
                                        "lines": [
                                            {
                                                "patchline": {
                                                    "destination": [ "obj-12", 1 ],
                                                    "source": [ "obj-1", 0 ]
                                                }
                                            },
                                            {
                                                "patchline": {
                                                    "destination": [ "obj-45", 0 ],
                                                    "midpoints": [ 211.0, 419.0, 66.0, 419.0 ],
                                                    "source": [ "obj-10", 0 ]
                                                }
                                            },
                                            {
                                                "patchline": {
                                                    "destination": [ "obj-4", 0 ],
                                                    "source": [ "obj-11", 0 ]
                                                }
                                            },
                                            {
                                                "patchline": {
                                                    "destination": [ "obj-10", 0 ],
                                                    "source": [ "obj-12", 1 ]
                                                }
                                            },
                                            {
                                                "patchline": {
                                                    "destination": [ "obj-6", 0 ],
                                                    "source": [ "obj-12", 0 ]
                                                }
                                            },
                                            {
                                                "patchline": {
                                                    "destination": [ "obj-14", 0 ],
                                                    "source": [ "obj-13", 0 ]
                                                }
                                            },
                                            {
                                                "patchline": {
                                                    "destination": [ "obj-12", 0 ],
                                                    "source": [ "obj-14", 0 ]
                                                }
                                            },
                                            {
                                                "patchline": {
                                                    "destination": [ "obj-5", 0 ],
                                                    "source": [ "obj-15", 0 ]
                                                }
                                            },
                                            {
                                                "patchline": {
                                                    "destination": [ "obj-13", 1 ],
                                                    "source": [ "obj-17", 0 ]
                                                }
                                            },
                                            {
                                                "patchline": {
                                                    "destination": [ "obj-8", 0 ],
                                                    "source": [ "obj-2", 0 ]
                                                }
                                            },
                                            {
                                                "patchline": {
                                                    "destination": [ "obj-22", 1 ],
                                                    "source": [ "obj-20", 0 ]
                                                }
                                            },
                                            {
                                                "patchline": {
                                                    "destination": [ "obj-25", 0 ],
                                                    "source": [ "obj-22", 0 ]
                                                }
                                            },
                                            {
                                                "patchline": {
                                                    "destination": [ "obj-12", 1 ],
                                                    "midpoints": [ 342.0, 217.0, 211.0, 217.0 ],
                                                    "source": [ "obj-25", 0 ]
                                                }
                                            },
                                            {
                                                "patchline": {
                                                    "destination": [ "obj-22", 0 ],
                                                    "source": [ "obj-3", 0 ]
                                                }
                                            },
                                            {
                                                "patchline": {
                                                    "destination": [ "obj-9", 0 ],
                                                    "source": [ "obj-4", 0 ]
                                                }
                                            },
                                            {
                                                "patchline": {
                                                    "destination": [ "obj-157", 0 ],
                                                    "order": 1,
                                                    "source": [ "obj-45", 0 ]
                                                }
                                            },
                                            {
                                                "patchline": {
                                                    "destination": [ "obj-3", 0 ],
                                                    "midpoints": [ 66.0, 466.0, 417.0, 466.0, 417.0, 69.0, 342.0, 69.0 ],
                                                    "order": 0,
                                                    "source": [ "obj-45", 0 ]
                                                }
                                            },
                                            {
                                                "patchline": {
                                                    "destination": [ "obj-13", 0 ],
                                                    "source": [ "obj-5", 0 ]
                                                }
                                            },
                                            {
                                                "patchline": {
                                                    "destination": [ "obj-45", 0 ],
                                                    "source": [ "obj-6", 0 ]
                                                }
                                            },
                                            {
                                                "patchline": {
                                                    "destination": [ "obj-6", 2 ],
                                                    "order": 0,
                                                    "source": [ "obj-8", 0 ]
                                                }
                                            },
                                            {
                                                "patchline": {
                                                    "destination": [ "obj-6", 1 ],
                                                    "order": 1,
                                                    "source": [ "obj-8", 0 ]
                                                }
                                            },
                                            {
                                                "patchline": {
                                                    "destination": [ "obj-10", 2 ],
                                                    "order": 0,
                                                    "source": [ "obj-9", 0 ]
                                                }
                                            },
                                            {
                                                "patchline": {
                                                    "destination": [ "obj-10", 1 ],
                                                    "order": 1,
                                                    "source": [ "obj-9", 0 ]
                                                }
                                            }
                                        ]
                                    },
                                    "patching_rect": [ 40.0, 698.0, 519.0, 22.0 ],
                                    "text": "gen~"
                                }
                            },
                            {
                                "box": {
                                    "id": "obj-99",
                                    "maxclass": "newobj",
                                    "numinlets": 1,
                                    "numoutlets": 1,
                                    "outlettype": [ "signal" ],
                                    "patching_rect": [ 40.0, 129.0, 47.0, 22.0 ],
                                    "text": "t signal"
                                }
                            },
                            {
                                "box": {
                                    "id": "obj-101",
                                    "maxclass": "newobj",
                                    "numinlets": 2,
                                    "numoutlets": 2,
                                    "outlettype": [ "", "" ],
                                    "patching_rect": [ 40.0, 82.0, 100.0, 22.0 ],
                                    "text": "route signal"
                                }
                            },
                            {
                                "box": {
                                    "id": "obj-91",
                                    "maxclass": "comment",
                                    "numinlets": 1,
                                    "numoutlets": 0,
                                    "patching_rect": [ 71.0, 31.0, 51.0, 20.0 ],
                                    "text": "audio in"
                                }
                            },
                            {
                                "box": {
                                    "comment": "audio in",
                                    "id": "obj-93",
                                    "index": 1,
                                    "maxclass": "inlet",
                                    "numinlets": 0,
                                    "numoutlets": 1,
                                    "outlettype": [ "signal" ],
                                    "patching_rect": [ 40.0, 26.0, 30.0, 30.0 ]
                                }
                            },
                            {
                                "box": {
                                    "id": "obj-128",
                                    "maxclass": "newobj",
                                    "numinlets": 2,
                                    "numoutlets": 1,
                                    "outlettype": [ "signal" ],
                                    "patching_rect": [ 453.0, 436.0, 62.0, 22.0 ],
                                    "text": "+~"
                                }
                            },
                            {
                                "box": {
                                    "id": "obj-130",
                                    "maxclass": "comment",
                                    "numinlets": 1,
                                    "numoutlets": 0,
                                    "patching_rect": [ 483.0, 275.0, 37.0, 20.0 ],
                                    "text": "noise"
                                }
                            },
                            {
                                "box": {
                                    "comment": "capacitor 2",
                                    "id": "obj-131",
                                    "index": 5,
                                    "maxclass": "inlet",
                                    "numinlets": 0,
                                    "numoutlets": 1,
                                    "outlettype": [ "" ],
                                    "patching_rect": [ 453.0, 270.0, 30.0, 30.0 ]
                                }
                            },
                            {
                                "box": {
                                    "id": "obj-122",
                                    "maxclass": "newobj",
                                    "numinlets": 2,
                                    "numoutlets": 1,
                                    "outlettype": [ "" ],
                                    "patching_rect": [ 371.0, 330.0, 57.0, 22.0 ],
                                    "text": "pack f 35"
                                }
                            },
                            {
                                "box": {
                                    "id": "obj-123",
                                    "maxclass": "newobj",
                                    "numinlets": 2,
                                    "numoutlets": 1,
                                    "outlettype": [ "signal" ],
                                    "patching_rect": [ 329.0, 436.0, 61.0, 22.0 ],
                                    "text": "+~"
                                }
                            },
                            {
                                "box": {
                                    "id": "obj-124",
                                    "maxclass": "newobj",
                                    "numinlets": 2,
                                    "numoutlets": 2,
                                    "outlettype": [ "signal", "bang" ],
                                    "patching_rect": [ 371.0, 383.0, 34.0, 22.0 ],
                                    "text": "line~"
                                }
                            },
                            {
                                "box": {
                                    "id": "obj-125",
                                    "maxclass": "comment",
                                    "numinlets": 1,
                                    "numoutlets": 0,
                                    "patching_rect": [ 239.0, 275.0, 19.0, 20.0 ],
                                    "text": "q"
                                }
                            },
                            {
                                "box": {
                                    "comment": "q",
                                    "id": "obj-126",
                                    "index": 3,
                                    "maxclass": "inlet",
                                    "numinlets": 0,
                                    "numoutlets": 1,
                                    "outlettype": [ "" ],
                                    "patching_rect": [ 204.0, 270.0, 30.0, 30.0 ]
                                }
                            },
                            {
                                "box": {
                                    "id": "obj-118",
                                    "maxclass": "newobj",
                                    "numinlets": 2,
                                    "numoutlets": 1,
                                    "outlettype": [ "" ],
                                    "patching_rect": [ 246.0, 330.0, 57.0, 22.0 ],
                                    "text": "pack f 35"
                                }
                            },
                            {
                                "box": {
                                    "id": "obj-119",
                                    "maxclass": "newobj",
                                    "numinlets": 2,
                                    "numoutlets": 1,
                                    "outlettype": [ "signal" ],
                                    "patching_rect": [ 204.0, 436.0, 61.0, 22.0 ],
                                    "text": "+~"
                                }
                            },
                            {
                                "box": {
                                    "id": "obj-120",
                                    "maxclass": "newobj",
                                    "numinlets": 2,
                                    "numoutlets": 2,
                                    "outlettype": [ "signal", "bang" ],
                                    "patching_rect": [ 246.0, 383.0, 34.0, 22.0 ],
                                    "text": "line~"
                                }
                            },
                            {
                                "box": {
                                    "id": "obj-51",
                                    "maxclass": "comment",
                                    "numinlets": 1,
                                    "numoutlets": 0,
                                    "patching_rect": [ 359.0, 275.0, 57.0, 20.0 ],
                                    "text": "capacitor"
                                }
                            },
                            {
                                "box": {
                                    "comment": "capacitor",
                                    "id": "obj-52",
                                    "index": 4,
                                    "maxclass": "inlet",
                                    "numinlets": 0,
                                    "numoutlets": 1,
                                    "outlettype": [ "" ],
                                    "patching_rect": [ 329.0, 270.0, 30.0, 30.0 ]
                                }
                            },
                            {
                                "box": {
                                    "id": "obj-56",
                                    "maxclass": "newobj",
                                    "numinlets": 2,
                                    "numoutlets": 1,
                                    "outlettype": [ "" ],
                                    "patching_rect": [ 121.0, 330.0, 57.0, 22.0 ],
                                    "text": "pack f 35"
                                }
                            },
                            {
                                "box": {
                                    "id": "obj-53",
                                    "maxclass": "newobj",
                                    "numinlets": 2,
                                    "numoutlets": 1,
                                    "outlettype": [ "signal" ],
                                    "patching_rect": [ 79.0, 436.0, 61.0, 22.0 ],
                                    "text": "+~"
                                }
                            },
                            {
                                "box": {
                                    "id": "obj-64",
                                    "maxclass": "newobj",
                                    "numinlets": 2,
                                    "numoutlets": 2,
                                    "outlettype": [ "signal", "bang" ],
                                    "patching_rect": [ 121.0, 383.0, 34.0, 22.0 ],
                                    "text": "line~"
                                }
                            },
                            {
                                "box": {
                                    "id": "obj-116",
                                    "maxclass": "comment",
                                    "numinlets": 1,
                                    "numoutlets": 0,
                                    "patching_rect": [ 109.0, 275.0, 61.0, 20.0 ],
                                    "text": "frequency"
                                }
                            },
                            {
                                "box": {
                                    "comment": "frequency",
                                    "id": "obj-117",
                                    "index": 2,
                                    "maxclass": "inlet",
                                    "numinlets": 0,
                                    "numoutlets": 1,
                                    "outlettype": [ "" ],
                                    "patching_rect": [ 79.0, 270.0, 30.0, 30.0 ]
                                }
                            },
                            {
                                "box": {
                                    "id": "obj-59",
                                    "maxclass": "comment",
                                    "numinlets": 1,
                                    "numoutlets": 0,
                                    "patching_rect": [ 72.0, 756.0, 58.0, 20.0 ],
                                    "text": "audio out"
                                }
                            },
                            {
                                "box": {
                                    "comment": "audio out",
                                    "id": "obj-57",
                                    "index": 1,
                                    "maxclass": "outlet",
                                    "numinlets": 1,
                                    "numoutlets": 0,
                                    "patching_rect": [ 40.0, 751.0, 30.0, 30.0 ]
                                }
                            },
                            {
                                "box": {
                                    "id": "obj-41",
                                    "maxclass": "newobj",
                                    "numinlets": 5,
                                    "numoutlets": 5,
                                    "outlettype": [ "", "", "", "", "" ],
                                    "patching_rect": [ 121.0, 177.0, 519.0, 22.0 ],
                                    "text": "route frequency q capacitor noise"
                                }
                            },
                            {
                                "box": {
                                    "fontname": "Arial",
                                    "fontsize": 12.0,
                                    "id": "obj-36",
                                    "linecount": 10,
                                    "maxclass": "comment",
                                    "numinlets": 1,
                                    "numoutlets": 0,
                                    "patching_rect": [ 641.0, 19.0, 353.0, 141.0 ],
                                    "text": "A digital recreation of the Ultrasound filter in the ciat-lonbarde Plumbutter drum and drama machine. The Ultrasound filter \"takes any sort of signal, and attempts a Nyquist resampling to bring out any unheard ultrasounds\". It is essentially a switched capacitor filter which can create aliased-sounding results.\n\n@frequency = frequency of filter (-1 to 1)\n@q = resonance of the filter (-1 to 1)\n@capacitor = slew of switching capacitor (-1 to 1)\n@noise = amount of noise added to signal (-1 to 1)"
                                }
                            },
                            {
                                "box": {
                                    "color": [ 1.0, 0.0, 0.0, 1.0 ],
                                    "id": "obj-7",
                                    "maxclass": "newobj",
                                    "numinlets": 1,
                                    "numoutlets": 2,
                                    "outlettype": [ "", "" ],
                                    "patching_rect": [ 209.0, 30.0, 319.0, 22.0 ],
                                    "text": "patcherargs @frequency 0 @q -1 @capacitor 1 @noise -1"
                                }
                            }
                        ],
                        "lines": [
                            {
                                "patchline": {
                                    "destination": [ "obj-41", 0 ],
                                    "source": [ "obj-101", 1 ]
                                }
                            },
                            {
                                "patchline": {
                                    "destination": [ "obj-99", 0 ],
                                    "source": [ "obj-101", 0 ]
                                }
                            },
                            {
                                "patchline": {
                                    "destination": [ "obj-53", 0 ],
                                    "source": [ "obj-117", 0 ]
                                }
                            },
                            {
                                "patchline": {
                                    "destination": [ "obj-120", 0 ],
                                    "source": [ "obj-118", 0 ]
                                }
                            },
                            {
                                "patchline": {
                                    "destination": [ "obj-25", 0 ],
                                    "source": [ "obj-119", 0 ]
                                }
                            },
                            {
                                "patchline": {
                                    "destination": [ "obj-119", 1 ],
                                    "source": [ "obj-120", 0 ]
                                }
                            },
                            {
                                "patchline": {
                                    "destination": [ "obj-124", 0 ],
                                    "source": [ "obj-122", 0 ]
                                }
                            },
                            {
                                "patchline": {
                                    "destination": [ "obj-71", 0 ],
                                    "source": [ "obj-123", 0 ]
                                }
                            },
                            {
                                "patchline": {
                                    "destination": [ "obj-123", 1 ],
                                    "source": [ "obj-124", 0 ]
                                }
                            },
                            {
                                "patchline": {
                                    "destination": [ "obj-119", 0 ],
                                    "source": [ "obj-126", 0 ]
                                }
                            },
                            {
                                "patchline": {
                                    "destination": [ "obj-13", 0 ],
                                    "source": [ "obj-128", 0 ]
                                }
                            },
                            {
                                "patchline": {
                                    "destination": [ "obj-19", 1 ],
                                    "source": [ "obj-13", 0 ]
                                }
                            },
                            {
                                "patchline": {
                                    "destination": [ "obj-128", 0 ],
                                    "source": [ "obj-131", 0 ]
                                }
                            },
                            {
                                "patchline": {
                                    "destination": [ "obj-19", 0 ],
                                    "source": [ "obj-14", 0 ]
                                }
                            },
                            {
                                "patchline": {
                                    "destination": [ "obj-17", 0 ],
                                    "source": [ "obj-16", 0 ]
                                }
                            },
                            {
                                "patchline": {
                                    "destination": [ "obj-128", 1 ],
                                    "source": [ "obj-17", 0 ]
                                }
                            },
                            {
                                "patchline": {
                                    "destination": [ "obj-20", 0 ],
                                    "source": [ "obj-19", 0 ]
                                }
                            },
                            {
                                "patchline": {
                                    "destination": [ "obj-57", 0 ],
                                    "source": [ "obj-20", 0 ]
                                }
                            },
                            {
                                "patchline": {
                                    "destination": [ "obj-20", 3 ],
                                    "source": [ "obj-24", 0 ]
                                }
                            },
                            {
                                "patchline": {
                                    "destination": [ "obj-20", 4 ],
                                    "source": [ "obj-25", 0 ]
                                }
                            },
                            {
                                "patchline": {
                                    "destination": [ "obj-20", 2 ],
                                    "source": [ "obj-26", 0 ]
                                }
                            },
                            {
                                "patchline": {
                                    "destination": [ "obj-118", 0 ],
                                    "source": [ "obj-41", 1 ]
                                }
                            },
                            {
                                "patchline": {
                                    "destination": [ "obj-122", 0 ],
                                    "source": [ "obj-41", 2 ]
                                }
                            },
                            {
                                "patchline": {
                                    "destination": [ "obj-16", 0 ],
                                    "source": [ "obj-41", 3 ]
                                }
                            },
                            {
                                "patchline": {
                                    "destination": [ "obj-56", 0 ],
                                    "source": [ "obj-41", 0 ]
                                }
                            },
                            {
                                "patchline": {
                                    "destination": [ "obj-123", 0 ],
                                    "source": [ "obj-52", 0 ]
                                }
                            },
                            {
                                "patchline": {
                                    "destination": [ "obj-72", 0 ],
                                    "source": [ "obj-53", 0 ]
                                }
                            },
                            {
                                "patchline": {
                                    "destination": [ "obj-64", 0 ],
                                    "source": [ "obj-56", 0 ]
                                }
                            },
                            {
                                "patchline": {
                                    "destination": [ "obj-53", 1 ],
                                    "source": [ "obj-64", 0 ]
                                }
                            },
                            {
                                "patchline": {
                                    "destination": [ "obj-101", 0 ],
                                    "midpoints": [ 518.5, 66.94444444444454, 49.5, 66.94444444444454 ],
                                    "source": [ "obj-7", 1 ]
                                }
                            },
                            {
                                "patchline": {
                                    "destination": [ "obj-26", 0 ],
                                    "source": [ "obj-71", 0 ]
                                }
                            },
                            {
                                "patchline": {
                                    "destination": [ "obj-24", 0 ],
                                    "source": [ "obj-72", 0 ]
                                }
                            },
                            {
                                "patchline": {
                                    "destination": [ "obj-101", 0 ],
                                    "source": [ "obj-93", 0 ]
                                }
                            },
                            {
                                "patchline": {
                                    "destination": [ "obj-20", 0 ],
                                    "source": [ "obj-99", 0 ]
                                }
                            }
                        ]
                    },
                    "patching_rect": [ 22.0, 223.0, 82.0, 22.0 ],
                    "text": "p ultrasound~"
                }
            },
            {
                "box": {
                    "id": "obj-2",
                    "maxclass": "newobj",
                    "numinlets": 1,
                    "numoutlets": 0,
                    "patching_rect": [ 22.0, 262.0, 42.0, 22.0 ],
                    "text": "out~ 1"
                }
            },
            {
                "box": {
                    "id": "obj-1",
                    "maxclass": "newobj",
                    "numinlets": 1,
                    "numoutlets": 1,
                    "outlettype": [ "signal" ],
                    "patching_rect": [ 22.0, 28.0, 35.0, 22.0 ],
                    "text": "in~ 1"
                }
            }
        ],
        "lines": [
            {
                "patchline": {
                    "destination": [ "obj-114", 0 ],
                    "source": [ "obj-1", 0 ]
                }
            },
            {
                "patchline": {
                    "destination": [ "obj-114", 0 ],
                    "source": [ "obj-10", 0 ]
                }
            },
            {
                "patchline": {
                    "destination": [ "obj-29", 0 ],
                    "source": [ "obj-11", 0 ]
                }
            },
            {
                "patchline": {
                    "destination": [ "obj-2", 0 ],
                    "source": [ "obj-114", 0 ]
                }
            },
            {
                "patchline": {
                    "destination": [ "obj-114", 0 ],
                    "source": [ "obj-28", 0 ]
                }
            },
            {
                "patchline": {
                    "destination": [ "obj-114", 0 ],
                    "source": [ "obj-29", 0 ]
                }
            },
            {
                "patchline": {
                    "destination": [ "obj-7", 0 ],
                    "source": [ "obj-3", 0 ]
                }
            },
            {
                "patchline": {
                    "destination": [ "obj-114", 0 ],
                    "source": [ "obj-35", 0 ]
                }
            },
            {
                "patchline": {
                    "destination": [ "obj-8", 0 ],
                    "source": [ "obj-4", 0 ]
                }
            },
            {
                "patchline": {
                    "destination": [ "obj-11", 0 ],
                    "source": [ "obj-5", 0 ]
                }
            },
            {
                "patchline": {
                    "destination": [ "obj-9", 0 ],
                    "source": [ "obj-6", 0 ]
                }
            },
            {
                "patchline": {
                    "destination": [ "obj-10", 0 ],
                    "source": [ "obj-7", 0 ]
                }
            },
            {
                "patchline": {
                    "destination": [ "obj-35", 0 ],
                    "source": [ "obj-8", 0 ]
                }
            },
            {
                "patchline": {
                    "destination": [ "obj-28", 0 ],
                    "source": [ "obj-9", 0 ]
                }
            }
        ],
        "autosave": 0
    }
}