{
    "patcher": {
        "fileversion": 1,
        "appversion": {
            "major": 9,
            "minor": 1,
            "revision": 0,
            "architecture": "x64",
            "modernui": 1
        },
        "classnamespace": "box",
        "rect": [ 381.0, 219.0, 155.0, 98.0 ],
        "toolbarvisible": 0,
        "enablehscroll": 0,
        "enablevscroll": 0,
        "globalpatchername": "efx.sttp@1",
        "boxes": [
            {
                "box": {
                    "angle": 270.0,
                    "grad1": [ 0.5725490196078431, 0.5725490196078431, 0.5725490196078431, 0.48 ],
                    "grad2": [ 0.5529411764705883, 0.5529411764705883, 0.5529411764705883, 0.48 ],
                    "id": "obj-2",
                    "maxclass": "panel",
                    "mode": 1,
                    "numinlets": 1,
                    "numoutlets": 0,
                    "patching_rect": [ 34.0, 23.0, 121.0, 4.0 ],
                    "proportion": 0.5,
                    "rounded": 0
                }
            },
            {
                "box": {
                    "fontsize": 9.0,
                    "id": "obj-7",
                    "maxclass": "comment",
                    "numinlets": 1,
                    "numoutlets": 0,
                    "patching_rect": [ 102.0, 0.0, 38.0, 17.0 ],
                    "text": "on;(do)",
                    "textcolor": [ 0.5725490196078431, 0.5725490196078431, 0.5725490196078431, 1.0 ]
                }
            },
            {
                "box": {
                    "args": [ "@min", 2, "@max", 2, "@in_mix", 1 ],
                    "bgmode": 0,
                    "border": 1,
                    "clickthrough": 0,
                    "enablehscroll": 0,
                    "enablevscroll": 0,
                    "id": "obj-43",
                    "lockeddragscroll": 0,
                    "lockedsize": 0,
                    "maxclass": "bpatcher",
                    "name": "ll.blues.maxpat",
                    "numinlets": 1,
                    "numoutlets": 0,
                    "offset": [ 0.0, 0.0 ],
                    "patching_rect": [ 0.0, 45.0, 155.0, 53.0 ],
                    "varname": "ll.blues",
                    "viewvisibility": 1
                }
            },
            {
                "box": {
                    "fontname": "Arial",
                    "fontsize": 12.0,
                    "hidden": 1,
                    "id": "obj-17",
                    "maxclass": "newobj",
                    "numinlets": 0,
                    "numoutlets": 0,
                    "patcher": {
                        "fileversion": 1,
                        "appversion": {
                            "major": 9,
                            "minor": 1,
                            "revision": 0,
                            "architecture": "x64",
                            "modernui": 1
                        },
                        "classnamespace": "box",
                        "rect": [ 423.0, 119.0, 769.0, 693.0 ],
                        "boxes": [
                            {
                                "box": {
                                    "id": "obj-47",
                                    "maxclass": "newobj",
                                    "numinlets": 1,
                                    "numoutlets": 2,
                                    "outlettype": [ "", "bang" ],
                                    "patching_rect": [ 29.0, 109.0, 66.0, 22.0 ],
                                    "text": "ll.r in_mix~"
                                }
                            },
                            {
                                "box": {
                                    "id": "obj-25",
                                    "maxclass": "newobj",
                                    "numinlets": 1,
                                    "numoutlets": 2,
                                    "outlettype": [ "signal", "signal" ],
                                    "patching_rect": [ 29.0, 142.0, 74.0, 22.0 ],
                                    "text": "mc.unpack~"
                                }
                            },
                            {
                                "box": {
                                    "id": "obj-23",
                                    "maxclass": "newobj",
                                    "numinlets": 3,
                                    "numoutlets": 2,
                                    "outlettype": [ "", "bang" ],
                                    "patching_rect": [ 84.0, 659.0, 68.0, 22.0 ],
                                    "text": "ll.pf ll.blues"
                                }
                            },
                            {
                                "box": {
                                    "id": "obj-7",
                                    "maxclass": "newobj",
                                    "numinlets": 2,
                                    "numoutlets": 1,
                                    "outlettype": [ "multichannelsignal" ],
                                    "patching_rect": [ 84.0, 627.0, 60.0, 22.0 ],
                                    "text": "mc.pack~"
                                }
                            },
                            {
                                "box": {
                                    "id": "obj-58",
                                    "maxclass": "newobj",
                                    "numinlets": 1,
                                    "numoutlets": 1,
                                    "outlettype": [ "" ],
                                    "patching_rect": [ 111.5, 19.0, 70.0, 22.0 ],
                                    "text": "loadmess 1"
                                }
                            },
                            {
                                "box": {
                                    "fontname": "Arial",
                                    "fontsize": 9.0,
                                    "id": "obj-8",
                                    "maxclass": "newobj",
                                    "numinlets": 1,
                                    "numoutlets": 1,
                                    "outlettype": [ "" ],
                                    "patching_rect": [ 330.0, 269.0, 122.0, 19.0 ],
                                    "text": "expr random(10000\\,15000)"
                                }
                            },
                            {
                                "box": {
                                    "fontname": "Arial",
                                    "fontsize": 9.0,
                                    "id": "obj-1",
                                    "maxclass": "newobj",
                                    "numinlets": 2,
                                    "numoutlets": 1,
                                    "outlettype": [ "signal" ],
                                    "patching_rect": [ 290.0, 328.0, 33.0, 19.0 ],
                                    "text": "*~ 0.6"
                                }
                            },
                            {
                                "box": {
                                    "fontname": "Arial",
                                    "fontsize": 9.0,
                                    "id": "obj-10",
                                    "maxclass": "newobj",
                                    "numinlets": 4,
                                    "numoutlets": 1,
                                    "outlettype": [ "signal" ],
                                    "patching_rect": [ 290.0, 299.0, 70.0, 19.0 ],
                                    "text": "reson~ 10 0 30"
                                }
                            },
                            {
                                "box": {
                                    "fontname": "Arial",
                                    "fontsize": 9.0,
                                    "id": "obj-11",
                                    "maxclass": "newobj",
                                    "numinlets": 1,
                                    "numoutlets": 1,
                                    "outlettype": [ "" ],
                                    "patching_rect": [ 224.0, 377.0, 97.0, 19.0 ],
                                    "text": "expr random(20\\,500)"
                                }
                            },
                            {
                                "box": {
                                    "id": "obj-12",
                                    "maxclass": "toggle",
                                    "numinlets": 1,
                                    "numoutlets": 1,
                                    "outlettype": [ "int" ],
                                    "parameter_enable": 0,
                                    "patching_rect": [ 112.0, 52.0, 15.0, 15.0 ]
                                }
                            },
                            {
                                "box": {
                                    "fontname": "Arial",
                                    "fontsize": 9.0,
                                    "id": "obj-13",
                                    "maxclass": "newobj",
                                    "numinlets": 2,
                                    "numoutlets": 1,
                                    "outlettype": [ "bang" ],
                                    "patching_rect": [ 173.0, 377.0, 50.0, 19.0 ],
                                    "text": "metro 300"
                                }
                            },
                            {
                                "box": {
                                    "fontname": "Arial",
                                    "fontsize": 9.0,
                                    "id": "obj-14",
                                    "maxclass": "newobj",
                                    "numinlets": 2,
                                    "numoutlets": 1,
                                    "outlettype": [ "signal" ],
                                    "patching_rect": [ 84.0, 377.0, 28.0, 19.0 ],
                                    "text": "*~ 1."
                                }
                            },
                            {
                                "box": {
                                    "fontname": "Arial",
                                    "fontsize": 9.0,
                                    "id": "obj-15",
                                    "maxclass": "newobj",
                                    "numinlets": 2,
                                    "numoutlets": 1,
                                    "outlettype": [ "signal" ],
                                    "patching_rect": [ 502.0, 530.0, 27.0, 19.0 ],
                                    "text": "*~ 9"
                                }
                            },
                            {
                                "box": {
                                    "fontname": "Arial",
                                    "fontsize": 9.0,
                                    "id": "obj-16",
                                    "maxclass": "newobj",
                                    "numinlets": 1,
                                    "numoutlets": 1,
                                    "outlettype": [ "" ],
                                    "patching_rect": [ 591.0, 477.0, 119.0, 19.0 ],
                                    "text": "expr random(1\\,10000)*0.1"
                                }
                            },
                            {
                                "box": {
                                    "fontname": "Arial",
                                    "fontsize": 9.0,
                                    "id": "obj-17",
                                    "maxclass": "newobj",
                                    "numinlets": 1,
                                    "numoutlets": 1,
                                    "outlettype": [ "" ],
                                    "patching_rect": [ 591.0, 452.0, 119.0, 19.0 ],
                                    "text": "expr random(1\\,10000)*0.1"
                                }
                            },
                            {
                                "box": {
                                    "fontname": "Arial",
                                    "fontsize": 9.0,
                                    "id": "obj-18",
                                    "maxclass": "newobj",
                                    "numinlets": 1,
                                    "numoutlets": 1,
                                    "outlettype": [ "" ],
                                    "patching_rect": [ 591.0, 426.0, 119.0, 19.0 ],
                                    "text": "expr random(1\\,10000)*0.1"
                                }
                            },
                            {
                                "box": {
                                    "fontname": "Arial",
                                    "fontsize": 9.0,
                                    "id": "obj-2",
                                    "maxclass": "newobj",
                                    "numinlets": 3,
                                    "numoutlets": 1,
                                    "outlettype": [ "signal" ],
                                    "patching_rect": [ 502.0, 503.0, 88.0, 19.0 ],
                                    "text": "allpass~ 100 85 0.7"
                                }
                            },
                            {
                                "box": {
                                    "fontname": "Arial",
                                    "fontsize": 9.0,
                                    "id": "obj-20",
                                    "maxclass": "newobj",
                                    "numinlets": 3,
                                    "numoutlets": 1,
                                    "outlettype": [ "signal" ],
                                    "patching_rect": [ 502.0, 477.0, 88.0, 19.0 ],
                                    "text": "allpass~ 100 67 0.7"
                                }
                            },
                            {
                                "box": {
                                    "fontname": "Arial",
                                    "fontsize": 9.0,
                                    "id": "obj-3",
                                    "maxclass": "newobj",
                                    "numinlets": 3,
                                    "numoutlets": 1,
                                    "outlettype": [ "signal" ],
                                    "patching_rect": [ 502.0, 452.0, 88.0, 19.0 ],
                                    "text": "allpass~ 100 64 0.7"
                                }
                            },
                            {
                                "box": {
                                    "fontname": "Arial",
                                    "fontsize": 9.0,
                                    "id": "obj-22",
                                    "maxclass": "newobj",
                                    "numinlets": 1,
                                    "numoutlets": 1,
                                    "outlettype": [ "" ],
                                    "patching_rect": [ 530.0, 530.0, 119.0, 19.0 ],
                                    "text": "expr random(20\\,100)*0.01"
                                }
                            },
                            {
                                "box": {
                                    "fontname": "Arial",
                                    "fontsize": 9.0,
                                    "id": "obj-4",
                                    "maxclass": "newobj",
                                    "numinlets": 2,
                                    "numoutlets": 1,
                                    "outlettype": [ "signal" ],
                                    "patching_rect": [ 502.0, 583.0, 33.0, 19.0 ],
                                    "text": "*~ 0.1"
                                }
                            },
                            {
                                "box": {
                                    "fontname": "Arial",
                                    "fontsize": 9.0,
                                    "id": "obj-24",
                                    "maxclass": "newobj",
                                    "numinlets": 3,
                                    "numoutlets": 1,
                                    "outlettype": [ "signal" ],
                                    "patching_rect": [ 502.0, 556.0, 67.0, 19.0 ],
                                    "text": "degrade~ 1 16"
                                }
                            },
                            {
                                "box": {
                                    "fontname": "Arial",
                                    "fontsize": 9.0,
                                    "id": "obj-5",
                                    "maxclass": "newobj",
                                    "numinlets": 2,
                                    "numoutlets": 1,
                                    "outlettype": [ "signal" ],
                                    "patching_rect": [ 293.0, 530.0, 27.0, 19.0 ],
                                    "text": "*~ 9"
                                }
                            },
                            {
                                "box": {
                                    "fontname": "Arial",
                                    "fontsize": 9.0,
                                    "id": "obj-26",
                                    "maxclass": "newobj",
                                    "numinlets": 1,
                                    "numoutlets": 1,
                                    "outlettype": [ "" ],
                                    "patching_rect": [ 382.0, 477.0, 119.0, 19.0 ],
                                    "text": "expr random(1\\,10000)*0.1"
                                }
                            },
                            {
                                "box": {
                                    "fontname": "Arial",
                                    "fontsize": 9.0,
                                    "id": "obj-27",
                                    "maxclass": "newobj",
                                    "numinlets": 1,
                                    "numoutlets": 1,
                                    "outlettype": [ "" ],
                                    "patching_rect": [ 382.0, 452.0, 119.0, 19.0 ],
                                    "text": "expr random(1\\,10000)*0.1"
                                }
                            },
                            {
                                "box": {
                                    "fontname": "Arial",
                                    "fontsize": 9.0,
                                    "id": "obj-28",
                                    "maxclass": "newobj",
                                    "numinlets": 1,
                                    "numoutlets": 1,
                                    "outlettype": [ "" ],
                                    "patching_rect": [ 382.0, 426.0, 119.0, 19.0 ],
                                    "text": "expr random(1\\,10000)*0.1"
                                }
                            },
                            {
                                "box": {
                                    "fontname": "Arial",
                                    "fontsize": 9.0,
                                    "id": "obj-29",
                                    "maxclass": "newobj",
                                    "numinlets": 3,
                                    "numoutlets": 1,
                                    "outlettype": [ "signal" ],
                                    "patching_rect": [ 293.0, 503.0, 88.0, 19.0 ],
                                    "text": "allpass~ 100 85 0.7"
                                }
                            },
                            {
                                "box": {
                                    "fontname": "Arial",
                                    "fontsize": 9.0,
                                    "id": "obj-30",
                                    "maxclass": "newobj",
                                    "numinlets": 3,
                                    "numoutlets": 1,
                                    "outlettype": [ "signal" ],
                                    "patching_rect": [ 293.0, 477.0, 88.0, 19.0 ],
                                    "text": "allpass~ 100 67 0.7"
                                }
                            },
                            {
                                "box": {
                                    "fontname": "Arial",
                                    "fontsize": 9.0,
                                    "id": "obj-31",
                                    "maxclass": "newobj",
                                    "numinlets": 3,
                                    "numoutlets": 1,
                                    "outlettype": [ "signal" ],
                                    "patching_rect": [ 293.0, 452.0, 88.0, 19.0 ],
                                    "text": "allpass~ 100 64 0.7"
                                }
                            },
                            {
                                "box": {
                                    "fontname": "Arial",
                                    "fontsize": 9.0,
                                    "id": "obj-32",
                                    "maxclass": "newobj",
                                    "numinlets": 1,
                                    "numoutlets": 1,
                                    "outlettype": [ "" ],
                                    "patching_rect": [ 321.0, 530.0, 119.0, 19.0 ],
                                    "text": "expr random(20\\,100)*0.01"
                                }
                            },
                            {
                                "box": {
                                    "fontname": "Arial",
                                    "fontsize": 9.0,
                                    "id": "obj-33",
                                    "maxclass": "newobj",
                                    "numinlets": 2,
                                    "numoutlets": 1,
                                    "outlettype": [ "signal" ],
                                    "patching_rect": [ 293.0, 583.0, 33.0, 19.0 ],
                                    "text": "*~ 0.1"
                                }
                            },
                            {
                                "box": {
                                    "fontname": "Arial",
                                    "fontsize": 9.0,
                                    "id": "obj-34",
                                    "maxclass": "newobj",
                                    "numinlets": 3,
                                    "numoutlets": 1,
                                    "outlettype": [ "signal" ],
                                    "patching_rect": [ 293.0, 556.0, 67.0, 19.0 ],
                                    "text": "degrade~ 1 16"
                                }
                            },
                            {
                                "box": {
                                    "fontname": "Arial",
                                    "fontsize": 9.0,
                                    "id": "obj-35",
                                    "maxclass": "newobj",
                                    "numinlets": 2,
                                    "numoutlets": 1,
                                    "outlettype": [ "signal" ],
                                    "patching_rect": [ 84.0, 328.0, 33.0, 19.0 ],
                                    "text": "*~ 0.5"
                                }
                            },
                            {
                                "box": {
                                    "fontname": "Arial",
                                    "fontsize": 9.0,
                                    "id": "obj-36",
                                    "maxclass": "newobj",
                                    "numinlets": 2,
                                    "numoutlets": 1,
                                    "outlettype": [ "signal" ],
                                    "patching_rect": [ 84.0, 530.0, 27.0, 19.0 ],
                                    "text": "*~ 9"
                                }
                            },
                            {
                                "box": {
                                    "fontname": "Arial",
                                    "fontsize": 9.0,
                                    "id": "obj-37",
                                    "maxclass": "newobj",
                                    "numinlets": 1,
                                    "numoutlets": 1,
                                    "outlettype": [ "" ],
                                    "patching_rect": [ 173.0, 477.0, 119.0, 19.0 ],
                                    "text": "expr random(1\\,10000)*0.1"
                                }
                            },
                            {
                                "box": {
                                    "fontname": "Arial",
                                    "fontsize": 9.0,
                                    "id": "obj-38",
                                    "maxclass": "newobj",
                                    "numinlets": 1,
                                    "numoutlets": 1,
                                    "outlettype": [ "" ],
                                    "patching_rect": [ 173.0, 452.0, 119.0, 19.0 ],
                                    "text": "expr random(1\\,10000)*0.1"
                                }
                            },
                            {
                                "box": {
                                    "fontname": "Arial",
                                    "fontsize": 9.0,
                                    "id": "obj-39",
                                    "maxclass": "newobj",
                                    "numinlets": 1,
                                    "numoutlets": 1,
                                    "outlettype": [ "" ],
                                    "patching_rect": [ 173.0, 426.0, 119.0, 19.0 ],
                                    "text": "expr random(1\\,10000)*0.1"
                                }
                            },
                            {
                                "box": {
                                    "fontname": "Arial",
                                    "fontsize": 9.0,
                                    "id": "obj-40",
                                    "maxclass": "newobj",
                                    "numinlets": 3,
                                    "numoutlets": 1,
                                    "outlettype": [ "signal" ],
                                    "patching_rect": [ 84.0, 503.0, 88.0, 19.0 ],
                                    "text": "allpass~ 100 85 0.7"
                                }
                            },
                            {
                                "box": {
                                    "fontname": "Arial",
                                    "fontsize": 9.0,
                                    "id": "obj-41",
                                    "maxclass": "newobj",
                                    "numinlets": 3,
                                    "numoutlets": 1,
                                    "outlettype": [ "signal" ],
                                    "patching_rect": [ 84.0, 477.0, 88.0, 19.0 ],
                                    "text": "allpass~ 100 67 0.7"
                                }
                            },
                            {
                                "box": {
                                    "fontname": "Arial",
                                    "fontsize": 9.0,
                                    "id": "obj-42",
                                    "maxclass": "newobj",
                                    "numinlets": 3,
                                    "numoutlets": 1,
                                    "outlettype": [ "signal" ],
                                    "patching_rect": [ 84.0, 452.0, 88.0, 19.0 ],
                                    "text": "allpass~ 100 64 0.7"
                                }
                            },
                            {
                                "box": {
                                    "fontname": "Arial",
                                    "fontsize": 9.0,
                                    "id": "obj-43",
                                    "maxclass": "newobj",
                                    "numinlets": 2,
                                    "numoutlets": 1,
                                    "outlettype": [ "signal" ],
                                    "patching_rect": [ 118.0, 328.0, 33.0, 19.0 ],
                                    "text": "*~ 0.7"
                                }
                            },
                            {
                                "box": {
                                    "fontname": "Arial",
                                    "fontsize": 9.0,
                                    "id": "obj-44",
                                    "maxclass": "newobj",
                                    "numinlets": 2,
                                    "numoutlets": 1,
                                    "outlettype": [ "signal" ],
                                    "patching_rect": [ 204.0, 328.0, 33.0, 19.0 ],
                                    "text": "*~ 0.4"
                                }
                            },
                            {
                                "box": {
                                    "fontname": "Arial",
                                    "fontsize": 9.0,
                                    "id": "obj-45",
                                    "maxclass": "newobj",
                                    "numinlets": 4,
                                    "numoutlets": 1,
                                    "outlettype": [ "signal" ],
                                    "patching_rect": [ 204.0, 299.0, 85.0, 19.0 ],
                                    "text": "reson~ 10 2000 15"
                                }
                            },
                            {
                                "box": {
                                    "fontname": "Arial",
                                    "fontsize": 9.0,
                                    "id": "obj-46",
                                    "maxclass": "newobj",
                                    "numinlets": 1,
                                    "numoutlets": 1,
                                    "outlettype": [ "" ],
                                    "patching_rect": [ 112.0, 145.0, 119.0, 19.0 ],
                                    "text": "expr random(1\\,3000)*0.01"
                                }
                            },
                            {
                                "box": {
                                    "fontname": "Arial",
                                    "fontsize": 9.0,
                                    "id": "obj-6",
                                    "maxclass": "newobj",
                                    "numinlets": 1,
                                    "numoutlets": 1,
                                    "outlettype": [ "" ],
                                    "patching_rect": [ 112.0, 530.0, 119.0, 19.0 ],
                                    "text": "expr random(30\\,100)*0.01"
                                }
                            },
                            {
                                "box": {
                                    "fontname": "Arial",
                                    "fontsize": 9.0,
                                    "id": "obj-48",
                                    "maxclass": "newobj",
                                    "numinlets": 4,
                                    "numoutlets": 1,
                                    "outlettype": [ "signal" ],
                                    "patching_rect": [ 118.0, 299.0, 85.0, 19.0 ],
                                    "text": "reson~ 10 1000 15"
                                }
                            },
                            {
                                "box": {
                                    "fontname": "Arial",
                                    "fontsize": 9.0,
                                    "id": "obj-49",
                                    "maxclass": "newobj",
                                    "numinlets": 2,
                                    "numoutlets": 1,
                                    "outlettype": [ "signal" ],
                                    "patching_rect": [ 84.0, 583.0, 33.0, 19.0 ],
                                    "text": "*~ 0.1"
                                }
                            },
                            {
                                "box": {
                                    "fontname": "Arial",
                                    "fontsize": 9.0,
                                    "id": "obj-50",
                                    "maxclass": "newobj",
                                    "numinlets": 1,
                                    "numoutlets": 1,
                                    "outlettype": [ "" ],
                                    "patching_rect": [ 209.0, 196.0, 112.0, 19.0 ],
                                    "text": "expr random(1000\\,5000)"
                                }
                            },
                            {
                                "box": {
                                    "fontname": "Arial",
                                    "fontsize": 9.0,
                                    "id": "obj-51",
                                    "maxclass": "newobj",
                                    "numinlets": 2,
                                    "numoutlets": 1,
                                    "outlettype": [ "bang" ],
                                    "patching_rect": [ 112.0, 83.0, 50.0, 19.0 ],
                                    "text": "metro 300"
                                }
                            },
                            {
                                "box": {
                                    "fontname": "Arial",
                                    "fontsize": 9.0,
                                    "id": "obj-52",
                                    "maxclass": "newobj",
                                    "numinlets": 2,
                                    "numoutlets": 1,
                                    "outlettype": [ "signal" ],
                                    "patching_rect": [ 170.0, 196.0, 38.0, 19.0 ],
                                    "text": "*~ 0.9"
                                }
                            },
                            {
                                "box": {
                                    "fontname": "Arial",
                                    "fontsize": 9.0,
                                    "id": "obj-53",
                                    "maxclass": "newobj",
                                    "numinlets": 1,
                                    "numoutlets": 1,
                                    "outlettype": [ "signal" ],
                                    "patching_rect": [ 113.0, 224.0, 39.0, 19.0 ],
                                    "text": "tapout~"
                                }
                            },
                            {
                                "box": {
                                    "fontname": "Arial",
                                    "fontsize": 9.0,
                                    "id": "obj-54",
                                    "maxclass": "newobj",
                                    "numinlets": 1,
                                    "numoutlets": 1,
                                    "outlettype": [ "tapconnect" ],
                                    "patching_rect": [ 113.0, 196.0, 56.0, 19.0 ],
                                    "text": "tapin~ 5000"
                                }
                            },
                            {
                                "box": {
                                    "fontname": "Arial",
                                    "fontsize": 9.0,
                                    "id": "obj-55",
                                    "maxclass": "newobj",
                                    "numinlets": 3,
                                    "numoutlets": 1,
                                    "outlettype": [ "signal" ],
                                    "patching_rect": [ 84.0, 170.0, 67.0, 19.0 ],
                                    "text": "lores~ 500 0.2"
                                }
                            },
                            {
                                "box": {
                                    "fontname": "Arial",
                                    "fontsize": 9.0,
                                    "id": "obj-56",
                                    "maxclass": "newobj",
                                    "numinlets": 3,
                                    "numoutlets": 1,
                                    "outlettype": [ "signal" ],
                                    "patching_rect": [ 84.0, 556.0, 62.0, 19.0 ],
                                    "text": "degrade~ 1 8"
                                }
                            },
                            {
                                "box": {
                                    "fontname": "Arial",
                                    "fontsize": 9.0,
                                    "id": "obj-57",
                                    "maxclass": "newobj",
                                    "numinlets": 2,
                                    "numoutlets": 1,
                                    "outlettype": [ "signal" ],
                                    "patching_rect": [ 84.0, 251.0, 27.0, 19.0 ],
                                    "text": "*~ 1"
                                }
                            },
                            {
                                "box": {
                                    "fontname": "Arial",
                                    "fontsize": 12.0,
                                    "id": "obj-9",
                                    "maxclass": "newobj",
                                    "numinlets": 1,
                                    "numoutlets": 2,
                                    "outlettype": [ "", "" ],
                                    "patching_rect": [ 8.0, 13.0, 78.0, 22.0 ],
                                    "save": [ "#N", "thispatcher", ";", "#Q", "end", ";" ],
                                    "text": "thispatcher",
                                    "varname": "subTP"
                                }
                            }
                        ],
                        "lines": [
                            {
                                "patchline": {
                                    "destination": [ "obj-14", 0 ],
                                    "midpoints": [ 299.5, 362.0, 93.5, 362.0 ],
                                    "source": [ "obj-1", 0 ]
                                }
                            },
                            {
                                "patchline": {
                                    "destination": [ "obj-1", 0 ],
                                    "source": [ "obj-10", 0 ]
                                }
                            },
                            {
                                "patchline": {
                                    "destination": [ "obj-13", 1 ],
                                    "source": [ "obj-11", 0 ]
                                }
                            },
                            {
                                "patchline": {
                                    "destination": [ "obj-13", 0 ],
                                    "midpoints": [ 121.0, 71.0, 182.5, 71.0 ],
                                    "order": 0,
                                    "source": [ "obj-12", 0 ]
                                }
                            },
                            {
                                "patchline": {
                                    "destination": [ "obj-51", 0 ],
                                    "order": 1,
                                    "source": [ "obj-12", 0 ]
                                }
                            },
                            {
                                "patchline": {
                                    "destination": [ "obj-11", 0 ],
                                    "order": 2,
                                    "source": [ "obj-13", 0 ]
                                }
                            },
                            {
                                "patchline": {
                                    "destination": [ "obj-18", 0 ],
                                    "midpoints": [ 182.5, 411.0, 600.5, 411.0 ],
                                    "order": 0,
                                    "source": [ "obj-13", 0 ]
                                }
                            },
                            {
                                "patchline": {
                                    "destination": [ "obj-28", 0 ],
                                    "midpoints": [ 182.5, 405.0, 391.5, 405.0 ],
                                    "order": 1,
                                    "source": [ "obj-13", 0 ]
                                }
                            },
                            {
                                "patchline": {
                                    "destination": [ "obj-39", 0 ],
                                    "order": 3,
                                    "source": [ "obj-13", 0 ]
                                }
                            },
                            {
                                "patchline": {
                                    "destination": [ "obj-3", 0 ],
                                    "midpoints": [ 93.5, 418.0, 511.5, 418.0 ],
                                    "order": 0,
                                    "source": [ "obj-14", 0 ]
                                }
                            },
                            {
                                "patchline": {
                                    "destination": [ "obj-31", 0 ],
                                    "midpoints": [ 93.5, 418.0, 302.5, 418.0 ],
                                    "order": 1,
                                    "source": [ "obj-14", 0 ]
                                }
                            },
                            {
                                "patchline": {
                                    "destination": [ "obj-42", 0 ],
                                    "order": 2,
                                    "source": [ "obj-14", 0 ]
                                }
                            },
                            {
                                "patchline": {
                                    "destination": [ "obj-24", 0 ],
                                    "source": [ "obj-15", 0 ]
                                }
                            },
                            {
                                "patchline": {
                                    "destination": [ "obj-2", 1 ],
                                    "order": 0,
                                    "source": [ "obj-16", 0 ]
                                }
                            },
                            {
                                "patchline": {
                                    "destination": [ "obj-22", 0 ],
                                    "order": 1,
                                    "source": [ "obj-16", 0 ]
                                }
                            },
                            {
                                "patchline": {
                                    "destination": [ "obj-16", 0 ],
                                    "order": 0,
                                    "source": [ "obj-17", 0 ]
                                }
                            },
                            {
                                "patchline": {
                                    "destination": [ "obj-20", 1 ],
                                    "order": 1,
                                    "source": [ "obj-17", 0 ]
                                }
                            },
                            {
                                "patchline": {
                                    "destination": [ "obj-17", 0 ],
                                    "order": 0,
                                    "source": [ "obj-18", 0 ]
                                }
                            },
                            {
                                "patchline": {
                                    "destination": [ "obj-3", 1 ],
                                    "order": 1,
                                    "source": [ "obj-18", 0 ]
                                }
                            },
                            {
                                "patchline": {
                                    "destination": [ "obj-15", 0 ],
                                    "source": [ "obj-2", 0 ]
                                }
                            },
                            {
                                "patchline": {
                                    "destination": [ "obj-2", 0 ],
                                    "source": [ "obj-20", 0 ]
                                }
                            },
                            {
                                "patchline": {
                                    "destination": [ "obj-24", 1 ],
                                    "source": [ "obj-22", 0 ]
                                }
                            },
                            {
                                "patchline": {
                                    "destination": [ "obj-4", 0 ],
                                    "source": [ "obj-24", 0 ]
                                }
                            },
                            {
                                "patchline": {
                                    "destination": [ "obj-55", 0 ],
                                    "source": [ "obj-25", 1 ]
                                }
                            },
                            {
                                "patchline": {
                                    "destination": [ "obj-55", 0 ],
                                    "midpoints": [ 38.5, 167.0, 93.5, 167.0 ],
                                    "source": [ "obj-25", 0 ]
                                }
                            },
                            {
                                "patchline": {
                                    "destination": [ "obj-29", 1 ],
                                    "order": 0,
                                    "source": [ "obj-26", 0 ]
                                }
                            },
                            {
                                "patchline": {
                                    "destination": [ "obj-32", 0 ],
                                    "order": 1,
                                    "source": [ "obj-26", 0 ]
                                }
                            },
                            {
                                "patchline": {
                                    "destination": [ "obj-26", 0 ],
                                    "order": 0,
                                    "source": [ "obj-27", 0 ]
                                }
                            },
                            {
                                "patchline": {
                                    "destination": [ "obj-30", 1 ],
                                    "order": 1,
                                    "source": [ "obj-27", 0 ]
                                }
                            },
                            {
                                "patchline": {
                                    "destination": [ "obj-27", 0 ],
                                    "order": 0,
                                    "source": [ "obj-28", 0 ]
                                }
                            },
                            {
                                "patchline": {
                                    "destination": [ "obj-31", 1 ],
                                    "order": 1,
                                    "source": [ "obj-28", 0 ]
                                }
                            },
                            {
                                "patchline": {
                                    "destination": [ "obj-5", 0 ],
                                    "source": [ "obj-29", 0 ]
                                }
                            },
                            {
                                "patchline": {
                                    "destination": [ "obj-20", 0 ],
                                    "source": [ "obj-3", 0 ]
                                }
                            },
                            {
                                "patchline": {
                                    "destination": [ "obj-29", 0 ],
                                    "source": [ "obj-30", 0 ]
                                }
                            },
                            {
                                "patchline": {
                                    "destination": [ "obj-30", 0 ],
                                    "source": [ "obj-31", 0 ]
                                }
                            },
                            {
                                "patchline": {
                                    "destination": [ "obj-34", 1 ],
                                    "source": [ "obj-32", 0 ]
                                }
                            },
                            {
                                "patchline": {
                                    "destination": [ "obj-7", 0 ],
                                    "midpoints": [ 302.5, 614.5, 93.5, 614.5 ],
                                    "source": [ "obj-33", 0 ]
                                }
                            },
                            {
                                "patchline": {
                                    "destination": [ "obj-33", 0 ],
                                    "source": [ "obj-34", 0 ]
                                }
                            },
                            {
                                "patchline": {
                                    "destination": [ "obj-14", 0 ],
                                    "source": [ "obj-35", 0 ]
                                }
                            },
                            {
                                "patchline": {
                                    "destination": [ "obj-56", 0 ],
                                    "source": [ "obj-36", 0 ]
                                }
                            },
                            {
                                "patchline": {
                                    "destination": [ "obj-40", 1 ],
                                    "order": 0,
                                    "source": [ "obj-37", 0 ]
                                }
                            },
                            {
                                "patchline": {
                                    "destination": [ "obj-6", 0 ],
                                    "order": 1,
                                    "source": [ "obj-37", 0 ]
                                }
                            },
                            {
                                "patchline": {
                                    "destination": [ "obj-37", 0 ],
                                    "order": 0,
                                    "source": [ "obj-38", 0 ]
                                }
                            },
                            {
                                "patchline": {
                                    "destination": [ "obj-41", 1 ],
                                    "order": 1,
                                    "source": [ "obj-38", 0 ]
                                }
                            },
                            {
                                "patchline": {
                                    "destination": [ "obj-38", 0 ],
                                    "order": 0,
                                    "source": [ "obj-39", 0 ]
                                }
                            },
                            {
                                "patchline": {
                                    "destination": [ "obj-42", 1 ],
                                    "order": 1,
                                    "source": [ "obj-39", 0 ]
                                }
                            },
                            {
                                "patchline": {
                                    "destination": [ "obj-7", 1 ],
                                    "midpoints": [ 511.5, 614.5, 134.5, 614.5 ],
                                    "source": [ "obj-4", 0 ]
                                }
                            },
                            {
                                "patchline": {
                                    "destination": [ "obj-36", 0 ],
                                    "source": [ "obj-40", 0 ]
                                }
                            },
                            {
                                "patchline": {
                                    "destination": [ "obj-40", 0 ],
                                    "source": [ "obj-41", 0 ]
                                }
                            },
                            {
                                "patchline": {
                                    "destination": [ "obj-41", 0 ],
                                    "source": [ "obj-42", 0 ]
                                }
                            },
                            {
                                "patchline": {
                                    "destination": [ "obj-14", 0 ],
                                    "midpoints": [ 127.5, 362.0, 93.5, 362.0 ],
                                    "source": [ "obj-43", 0 ]
                                }
                            },
                            {
                                "patchline": {
                                    "destination": [ "obj-14", 0 ],
                                    "midpoints": [ 213.5, 362.0, 93.5, 362.0 ],
                                    "source": [ "obj-44", 0 ]
                                }
                            },
                            {
                                "patchline": {
                                    "destination": [ "obj-44", 0 ],
                                    "source": [ "obj-45", 0 ]
                                }
                            },
                            {
                                "patchline": {
                                    "destination": [ "obj-55", 1 ],
                                    "source": [ "obj-46", 0 ]
                                }
                            },
                            {
                                "patchline": {
                                    "destination": [ "obj-25", 0 ],
                                    "source": [ "obj-47", 0 ]
                                }
                            },
                            {
                                "patchline": {
                                    "destination": [ "obj-43", 0 ],
                                    "source": [ "obj-48", 0 ]
                                }
                            },
                            {
                                "patchline": {
                                    "destination": [ "obj-7", 1 ],
                                    "midpoints": [ 93.5, 614.5, 134.5, 614.5 ],
                                    "order": 0,
                                    "source": [ "obj-49", 0 ]
                                }
                            },
                            {
                                "patchline": {
                                    "destination": [ "obj-7", 0 ],
                                    "order": 1,
                                    "source": [ "obj-49", 0 ]
                                }
                            },
                            {
                                "patchline": {
                                    "destination": [ "obj-34", 0 ],
                                    "source": [ "obj-5", 0 ]
                                }
                            },
                            {
                                "patchline": {
                                    "destination": [ "obj-51", 1 ],
                                    "order": 1,
                                    "source": [ "obj-50", 0 ]
                                }
                            },
                            {
                                "patchline": {
                                    "destination": [ "obj-53", 0 ],
                                    "midpoints": [ 218.5, 219.0, 122.5, 219.0 ],
                                    "order": 2,
                                    "source": [ "obj-50", 0 ]
                                }
                            },
                            {
                                "patchline": {
                                    "destination": [ "obj-8", 0 ],
                                    "midpoints": [ 218.5, 242.0, 339.5, 242.0 ],
                                    "order": 0,
                                    "source": [ "obj-50", 0 ]
                                }
                            },
                            {
                                "patchline": {
                                    "destination": [ "obj-46", 0 ],
                                    "order": 1,
                                    "source": [ "obj-51", 0 ]
                                }
                            },
                            {
                                "patchline": {
                                    "destination": [ "obj-50", 0 ],
                                    "midpoints": [ 121.5, 125.0, 218.5, 125.0 ],
                                    "order": 0,
                                    "source": [ "obj-51", 0 ]
                                }
                            },
                            {
                                "patchline": {
                                    "destination": [ "obj-54", 0 ],
                                    "source": [ "obj-52", 0 ]
                                }
                            },
                            {
                                "patchline": {
                                    "destination": [ "obj-52", 0 ],
                                    "order": 0,
                                    "source": [ "obj-53", 0 ]
                                }
                            },
                            {
                                "patchline": {
                                    "destination": [ "obj-57", 0 ],
                                    "midpoints": [ 122.5, 247.0, 93.5, 247.0 ],
                                    "order": 1,
                                    "source": [ "obj-53", 0 ]
                                }
                            },
                            {
                                "patchline": {
                                    "destination": [ "obj-53", 0 ],
                                    "source": [ "obj-54", 0 ]
                                }
                            },
                            {
                                "patchline": {
                                    "destination": [ "obj-54", 0 ],
                                    "midpoints": [ 93.5, 192.0, 122.5, 192.0 ],
                                    "order": 0,
                                    "source": [ "obj-55", 0 ]
                                }
                            },
                            {
                                "patchline": {
                                    "destination": [ "obj-57", 0 ],
                                    "order": 1,
                                    "source": [ "obj-55", 0 ]
                                }
                            },
                            {
                                "patchline": {
                                    "destination": [ "obj-49", 0 ],
                                    "source": [ "obj-56", 0 ]
                                }
                            },
                            {
                                "patchline": {
                                    "destination": [ "obj-10", 0 ],
                                    "midpoints": [ 93.5, 284.0, 299.5, 284.0 ],
                                    "order": 0,
                                    "source": [ "obj-57", 0 ]
                                }
                            },
                            {
                                "patchline": {
                                    "destination": [ "obj-35", 0 ],
                                    "order": 3,
                                    "source": [ "obj-57", 0 ]
                                }
                            },
                            {
                                "patchline": {
                                    "destination": [ "obj-45", 0 ],
                                    "midpoints": [ 93.5, 284.0, 213.5, 284.0 ],
                                    "order": 1,
                                    "source": [ "obj-57", 0 ]
                                }
                            },
                            {
                                "patchline": {
                                    "destination": [ "obj-48", 0 ],
                                    "midpoints": [ 93.5, 284.0, 127.5, 284.0 ],
                                    "order": 2,
                                    "source": [ "obj-57", 0 ]
                                }
                            },
                            {
                                "patchline": {
                                    "destination": [ "obj-12", 0 ],
                                    "source": [ "obj-58", 0 ]
                                }
                            },
                            {
                                "patchline": {
                                    "destination": [ "obj-56", 1 ],
                                    "source": [ "obj-6", 0 ]
                                }
                            },
                            {
                                "patchline": {
                                    "destination": [ "obj-23", 0 ],
                                    "source": [ "obj-7", 0 ]
                                }
                            },
                            {
                                "patchline": {
                                    "destination": [ "obj-10", 2 ],
                                    "source": [ "obj-8", 0 ]
                                }
                            }
                        ]
                    },
                    "patching_rect": [ 212.0, 245.0, 95.0, 22.0 ],
                    "text": "p efx.sttp@_sub",
                    "varname": "sub"
                }
            },
            {
                "box": {
                    "active": {
                        "act::active_store": 0,
                        "act::master/activest": 0,
                        "ll.blues": 0,
                        "ll.blues::status": 0,
                        "ll.blues::outputs~": 0,
                        "ll.blues::outputsMix~": 0,
                        "ll.blues::chans": 0,
                        "ll.blues::levels": 0
                    },
                    "color": [ 0.0, 0.0, 0.0, 1.0 ],
                    "fontname": "Arial",
                    "fontsize": 12.0,
                    "hidden": 1,
                    "id": "obj-75",
                    "maxclass": "newobj",
                    "numinlets": 1,
                    "numoutlets": 1,
                    "outlettype": [ "" ],
                    "patching_rect": [ 334.0, 219.0, 95.0, 22.0 ],
                    "priority": {
                        "ll.blues::status": 1,
                        "ll.blues::outputs~": 2,
                        "ll.blues::outputsMix~": 3,
                        "ll.blues::chans": 4,
                        "ll.blues::levels": 5
                    },
                    "saved_object_attributes": {
                        "client_rect": [ 499, 162, 1139, 402 ],
                        "parameter_enable": 0,
                        "parameter_mappable": 0,
                        "storage_rect": [ 0, 0, 640, 240 ]
                    },
                    "text": "pattrstorage pat",
                    "varname": "pat"
                }
            },
            {
                "box": {
                    "color": [ 0.0, 0.0, 0.0, 1.0 ],
                    "fontname": "Arial",
                    "fontsize": 12.0,
                    "hidden": 1,
                    "id": "obj-76",
                    "maxclass": "newobj",
                    "numinlets": 1,
                    "numoutlets": 2,
                    "outlettype": [ "", "" ],
                    "patching_rect": [ 321.0, 292.0, 107.0, 22.0 ],
                    "save": [ "#N", "thispatcher", ";", "#Q", "end", ";" ],
                    "text": "thispatcher",
                    "varname": "thispatcher"
                }
            },
            {
                "box": {
                    "color": [ 0.0, 0.0, 0.0, 1.0 ],
                    "fontname": "Arial",
                    "fontsize": 12.0,
                    "hidden": 1,
                    "id": "obj-77",
                    "maxclass": "newobj",
                    "numinlets": 1,
                    "numoutlets": 1,
                    "outlettype": [ "" ],
                    "patching_rect": [ 321.0, 313.0, 107.0, 22.0 ],
                    "text": "pattrmarker no",
                    "varname": "pattrmarker"
                }
            },
            {
                "box": {
                    "color": [ 0.0, 0.0, 0.0, 1.0 ],
                    "fontname": "Arial",
                    "fontsize": 12.0,
                    "hidden": 1,
                    "id": "obj-78",
                    "maxclass": "newobj",
                    "numinlets": 1,
                    "numoutlets": 4,
                    "outlettype": [ "", "", "", "" ],
                    "patching_rect": [ 321.0, 334.0, 107.0, 22.0 ],
                    "text": "autopattr autopattr",
                    "varname": "autopattr"
                }
            },
            {
                "box": {
                    "args": [ "efx.sttp@", "FFFFFF" ],
                    "bgmode": 0,
                    "border": 0,
                    "clickthrough": 0,
                    "enablehscroll": 0,
                    "enablevscroll": 0,
                    "id": "obj-3",
                    "lockeddragscroll": 0,
                    "lockedsize": 0,
                    "maxclass": "bpatcher",
                    "name": "actmakeB.maxpat",
                    "numinlets": 1,
                    "numoutlets": 0,
                    "offset": [ 0.0, 0.0 ],
                    "patching_rect": [ 0.0, 0.0, 72.72265625, 16.0 ],
                    "varname": "act",
                    "viewvisibility": 1
                }
            },
            {
                "box": {
                    "hidden": 1,
                    "id": "obj-4",
                    "maxclass": "newobj",
                    "numinlets": 1,
                    "numoutlets": 1,
                    "outlettype": [ "" ],
                    "patching_rect": [ 334.0, 240.0, 115.0, 22.0 ],
                    "text": "pattrforward act::in2",
                    "varname": "pf"
                }
            }
        ],
        "lines": [
            {
                "patchline": {
                    "destination": [ "obj-4", 0 ],
                    "hidden": 1,
                    "source": [ "obj-75", 0 ]
                }
            }
        ],
        "autosave": 0,
        "bgcolor": [ 1.0, 1.0, 1.0, 1.0 ]
    }
}