{
	"patcher" : 	{
		"fileversion" : 1,
		"appversion" : 		{
			"major" : 9,
			"minor" : 0,
			"revision" : 8,
			"architecture" : "x64",
			"modernui" : 1
		}
,
		"classnamespace" : "box",
		"rect" : [ 100.0, 100.0, 326.0, 309.0 ],
		"gridsize" : [ 15.0, 15.0 ],
		"boxes" : [ 			{
				"box" : 				{
					"fontname" : "Arial",
					"fontsize" : 10.0,
					"id" : "obj-2",
					"linecount" : 2,
					"maxclass" : "comment",
					"numinlets" : 1,
					"numoutlets" : 0,
					"patching_rect" : [ 129.0, 207.0, 95.0, 29.0 ],
					"text" : "get info on:\nblue output section",
					"textcolor" : [ 0.184313725490196, 0.184313725490196, 0.184313725490196, 1.0 ]
				}

			}
, 			{
				"box" : 				{
					"allowdrag" : 0,
					"bgcolor" : [ 0.866667, 0.866667, 0.866667, 1.0 ],
					"bgfillcolor_color" : [ 0.866667, 0.866667, 0.866667, 1.0 ],
					"bgfillcolor_color1" : [ 0.172137149796092, 0.172137100044002, 0.172137113045018, 1 ],
					"bgfillcolor_color2" : [ 0.172137149796092, 0.172137100044002, 0.172137113045018, 1 ],
					"bgfillcolor_type" : "color",
					"fontname" : "Arial",
					"fontsize" : 10.0,
					"id" : "obj-15",
					"items" : "ll.blues",
					"labelclick" : 1,
					"maxclass" : "umenu",
					"menumode" : 2,
					"numinlets" : 1,
					"numoutlets" : 3,
					"outlettype" : [ "int", "", "" ],
					"parameter_enable" : 0,
					"patching_rect" : [ 147.0, 238.0, 42.0, 20.0 ],
					"prefix_mode" : 2,
					"textcolor" : [ 0.054902, 0.0, 0.972549, 1.0 ]
				}

			}
, 			{
				"box" : 				{
					"fontface" : 0,
					"format" : [ 1.2 ],
					"id" : "obj-13",
					"label" : [ "intensity" ],
					"max" : 1.0,
					"maxclass" : "ll_number",
					"min" : 0.0,
					"mousefocus" : 1,
					"multidrag" : 0,
					"numinlets" : 1,
					"numoutlets" : 1,
					"outlettype" : [ "" ],
					"parameter_enable" : 0,
					"patching_rect" : [ 34.25, 157.5, 83.0, 21.0 ],
					"slidermax" : 1.0
				}

			}
, 			{
				"box" : 				{
					"fontname" : "Arial",
					"fontsize" : 10.0,
					"id" : "obj-23",
					"linecount" : 2,
					"maxclass" : "comment",
					"numinlets" : 1,
					"numoutlets" : 0,
					"patching_rect" : [ 62.0, 207.0, 60.0, 29.0 ],
					"text" : "get info on:\npresets",
					"textcolor" : [ 0.184313725490196, 0.184313725490196, 0.184313725490196, 1.0 ]
				}

			}
, 			{
				"box" : 				{
					"fontname" : "Arial",
					"fontsize" : 12.0,
					"hidden" : 1,
					"id" : "obj-28",
					"maxclass" : "newobj",
					"numinlets" : 1,
					"numoutlets" : 1,
					"outlettype" : [ "" ],
					"patching_rect" : [ 83.0, 270.0, 81.0, 22.0 ],
					"text" : "prepend help"
				}

			}
, 			{
				"box" : 				{
					"fontname" : "Arial",
					"fontsize" : 12.0,
					"hidden" : 1,
					"id" : "obj-29",
					"maxclass" : "newobj",
					"numinlets" : 1,
					"numoutlets" : 1,
					"outlettype" : [ "" ],
					"patching_rect" : [ 83.0, 293.0, 53.0, 22.0 ],
					"text" : "pcontrol"
				}

			}
, 			{
				"box" : 				{
					"allowdrag" : 0,
					"bgcolor" : [ 0.866667, 0.866667, 0.866667, 1.0 ],
					"bgfillcolor_color" : [ 0.866667, 0.866667, 0.866667, 1.0 ],
					"bgfillcolor_color1" : [ 0.172137149796092, 0.172137100044002, 0.172137113045018, 1 ],
					"bgfillcolor_color2" : [ 0.172137149796092, 0.172137100044002, 0.172137113045018, 1 ],
					"bgfillcolor_type" : "color",
					"fontname" : "Arial",
					"fontsize" : 10.0,
					"id" : "obj-30",
					"items" : "presetsInfo",
					"labelclick" : 1,
					"maxclass" : "umenu",
					"menumode" : 2,
					"numinlets" : 1,
					"numoutlets" : 3,
					"outlettype" : [ "int", "", "" ],
					"parameter_enable" : 0,
					"patching_rect" : [ 59.0, 238.0, 66.5, 20.0 ],
					"prefix_mode" : 1,
					"textcolor" : [ 0.054902, 0.0, 0.972549, 1.0 ]
				}

			}
, 			{
				"box" : 				{
					"fontsize" : 10.0,
					"id" : "obj-7",
					"linecount" : 2,
					"maxclass" : "comment",
					"numinlets" : 1,
					"numoutlets" : 0,
					"patching_rect" : [ 34.25, 111.5, 98.5, 29.0 ],
					"text" : "the average rate of crackle generation",
					"textcolor" : [ 0.184313725490196, 0.184313725490196, 0.184313725490196, 1.0 ]
				}

			}
, 			{
				"box" : 				{
					"fontface" : 0,
					"format" : [ 1.2 ],
					"id" : "obj-5",
					"label" : [ "density" ],
					"max" : 1.0,
					"maxclass" : "ll_number",
					"min" : 0.0,
					"mousefocus" : 1,
					"multidrag" : 0,
					"numinlets" : 1,
					"numoutlets" : 1,
					"outlettype" : [ "" ],
					"parameter_enable" : 0,
					"patching_rect" : [ 140.0, 116.0, 83.0, 20.0 ],
					"slidermax" : 1.0
				}

			}
, 			{
				"box" : 				{
					"fontface" : 0,
					"format" : [ 1.2 ],
					"id" : "obj-24",
					"label" : [ "freq" ],
					"maxclass" : "ll_number",
					"mousefocus" : 1,
					"multidrag" : 0,
					"numinlets" : 1,
					"numoutlets" : 1,
					"outlettype" : [ "" ],
					"parameter_enable" : 0,
					"patching_rect" : [ 15.0, 75.0, 82.0, 20.0 ],
					"sliderlog" : 3.0,
					"slidermax" : 20000.0
				}

			}
, 			{
				"box" : 				{
					"fontsize" : 10.0,
					"id" : "obj-12",
					"maxclass" : "comment",
					"numinlets" : 1,
					"numoutlets" : 0,
					"patching_rect" : [ 198.0, 276.0, 111.0, 18.0 ],
					"text" : "ppooll-ified by f. botello",
					"textcolor" : [ 0.184313725490196, 0.184313725490196, 0.184313725490196, 1.0 ]
				}

			}
, 			{
				"box" : 				{
					"fontsize" : 10.0,
					"id" : "obj-10",
					"linecount" : 3,
					"maxclass" : "comment",
					"numinlets" : 1,
					"numoutlets" : 0,
					"patching_rect" : [ 122.0, 148.0, 180.0, 40.0 ],
					"text" : "controls the average intensity by flattening the amplitude distribution, modulating filters and envelope times",
					"textcolor" : [ 0.184313725490196, 0.184313725490196, 0.184313725490196, 1.0 ]
				}

			}
, 			{
				"box" : 				{
					"fontsize" : 10.0,
					"id" : "obj-9",
					"linecount" : 2,
					"maxclass" : "comment",
					"numinlets" : 1,
					"numoutlets" : 0,
					"patching_rect" : [ 103.0, 70.5, 127.0, 29.0 ],
					"text" : "sets the center frequency of the bandpass filter in Hz",
					"textcolor" : [ 0.184313725490196, 0.184313725490196, 0.184313725490196, 1.0 ]
				}

			}
, 			{
				"box" : 				{
					"fontsize" : 10.0,
					"id" : "obj-6",
					"maxclass" : "comment",
					"numinlets" : 1,
					"numoutlets" : 0,
					"patching_rect" : [ 15.0, 43.0, 191.0, 18.0 ],
					"text" : "an oscillator that emits random transients",
					"textcolor" : [ 0.184313725490196, 0.184313725490196, 0.184313725490196, 1.0 ]
				}

			}
, 			{
				"box" : 				{
					"fontsize" : 16.0,
					"id" : "obj-8",
					"maxclass" : "comment",
					"numinlets" : 1,
					"numoutlets" : 0,
					"patching_rect" : [ 15.0, 13.0, 215.0, 24.0 ],
					"text" : "abl.crackle@ info",
					"textcolor" : [ 0.184313725490196, 0.184313725490196, 0.184313725490196, 1.0 ]
				}

			}
, 			{
				"box" : 				{
					"hidden" : 1,
					"id" : "obj-1",
					"maxclass" : "newobj",
					"numinlets" : 4,
					"numoutlets" : 0,
					"patching_rect" : [ 191.0, 249.0, 118.0, 22.0 ],
					"text" : "bgcolor 148 162 178"
				}

			}
 ],
		"lines" : [ 			{
				"patchline" : 				{
					"destination" : [ "obj-28", 0 ],
					"hidden" : 1,
					"source" : [ "obj-15", 1 ]
				}

			}
, 			{
				"patchline" : 				{
					"destination" : [ "obj-29", 0 ],
					"hidden" : 1,
					"source" : [ "obj-28", 0 ]
				}

			}
, 			{
				"patchline" : 				{
					"destination" : [ "obj-28", 0 ],
					"hidden" : 1,
					"source" : [ "obj-30", 1 ]
				}

			}
 ],
		"dependency_cache" : [ 			{
				"name" : "ll_number.mxo",
				"type" : "iLaX"
			}
 ],
		"autosave" : 0,
		"bgcolor" : [ 0.580392156862745, 0.635294117647059, 0.698039215686274, 1.0 ]
	}

}
